<svg width="175" height="176" viewBox="0 0 175 176" fill="none" xmlns="http://www.w3.org/2000/svg">
<mask id="mask0_1394_1047" style="mask-type:alpha" maskUnits="userSpaceOnUse" x="0" y="0" width="175" height="176">
<rect width="175" height="175.717" fill="#D9D9D9"/>
</mask>
<g mask="url(#mask0_1394_1047)">
<circle cx="87.1509" cy="87.1524" r="49.6448" fill="#E7E2DE" stroke="#2E2D30" stroke-width="1.86"/>
<path d="M111.508 87.1524C111.508 101.005 108.699 113.501 104.2 122.498C99.673 131.552 93.5915 136.797 87.1507 136.797C80.7098 136.797 74.6283 131.552 70.1016 122.498C65.6027 113.501 62.7933 101.005 62.7933 87.1524C62.7933 73.2996 65.6027 60.8043 70.1016 51.8066C74.6283 42.7532 80.7098 37.5076 87.1507 37.5076C93.5915 37.5076 99.673 42.7532 104.2 51.8066C108.699 60.8043 111.508 73.2996 111.508 87.1524Z" fill="#E7E2DE" stroke="#2E2D30" stroke-width="1.86"/>
<rect x="86.1406" y="36.5776" width="1.34928" height="101.15" fill="#2E2D30"/>
<rect x="36.5762" y="86.141" width="101.15" height="1.34928" fill="#2E2D30"/>
<rect x="44.668" y="60.3477" width="84.9656" height="1.34928" fill="#2E2D30"/>
<rect x="44.1836" y="111.8" width="85.6792" height="1.34928" fill="#2E2D30"/>
<path d="M74.5861 82.0952C74.5861 90.799 67.5302 97.8549 58.8264 97.8549C50.1226 97.8549 43.0667 90.799 43.0667 82.0952C43.0667 73.3914 50.1226 66.3355 58.8264 66.3355C67.5302 66.3355 74.5861 73.3914 74.5861 82.0952Z" fill="#FFFBFB" stroke="#2E2D30" stroke-width="1.86"/>
<mask id="mask1_1394_1047" style="mask-type:alpha" maskUnits="userSpaceOnUse" x="42" y="65" width="34" height="34">
<path d="M74.5861 82.0951C74.5861 90.7989 67.5302 97.8547 58.8264 97.8547C50.1226 97.8547 43.0667 90.7989 43.0667 82.0951C43.0667 73.3912 50.1226 66.3354 58.8264 66.3354C67.5302 66.3354 74.5861 73.3912 74.5861 82.0951Z" fill="#FFFBFB" stroke="#2E2D30" stroke-width="1.86"/>
</mask>
<g mask="url(#mask1_1394_1047)">
<circle cx="47.9539" cy="84.8767" r="9.86208" fill="#2E2D30"/>
</g>
<mask id="path-11-inside-1_1394_1047" fill="white">
<path d="M75.5161 81.5894C75.5161 79.4641 75.0844 77.3596 74.2456 75.3961C73.4069 73.4326 72.1775 71.6485 70.6278 70.1457C69.078 68.6429 67.2381 67.4508 65.2132 66.6374C63.1884 65.8241 61.0181 65.4055 58.8264 65.4055C56.6347 65.4055 54.4644 65.8241 52.4395 66.6374C50.4146 67.4508 48.5748 68.6429 47.025 70.1457C45.4752 71.6485 44.2459 73.4326 43.4071 75.3961C42.5684 77.3596 42.1367 79.4641 42.1367 81.5894L58.8264 81.5894H75.5161Z"/>
</mask>
<path d="M75.5161 81.5894C75.5161 79.4641 75.0844 77.3596 74.2456 75.3961C73.4069 73.4326 72.1775 71.6485 70.6278 70.1457C69.078 68.6429 67.2381 67.4508 65.2132 66.6374C63.1884 65.8241 61.0181 65.4055 58.8264 65.4055C56.6347 65.4055 54.4644 65.8241 52.4395 66.6374C50.4146 67.4508 48.5748 68.6429 47.025 70.1457C45.4752 71.6485 44.2459 73.4326 43.4071 75.3961C42.5684 77.3596 42.1367 79.4641 42.1367 81.5894L58.8264 81.5894H75.5161Z" fill="#E7E2DE" stroke="#2E2D30" stroke-width="3.72" mask="url(#path-11-inside-1_1394_1047)"/>
<path d="M102.91 82.0953C102.91 90.7991 95.8544 97.855 87.1506 97.855C78.4468 97.855 71.3909 90.7991 71.3909 82.0953C71.3909 73.3915 78.4468 66.3356 87.1506 66.3356C95.8544 66.3356 102.91 73.3915 102.91 82.0953Z" fill="#FFFBFB" stroke="#2E2D30" stroke-width="1.86"/>
<mask id="mask2_1394_1047" style="mask-type:alpha" maskUnits="userSpaceOnUse" x="70" y="65" width="34" height="34">
<path d="M102.91 82.0953C102.91 90.7991 95.8544 97.855 87.1506 97.855C78.4468 97.855 71.3909 90.7991 71.3909 82.0953C71.3909 73.3915 78.4468 66.3356 87.1506 66.3356C95.8544 66.3356 102.91 73.3915 102.91 82.0953Z" fill="#FFFBFB" stroke="#2E2D30" stroke-width="1.86"/>
</mask>
<g mask="url(#mask2_1394_1047)">
<circle cx="76.2781" cy="84.8767" r="9.86208" fill="#2E2D30"/>
</g>
<mask id="path-15-inside-2_1394_1047" fill="white">
<path d="M103.84 81.5896C103.84 79.4643 103.409 77.3598 102.57 75.3962C101.731 73.4327 100.502 71.6486 98.952 70.1458C97.4022 68.643 95.5623 67.4509 93.5375 66.6376C91.5126 65.8242 89.3423 65.4056 87.1506 65.4056C84.9589 65.4056 82.7886 65.8242 80.7637 66.6376C78.7389 67.4509 76.899 68.643 75.3492 70.1458C73.7994 71.6486 72.5701 73.4327 71.7314 75.3962C70.8926 77.3598 70.4609 79.4643 70.4609 81.5896L87.1506 81.5896H103.84Z"/>
</mask>
<path d="M103.84 81.5896C103.84 79.4643 103.409 77.3598 102.57 75.3962C101.731 73.4327 100.502 71.6486 98.952 70.1458C97.4022 68.643 95.5623 67.4509 93.5375 66.6376C91.5126 65.8242 89.3423 65.4056 87.1506 65.4056C84.9589 65.4056 82.7886 65.8242 80.7637 66.6376C78.7389 67.4509 76.899 68.643 75.3492 70.1458C73.7994 71.6486 72.5701 73.4327 71.7314 75.3962C70.8926 77.3598 70.4609 79.4643 70.4609 81.5896L87.1506 81.5896H103.84Z" fill="#E7E2DE" stroke="#2E2D30" stroke-width="3.72" mask="url(#path-15-inside-2_1394_1047)"/>
<path d="M94.4523 106.888C94.8311 109.273 94.0559 111.312 92.3046 112.933C90.5203 114.585 87.6877 115.826 83.9714 116.416C80.256 117.006 76.8434 116.758 74.2997 115.763C71.7761 114.777 70.1817 113.1 69.8165 110.801C69.6277 109.612 69.8969 109.183 70.1679 108.965C70.5485 108.658 71.2779 108.467 72.5497 108.41C73.3633 108.373 74.2703 108.391 75.2919 108.412C75.8348 108.423 76.41 108.435 77.0207 108.439C78.7421 108.452 80.6614 108.403 82.6482 108.087C84.6372 107.771 86.4018 107.235 87.9253 106.705C88.5412 106.491 89.0995 106.285 89.6141 106.096C90.4117 105.802 91.1046 105.547 91.7452 105.359C92.8199 105.043 93.3704 105.046 93.673 105.19C93.897 105.297 94.2517 105.625 94.4523 106.888Z" fill="#FFFBFB" stroke="#2E2D30" stroke-width="1.86"/>
<line x1="85.5921" y1="107.078" x2="85.5921" y2="116.86" stroke="#2E2D30" stroke-width="1.86"/>
<line x1="85.5921" y1="107.078" x2="85.5921" y2="116.86" stroke="#2E2D30" stroke-width="1.86"/>
<line x1="85.5921" y1="107.078" x2="85.5921" y2="116.86" stroke="#2E2D30" stroke-width="1.86"/>
<line x1="77.9671" y1="107.888" x2="77.9671" y2="116.992" stroke="#2E2D30" stroke-width="1.86"/>
<line x1="77.9671" y1="107.888" x2="77.9671" y2="116.992" stroke="#2E2D30" stroke-width="1.86"/>
<line x1="77.9671" y1="107.888" x2="77.9671" y2="116.992" stroke="#2E2D30" stroke-width="1.86"/>
<path d="M95.748 101.819C96.3381 101.988 97.6193 102.932 98.0239 105.359" stroke="#2E2D30" stroke-width="1.86" stroke-linecap="round"/>
<circle cx="53.7992" cy="83.2967" r="1.51794" fill="#FFFBFB"/>
<circle cx="55.6512" cy="85.4892" r="0.674639" fill="#FFFBFB"/>
<circle cx="83.9871" cy="85.4892" r="0.674639" fill="#FFFBFB"/>
<circle cx="81.7972" cy="83.2967" r="1.51794" fill="#FFFBFB"/>
</g>
</svg>
