<svg width="175" height="176" viewBox="0 0 175 176" fill="none" xmlns="http://www.w3.org/2000/svg">
<mask id="mask0_1401_181" style="mask-type:alpha" maskUnits="userSpaceOnUse" x="0" y="0" width="175" height="176">
<rect width="175" height="175.717" fill="#D9D9D9"/>
</mask>
<g mask="url(#mask0_1401_181)">
<circle cx="87.1509" cy="87.1524" r="49.6448" fill="#F2F3F5" stroke="#4A4A4A" stroke-width="1.86"/>
<path d="M111.508 87.1524C111.508 101.005 108.699 113.501 104.2 122.498C99.673 131.552 93.5915 136.797 87.1507 136.797C80.7098 136.797 74.6283 131.552 70.1016 122.498C65.6027 113.501 62.7933 101.005 62.7933 87.1524C62.7933 73.2996 65.6027 60.8043 70.1016 51.8066C74.6283 42.7532 80.7098 37.5076 87.1507 37.5076C93.5915 37.5076 99.673 42.7532 104.2 51.8066C108.699 60.8043 111.508 73.2996 111.508 87.1524Z" fill="#F2F3F5" stroke="#4A4A4A" stroke-width="1.86"/>
<rect x="86.1406" y="36.5776" width="1.34928" height="101.15" fill="#4A4A4A"/>
<rect x="36.9135" y="86.4782" width="100.475" height="0.674639" fill="#DFC5FC" stroke="#4A4A4A" stroke-width="0.674639"/>
<rect x="45.0053" y="60.685" width="84.291" height="0.674639" fill="#DFC5FC" stroke="#4A4A4A" stroke-width="0.674639"/>
<rect x="44.5209" y="112.137" width="85.0045" height="0.674639" fill="#DFC5FC" stroke="#4A4A4A" stroke-width="0.674639"/>
<path d="M74.5861 82.0949C74.5861 90.7988 67.5302 97.8546 58.8264 97.8546C50.1226 97.8546 43.0667 90.7988 43.0667 82.0949C43.0667 73.3911 50.1226 66.3353 58.8264 66.3353C67.5302 66.3353 74.5861 73.3911 74.5861 82.0949Z" fill="#FFFBFB" stroke="#4A4A4A" stroke-width="1.86"/>
<mask id="mask1_1401_181" style="mask-type:alpha" maskUnits="userSpaceOnUse" x="42" y="65" width="34" height="34">
<path d="M74.5861 82.0949C74.5861 90.7988 67.5302 97.8546 58.8264 97.8546C50.1226 97.8546 43.0667 90.7988 43.0667 82.0949C43.0667 73.3911 50.1226 66.3353 58.8264 66.3353C67.5302 66.3353 74.5861 73.3911 74.5861 82.0949Z" fill="#FFFBFB" stroke="#2E2D30" stroke-width="1.86"/>
</mask>
<g mask="url(#mask1_1401_181)">
<circle cx="47.9539" cy="84.8765" r="9.86208" fill="#4A4A4A"/>
</g>
<mask id="path-11-inside-1_1401_181" fill="white">
<path d="M75.5161 81.5892C75.5161 79.4639 75.0844 77.3594 74.2456 75.3959C73.4069 73.4324 72.1775 71.6483 70.6278 70.1454C69.078 68.6426 67.2381 67.4505 65.2132 66.6372C63.1884 65.8239 61.0181 65.4053 58.8264 65.4053C56.6347 65.4053 54.4644 65.8239 52.4395 66.6372C50.4146 67.4505 48.5748 68.6426 47.025 70.1454C45.4752 71.6483 44.2459 73.4324 43.4071 75.3959C42.5684 77.3594 42.1367 79.4639 42.1367 81.5892L58.8264 81.5892H75.5161Z"/>
</mask>
<path d="M75.5161 81.5892C75.5161 79.4639 75.0844 77.3594 74.2456 75.3959C73.4069 73.4324 72.1775 71.6483 70.6278 70.1454C69.078 68.6426 67.2381 67.4505 65.2132 66.6372C63.1884 65.8239 61.0181 65.4053 58.8264 65.4053C56.6347 65.4053 54.4644 65.8239 52.4395 66.6372C50.4146 67.4505 48.5748 68.6426 47.025 70.1454C45.4752 71.6483 44.2459 73.4324 43.4071 75.3959C42.5684 77.3594 42.1367 79.4639 42.1367 81.5892L58.8264 81.5892H75.5161Z" fill="#F2F3F5" stroke="#4A4A4A" stroke-width="3.72" mask="url(#path-11-inside-1_1401_181)"/>
<path d="M102.91 82.0952C102.91 90.799 95.8544 97.8549 87.1506 97.8549C78.4468 97.8549 71.3909 90.799 71.3909 82.0952C71.3909 73.3914 78.4468 66.3355 87.1506 66.3355C95.8544 66.3355 102.91 73.3914 102.91 82.0952Z" fill="#FFFBFB" stroke="#4A4A4A" stroke-width="1.86"/>
<mask id="mask2_1401_181" style="mask-type:alpha" maskUnits="userSpaceOnUse" x="70" y="65" width="34" height="34">
<path d="M102.91 82.0952C102.91 90.799 95.8544 97.8549 87.1506 97.8549C78.4468 97.8549 71.3909 90.799 71.3909 82.0952C71.3909 73.3914 78.4468 66.3355 87.1506 66.3355C95.8544 66.3355 102.91 73.3914 102.91 82.0952Z" fill="#FFFBFB" stroke="#2E2D30" stroke-width="1.86"/>
</mask>
<g mask="url(#mask2_1401_181)">
<circle cx="76.2781" cy="84.8767" r="9.86208" fill="#4A4A4A"/>
</g>
<mask id="path-15-inside-2_1401_181" fill="white">
<path d="M103.84 81.5894C103.84 79.4641 103.409 77.3596 102.57 75.3961C101.731 73.4326 100.502 71.6485 98.952 70.1457C97.4022 68.6429 95.5623 67.4508 93.5375 66.6374C91.5126 65.8241 89.3423 65.4055 87.1506 65.4055C84.9589 65.4055 82.7886 65.8241 80.7637 66.6374C78.7389 67.4508 76.899 68.6429 75.3492 70.1457C73.7994 71.6485 72.5701 73.4326 71.7314 75.3961C70.8926 77.3596 70.4609 79.4641 70.4609 81.5894L87.1506 81.5894H103.84Z"/>
</mask>
<path d="M103.84 81.5894C103.84 79.4641 103.409 77.3596 102.57 75.3961C101.731 73.4326 100.502 71.6485 98.952 70.1457C97.4022 68.6429 95.5623 67.4508 93.5375 66.6374C91.5126 65.8241 89.3423 65.4055 87.1506 65.4055C84.9589 65.4055 82.7886 65.8241 80.7637 66.6374C78.7389 67.4508 76.899 68.6429 75.3492 70.1457C73.7994 71.6485 72.5701 73.4326 71.7314 75.3961C70.8926 77.3596 70.4609 79.4641 70.4609 81.5894L87.1506 81.5894H103.84Z" fill="#F2F3F5" stroke="#4A4A4A" stroke-width="3.72" mask="url(#path-15-inside-2_1401_181)"/>
<path d="M94.4523 106.888C94.8311 109.273 94.0559 111.312 92.3046 112.933C90.5203 114.585 87.6877 115.826 83.9714 116.416C80.256 117.007 76.8434 116.758 74.2997 115.763C71.7761 114.777 70.1817 113.1 69.8165 110.801C69.6277 109.612 69.8969 109.183 70.1679 108.965C70.5485 108.658 71.2779 108.467 72.5497 108.41C73.3633 108.373 74.2703 108.391 75.2919 108.412C75.8348 108.423 76.41 108.435 77.0207 108.439C78.7421 108.452 80.6614 108.403 82.6482 108.087C84.6372 107.771 86.4018 107.235 87.9253 106.705C88.5412 106.491 89.0995 106.286 89.6141 106.096C90.4117 105.802 91.1046 105.547 91.7452 105.359C92.8199 105.043 93.3704 105.046 93.673 105.19C93.897 105.297 94.2517 105.625 94.4523 106.888Z" fill="#FFFBFB" stroke="#4A4A4A" stroke-width="1.86"/>
<line x1="85.5921" y1="107.078" x2="85.5921" y2="116.86" stroke="#4A4A4A" stroke-width="1.86"/>
<line x1="85.5921" y1="107.078" x2="85.5921" y2="116.86" stroke="#4A4A4A" stroke-width="1.86"/>
<line x1="85.5921" y1="107.078" x2="85.5921" y2="116.86" stroke="#4A4A4A" stroke-width="1.86"/>
<line x1="77.9671" y1="107.888" x2="77.9671" y2="116.992" stroke="#4A4A4A" stroke-width="1.86"/>
<line x1="77.9671" y1="107.888" x2="77.9671" y2="116.992" stroke="#4A4A4A" stroke-width="1.86"/>
<line x1="77.9671" y1="107.888" x2="77.9671" y2="116.992" stroke="#4A4A4A" stroke-width="1.86"/>
<path d="M95.748 101.819C96.3381 101.988 97.6193 102.932 98.0239 105.359" stroke="#4A4A4A" stroke-width="1.86" stroke-linecap="round"/>
<circle cx="53.7992" cy="83.2967" r="1.51794" fill="#FFFBFB"/>
<circle cx="55.6512" cy="85.4891" r="0.674639" fill="#FFFBFB"/>
<circle cx="83.9871" cy="85.4891" r="0.674639" fill="#FFFBFB"/>
<circle cx="81.7972" cy="83.2967" r="1.51794" fill="#FFFBFB"/>
</g>
</svg>
