<svg width="175" height="176" viewBox="0 0 175 176" fill="none" xmlns="http://www.w3.org/2000/svg">
<mask id="mask0_1401_181" style="mask-type:alpha" maskUnits="userSpaceOnUse" x="0" y="0" width="175" height="176">
<rect width="175" height="175.717" fill="#D9D9D9"/>
</mask>
<g mask="url(#mask0_1401_181)">
<circle cx="87.5" cy="87.5002" r="87.5" fill="#DFC5FC"/>
<circle cx="87.5805" cy="87.5805" r="80.1954" stroke="#4A4A4A" stroke-width="1.86"/>
<path d="M38.052 118.547L40.0754 122.485L40.1855 122.7L40.3998 122.81L44.3379 124.833L40.3998 126.856L40.1855 126.967L40.0754 127.181L38.052 131.119L36.0286 127.181L35.9185 126.967L35.7042 126.856L31.7661 124.833L35.7042 122.81L35.9185 122.7L36.0286 122.485L38.052 118.547Z" fill="#FFFBFB" stroke="#4A4A4A" stroke-width="1.5"/>
<path d="M119.097 26.7439L121.12 30.682L121.23 30.8963L121.445 31.0064L125.383 33.0298L121.445 35.0532L121.23 35.1633L121.12 35.3776L119.097 39.3157L117.074 35.3776L116.963 35.1633L116.749 35.0532L112.811 33.0298L116.749 31.0064L116.963 30.8963L117.074 30.682L119.097 26.7439Z" fill="#FFFBFB" stroke="#4A4A4A" stroke-width="1.5"/>
</g>
<path d="M30.8218 98.6605L19.88 99.8657L18.6608 88.7967L21.3803 88.4971L22.1669 95.6379L24.0117 95.4347L23.3233 89.1845L26.0428 88.885L26.7313 95.1352L30.3891 94.7323L30.8218 98.6605Z" fill="#4A4A4A"/>
<path d="M29.5476 86.8897L18.6125 85.6247L19.7084 76.1519C19.8028 75.336 20.0507 74.6774 20.4523 74.1763C20.8552 73.6645 21.348 73.3027 21.9309 73.091C22.5137 72.8792 23.123 72.8101 23.7588 72.8837C24.4899 72.9683 25.1226 73.2079 25.6567 73.6026C26.1816 73.9854 26.5773 74.509 26.8441 75.1734L31.0994 73.4752L30.5864 77.9096L26.978 79.1673L26.5845 82.5686L30.0017 82.9639L29.5476 86.8897ZM23.8666 82.2542L24.3484 78.0899C24.3827 77.7932 24.3215 77.5338 24.1646 77.3117C23.9972 77.0883 23.7492 76.9576 23.4207 76.9196C23.1982 76.8938 23.0073 76.9201 22.8479 76.9983C22.6779 77.0752 22.5467 77.1889 22.4541 77.3393C22.3522 77.4778 22.2896 77.6477 22.2663 77.8491L21.7845 82.0133L23.8666 82.2542Z" fill="#4A4A4A"/>
<path d="M33.8447 66.8241C33.304 68.2275 32.6222 69.3594 31.7992 70.2198C30.9763 71.0801 30.0643 71.6375 29.0632 71.892C28.0522 72.1427 26.9942 72.0552 25.8894 71.6295C24.7845 71.2039 23.9413 70.559 23.3598 69.6948C22.7782 68.8307 22.4759 67.8055 22.4528 66.6192C22.4197 65.4291 22.6735 64.1323 23.2142 62.7289C23.7587 61.3154 24.4405 60.1835 25.2596 59.3332C26.0726 58.469 26.9846 57.9116 27.9957 57.6609C29.0067 57.4103 30.0646 57.4978 31.1695 57.9234C32.2743 58.349 33.1175 58.9939 33.6991 59.8581C34.2707 60.7184 34.573 61.7436 34.6061 62.9337C34.643 64.1139 34.3892 65.4107 33.8447 66.8241ZM31.2916 65.8405C31.4718 65.3727 31.575 64.9267 31.6013 64.5024C31.6176 64.0743 31.5631 63.6818 31.4377 63.3249C31.3023 62.9641 31.1022 62.6527 30.8374 62.3906C30.5725 62.1286 30.251 61.9247 29.8728 61.779L29.5144 61.641C29.1362 61.4952 28.766 61.4326 28.4037 61.4531C28.0315 61.4698 27.6792 61.5684 27.3467 61.7489C27.0143 61.9295 26.7154 62.1859 26.4503 62.5181C26.1752 62.8465 25.9475 63.2446 25.7673 63.7124C25.5871 64.1802 25.4888 64.6282 25.4725 65.0563C25.4462 65.4805 25.4958 65.8711 25.6212 66.228C25.7466 66.585 25.9417 66.8945 26.2066 67.1565C26.4614 67.4148 26.778 67.6167 27.1562 67.7624L27.5146 67.9005C27.8928 68.0462 28.268 68.1107 28.6402 68.0941C29.0124 68.0774 29.3697 67.9807 29.7121 67.804C30.0446 67.6235 30.3484 67.369 30.6235 67.0406C30.8886 66.7084 31.1113 66.3084 31.2916 65.8405Z" fill="#4A4A4A"/>
<path d="M36.7838 59.0909L27.8653 52.6383L29.8817 49.8513L36.7908 48.1355C36.8716 48.115 36.9895 48.0884 37.1447 48.0559C37.2999 48.0233 37.4626 47.9896 37.6327 47.9547C37.8027 47.9197 37.9579 47.8872 38.0982 47.857L38.192 47.7274C38.071 47.6399 37.9112 47.5242 37.7124 47.3804C37.505 47.2303 37.3062 47.0865 37.1161 46.949L33.7457 44.5105L35.9216 41.5031L44.8401 47.9556L42.8425 50.7168L36.3002 52.3622C36.022 52.4374 35.7171 52.513 35.3855 52.5891C35.0603 52.6566 34.7977 52.7102 34.5978 52.7499L34.5134 52.8666C34.6344 52.9541 34.8072 53.0792 35.0319 53.2417C35.2479 53.398 35.4683 53.5575 35.693 53.72L38.9597 56.0835L36.7838 59.0909Z" fill="#4A4A4A"/>
<path d="M48.9394 44.4215L43.8004 38.3112L40.2249 41.3184L38.2784 39.0041L48.454 30.446L50.4005 32.7603L46.8249 35.7675L51.9639 41.8777L48.9394 44.4215Z" fill="#4A4A4A"/>
<path d="M56.1853 38.5455L51.2294 28.7162L61.7302 23.4217L62.9619 25.8647L56.0043 29.3728L56.6454 30.6443L62.6458 27.6189L63.8128 29.9333L57.8123 32.9587L58.4966 34.316L65.5686 30.7503L66.8004 33.1934L56.1853 38.5455Z" fill="#4A4A4A"/>
<path d="M67.9138 32.6654L65.4951 21.9264L68.851 21.1705L75.1671 24.455C75.2412 24.493 75.3473 24.5511 75.4852 24.6294C75.6231 24.7077 75.7673 24.79 75.918 24.8763C76.0686 24.9627 76.2065 25.0409 76.3317 25.1111L76.4878 25.076C76.455 24.9303 76.4116 24.7378 76.3577 24.4985C76.3015 24.2487 76.2476 24.0094 76.196 23.7804L75.2819 19.7221L78.9032 18.9065L81.322 29.6455L77.9972 30.3943L72.0028 27.2998C71.7444 27.1721 71.4658 27.0271 71.1668 26.8649C70.8783 26.7002 70.6459 26.5667 70.4697 26.4642L70.3293 26.4959C70.3621 26.6415 70.409 26.8497 70.4699 27.1202C70.5285 27.3804 70.5882 27.6457 70.6492 27.9163L71.5351 31.8497L67.9138 32.6654Z" fill="#4A4A4A"/>
<path d="M83.0455 29.5327L83.3965 18.5303L89.7933 18.7344C91.1579 18.7779 92.3292 19.0287 93.3071 19.4868C94.285 19.9449 95.0273 20.5929 95.5342 21.4308C96.0411 22.2688 96.2758 23.2741 96.2384 24.4468C96.201 25.6196 95.9026 26.6079 95.3434 27.4118C94.7841 28.2157 94.0019 28.8151 92.9968 29.2099C91.9917 29.6047 90.8068 29.7803 89.4422 29.7368L83.0455 29.5327ZM87.0827 26.9241L89.2896 26.9945C89.7267 27.0085 90.1179 26.9569 90.4631 26.8399C90.8084 26.7228 91.1072 26.5563 91.3595 26.3402C91.6122 26.1135 91.8074 25.8476 91.9452 25.5425C92.0834 25.2267 92.1586 24.8769 92.1708 24.4931L92.1831 24.1093C92.1953 23.7255 92.1424 23.377 92.0243 23.0637C91.9063 22.7505 91.7282 22.478 91.4901 22.2463C91.2524 22.0039 90.9648 21.8186 90.6274 21.6905C90.2904 21.5517 89.9033 21.4753 89.4661 21.4613L87.2593 21.3909L87.0827 26.9241Z" fill="#4A4A4A"/>
<path d="M134.917 54.1905L144.591 48.9389L147.645 54.5636C148.296 55.7635 148.671 56.9012 148.769 57.9766C148.867 59.052 148.683 60.0199 148.215 60.8805C147.748 61.7411 146.999 62.4512 145.968 63.011C144.936 63.5708 143.933 63.8122 142.956 63.7353C141.98 63.6584 141.068 63.2858 140.22 62.6175C139.371 61.9493 138.622 61.0151 137.97 59.8152L134.917 54.1905ZM139.207 56.3585L140.26 58.299C140.469 58.6834 140.711 58.995 140.986 59.2339C141.262 59.4728 141.556 59.6467 141.87 59.7554C142.193 59.8591 142.521 59.8934 142.854 59.8583C143.197 59.8181 143.537 59.7064 143.874 59.5233L144.212 59.3401C144.549 59.1569 144.823 58.9352 145.034 58.6752C145.245 58.4151 145.39 58.1238 145.47 57.8013C145.559 57.4738 145.574 57.132 145.514 56.776C145.464 56.415 145.334 56.0423 145.126 55.6579L144.072 53.7174L139.207 56.3585Z" fill="#4A4A4A"/>
<path d="M141.334 66.383L151.961 63.5108L155.03 74.8634L152.388 75.5773L150.355 68.0552L148.981 68.4267L150.734 74.914L148.232 75.5903L146.478 69.103L145.011 69.4996L147.077 77.1453L144.436 77.8592L141.334 66.383Z" fill="#4A4A4A"/>
<path d="M144.84 83.7831L155.709 78.1463L155.819 82.5289L151.248 84.6612C151.09 84.7399 150.858 84.8418 150.551 84.967C150.256 85.0918 149.939 85.2225 149.601 85.3591C149.274 85.4955 148.973 85.6151 148.698 85.7181L148.701 85.8301C148.948 85.9092 149.233 86.0033 149.556 86.1125C149.879 86.2217 150.196 86.331 150.509 86.4405C150.821 86.5606 151.085 86.666 151.301 86.7566L155.975 88.6869L156.082 92.8936L144.942 87.8138L144.84 83.7831Z" fill="#4A4A4A"/>
<path d="M144.921 93.195L155.69 95.4773L153.252 106.982L150.575 106.415L152.191 98.7918L150.798 98.4966L149.405 105.071L146.869 104.533L148.262 97.9592L146.775 97.6441L145.133 105.392L142.457 104.825L144.921 93.195Z" fill="#4A4A4A"/>
<path d="M141.985 106.077L152.008 110.628L150.374 114.227L143.104 110.926L140.154 117.423L137.401 116.173L141.985 106.077Z" fill="#4A4A4A"/>
<path d="M132.858 122.106C133.779 120.917 134.758 120.028 135.793 119.441C136.828 118.853 137.862 118.581 138.894 118.625C139.934 118.675 140.923 119.063 141.859 119.788C142.795 120.513 143.417 121.373 143.726 122.368C144.035 123.362 144.03 124.431 143.711 125.574C143.401 126.724 142.786 127.893 141.865 129.082C140.937 130.279 139.959 131.168 138.93 131.747C137.903 132.341 136.869 132.613 135.829 132.563C134.788 132.513 133.8 132.125 132.864 131.4C131.928 130.675 131.306 129.815 130.997 128.82C130.696 127.832 130.701 126.763 131.012 125.613C131.315 124.472 131.931 123.303 132.858 122.106ZM135.021 123.781C134.714 124.178 134.487 124.575 134.34 124.974C134.202 125.379 134.141 125.771 134.159 126.149C134.185 126.533 134.287 126.889 134.465 127.216C134.644 127.543 134.893 127.831 135.214 128.079L135.517 128.314C135.838 128.562 136.174 128.729 136.527 128.813C136.889 128.904 137.254 128.911 137.625 128.834C137.995 128.756 138.355 128.596 138.704 128.354C139.062 128.119 139.394 127.803 139.701 127.406C140.008 127.01 140.231 126.609 140.37 126.204C140.517 125.805 140.582 125.417 140.564 125.039C140.546 124.661 140.448 124.308 140.27 123.981C140.1 123.661 139.855 123.376 139.534 123.128L139.231 122.893C138.91 122.645 138.57 122.475 138.208 122.384C137.847 122.293 137.477 122.283 137.098 122.354C136.728 122.432 136.364 122.588 136.006 122.824C135.657 123.066 135.328 123.385 135.021 123.781Z" fill="#4A4A4A"/>
<path d="M127.771 128.572L134.636 137.177L127.719 142.695C127.152 143.147 126.549 143.417 125.909 143.504C125.276 143.6 124.655 143.515 124.048 143.249C123.447 142.992 122.91 142.567 122.438 141.975C121.952 141.366 121.652 140.733 121.536 140.075C121.412 139.423 121.467 138.8 121.701 138.204C121.935 137.607 122.331 137.087 122.89 136.641L126.717 133.588L124.682 131.036L127.771 128.572ZM128.424 135.727L125.459 138.091C125.142 138.344 124.969 138.605 124.938 138.875C124.9 139.152 124.997 139.436 125.23 139.728C125.389 139.928 125.556 140.06 125.731 140.126C125.904 140.206 126.088 140.223 126.283 140.176C126.47 140.137 126.668 140.034 126.876 139.867L129.84 137.503L128.424 135.727Z" fill="#4A4A4A"/>
<path d="M118.175 136.505L122.601 146.585L116.916 149.08L114.05 145.935C113.882 145.764 113.699 145.559 113.501 145.32C113.307 145.091 113.116 144.854 112.927 144.611C112.733 144.381 112.569 144.18 112.434 144.006L112.332 144.051C112.365 144.258 112.402 144.503 112.446 144.787C112.479 145.076 112.517 145.374 112.558 145.681C112.595 146.003 112.623 146.294 112.644 146.553L113.019 150.791L107.511 153.21L103.086 143.13L106.704 141.542L108.634 145.937C108.741 146.181 108.859 146.449 108.988 146.742C109.107 147.04 109.223 147.332 109.338 147.62C109.453 147.907 109.555 148.153 109.645 148.359L109.762 148.307C109.732 148.052 109.699 147.752 109.664 147.407C109.623 147.075 109.587 146.741 109.556 146.405C109.52 146.084 109.496 145.803 109.484 145.564L109.136 140.474L112.345 139.065L115.857 142.766C116.101 143.031 116.344 143.291 116.584 143.547C116.819 143.817 117.031 144.061 117.221 144.281C117.415 144.51 117.57 144.693 117.688 144.827L117.805 144.776C117.727 144.624 117.63 144.416 117.514 144.152C117.393 143.903 117.263 143.622 117.126 143.309C116.983 143.011 116.843 142.705 116.706 142.393L114.777 137.998L118.175 136.505Z" fill="#4A4A4A"/>
<path d="M101.871 143.183L103.496 154.071L91.8651 155.807L91.4611 153.101L99.1676 151.951L98.9573 150.542L92.311 151.535L91.9282 148.971L98.5746 147.979L98.3501 146.475L90.5169 147.645L90.1129 144.939L101.871 143.183Z" fill="#4A4A4A"/>
<path d="M89.1039 145.153L88.0453 156.11L84.6213 155.779L79.6481 150.685C79.5895 150.626 79.507 150.538 79.4004 150.42C79.2939 150.303 79.1826 150.18 79.0664 150.051C78.9503 149.922 78.8438 149.804 78.7469 149.698L78.5876 149.683C78.5732 149.831 78.5543 150.028 78.5307 150.272C78.506 150.527 78.4825 150.771 78.4599 151.005L78.0598 155.145L74.365 154.788L75.4236 143.831L78.8159 144.159L83.5429 148.972C83.7484 149.174 83.9678 149.399 84.2011 149.647C84.4238 149.893 84.6027 150.093 84.738 150.245L84.8814 150.259C84.8957 150.11 84.9163 149.898 84.9429 149.622C84.9686 149.356 84.9947 149.086 85.0214 148.81L85.4091 144.796L89.1039 145.153Z" fill="#4A4A4A"/>
<path d="M70.0383 142.073L67.3329 149.585L71.7285 151.168L70.7038 154.013L58.1944 149.508L59.2191 146.662L63.6147 148.246L66.3201 140.734L70.0383 142.073Z" fill="#4A4A4A"/>
</svg>
