<svg width="186" height="186" viewBox="0 0 186 186" fill="none" xmlns="http://www.w3.org/2000/svg">
<circle cx="92.9272" cy="92.9258" r="89.2534" fill="#D9D9D9" stroke="#FFFBFB" stroke-width="6"/>
<circle cx="92.9253" cy="92.9262" r="84.2534" fill="#E7E2DE" stroke="#515151" stroke-width="4"/>
<path d="M134.052 92.9262C134.052 116.501 129.27 137.746 121.632 153.022C113.934 168.418 103.669 177.18 92.9255 177.18C82.1821 177.18 71.9173 168.418 64.2192 153.022C56.5809 137.746 51.7988 116.501 51.7988 92.9262C51.7988 69.3512 56.5809 48.1069 64.2192 32.8303C71.9173 17.4341 82.1821 8.67285 92.9255 8.67285C103.669 8.67285 113.934 17.4341 121.632 32.8303C129.27 48.1069 134.052 69.3512 134.052 92.9262Z" fill="#E7E2DE" stroke="#515151" stroke-width="4"/>
<rect x="91.2012" y="6.67285" width="4.79186" height="172.507" fill="#515151"/>
<rect x="6.67188" y="91.2017" width="172.507" height="4.79186" fill="#515151"/>
<rect x="20.4727" y="47.2119" width="144.906" height="4.79186" fill="#515151"/>
<rect x="19.6465" y="134.962" width="146.123" height="4.79186" fill="#515151"/>
<path d="M71.0835 84.301C71.0835 98.9165 59.2353 110.765 44.6199 110.765C30.0044 110.765 18.1563 98.9165 18.1563 84.301C18.1563 69.6856 30.0044 57.8374 44.6199 57.8374C59.2353 57.8374 71.0835 69.6856 71.0835 84.301Z" fill="#FFFBFB" stroke="#515151" stroke-width="4"/>
<mask id="mask0_1545_133" style="mask-type:alpha" maskUnits="userSpaceOnUse" x="16" y="55" width="58" height="58">
<path d="M71.0835 84.3015C71.0835 98.917 59.2353 110.765 44.6199 110.765C30.0044 110.765 18.1563 98.917 18.1563 84.3015C18.1563 69.6861 30.0044 57.8379 44.6199 57.8379C59.2353 57.8379 71.0835 69.6861 71.0835 84.3015Z" fill="#FFFBFB" stroke="#2E2D30" stroke-width="4"/>
</mask>
<g mask="url(#mask0_1545_133)">
<circle cx="26.0811" cy="89.046" r="16.8194" fill="#515151"/>
</g>
<mask id="path-11-inside-1_1545_133" fill="white">
<path d="M73.0835 83.4385C73.0835 79.8139 72.3473 76.2247 70.9168 72.876C69.4864 69.5273 67.3898 66.4846 64.7467 63.9216C62.1036 61.3586 58.9658 59.3255 55.5124 57.9384C52.0591 56.5513 48.3578 55.8374 44.6199 55.8374C40.882 55.8374 37.1807 56.5513 33.7273 57.9384C30.2739 59.3255 27.1361 61.3586 24.493 63.9216C21.85 66.4846 19.7533 69.5273 18.3229 72.876C16.8925 76.2247 16.1562 79.8139 16.1563 83.4385L44.6199 83.4385L73.0835 83.4385Z"/>
</mask>
<path d="M73.0835 83.4385C73.0835 79.8139 72.3473 76.2247 70.9168 72.876C69.4864 69.5273 67.3898 66.4846 64.7467 63.9216C62.1036 61.3586 58.9658 59.3255 55.5124 57.9384C52.0591 56.5513 48.3578 55.8374 44.6199 55.8374C40.882 55.8374 37.1807 56.5513 33.7273 57.9384C30.2739 59.3255 27.1361 61.3586 24.493 63.9216C21.85 66.4846 19.7533 69.5273 18.3229 72.876C16.8925 76.2247 16.1562 79.8139 16.1563 83.4385L44.6199 83.4385L73.0835 83.4385Z" fill="#E7E2DE" stroke="#515151" stroke-width="8" mask="url(#path-11-inside-1_1545_133)"/>
<path d="M119.39 84.3015C119.39 98.917 107.542 110.765 92.9265 110.765C78.3111 110.765 66.4629 98.917 66.4629 84.3015C66.4629 69.6861 78.3111 57.8379 92.9265 57.8379C107.542 57.8379 119.39 69.6861 119.39 84.3015Z" fill="#FFFBFB" stroke="#515151" stroke-width="4"/>
<mask id="mask1_1545_133" style="mask-type:alpha" maskUnits="userSpaceOnUse" x="64" y="55" width="58" height="58">
<path d="M119.39 84.3005C119.39 98.916 107.542 110.764 92.9265 110.764C78.3111 110.764 66.4629 98.916 66.4629 84.3005C66.4629 69.6851 78.3111 57.8369 92.9265 57.8369C107.542 57.8369 119.39 69.6851 119.39 84.3005Z" fill="#FFFBFB" stroke="#2E2D30" stroke-width="4"/>
</mask>
<g mask="url(#mask1_1545_133)">
<circle cx="74.3839" cy="89.044" r="16.8194" fill="#515151"/>
</g>
<mask id="path-15-inside-2_1545_133" fill="white">
<path d="M121.39 83.439C121.39 79.8144 120.654 76.2252 119.223 72.8765C117.793 69.5278 115.696 66.4851 113.053 63.9221C110.41 61.3591 107.272 59.326 103.819 57.9389C100.366 56.5518 96.6644 55.8379 92.9265 55.8379C89.1886 55.8379 85.4873 56.5518 82.034 57.9389C78.5806 59.326 75.4428 61.3591 72.7997 63.9221C70.1566 66.4851 68.06 69.5278 66.6296 72.8765C65.1991 76.2252 64.4629 79.8144 64.4629 83.439L92.9265 83.439L121.39 83.439Z"/>
</mask>
<path d="M121.39 83.439C121.39 79.8144 120.654 76.2252 119.223 72.8765C117.793 69.5278 115.696 66.4851 113.053 63.9221C110.41 61.3591 107.272 59.326 103.819 57.9389C100.366 56.5518 96.6644 55.8379 92.9265 55.8379C89.1886 55.8379 85.4873 56.5518 82.034 57.9389C78.5806 59.326 75.4428 61.3591 72.7997 63.9221C70.1566 66.4851 68.06 69.5278 66.6296 72.8765C65.1991 76.2252 64.4629 79.8144 64.4629 83.439L92.9265 83.439L121.39 83.439Z" fill="#E7E2DE" stroke="#515151" stroke-width="8" mask="url(#path-15-inside-2_1545_133)"/>
<path d="M104.966 126.65C105.589 130.572 104.323 133.914 101.431 136.591C98.4682 139.334 93.7246 141.427 87.4353 142.426C81.1482 143.425 75.4067 142.998 71.1563 141.336C66.949 139.692 64.3622 136.931 63.7685 133.193C63.4583 131.24 63.9195 130.69 64.2185 130.449C64.7536 130.018 65.8725 129.691 68.0397 129.594C69.4143 129.532 70.9385 129.563 72.6703 129.598C73.5986 129.617 74.5866 129.637 75.6432 129.645C78.5879 129.666 81.8872 129.582 85.3087 129.039C88.7346 128.494 91.7697 127.571 94.3795 126.664C95.4496 126.292 96.4086 125.939 97.2874 125.615C98.6345 125.119 99.7932 124.692 100.875 124.374C102.707 123.836 103.506 123.891 103.868 124.063C104.061 124.155 104.631 124.537 104.966 126.65Z" fill="#FFFBFB" stroke="#515151" stroke-width="4"/>
<line x1="90.6797" y1="126.909" x2="90.6797" y2="143.592" stroke="#515151" stroke-width="4"/>
<line x1="90.6797" y1="126.909" x2="90.6797" y2="143.592" stroke="#515151" stroke-width="4"/>
<line x1="90.6797" y1="126.909" x2="90.6797" y2="143.592" stroke="#515151" stroke-width="4"/>
<line x1="77.6758" y1="128.292" x2="77.6758" y2="143.817" stroke="#515151" stroke-width="4"/>
<line x1="77.6758" y1="128.292" x2="77.6758" y2="143.817" stroke="#515151" stroke-width="4"/>
<line x1="77.6758" y1="128.292" x2="77.6758" y2="143.817" stroke="#515151" stroke-width="4"/>
<path d="M107.588 117.94C108.594 118.227 110.779 119.838 111.469 123.978" stroke="#515151" stroke-width="4" stroke-linecap="round"/>
<circle cx="36.0497" cy="86.3505" r="2.58879" fill="#FFFBFB"/>
<circle cx="39.2072" cy="90.0895" r="1.15057" fill="#FFFBFB"/>
<circle cx="87.5334" cy="90.0895" r="1.15057" fill="#FFFBFB"/>
<circle cx="83.7978" cy="86.3515" r="2.58879" fill="#FFFBFB"/>
</svg>
