<svg width="128" height="128" viewBox="0 0 128 128" fill="none" xmlns="http://www.w3.org/2000/svg">
<mask id="mask0_1034_105" style="mask-type:alpha" maskUnits="userSpaceOnUse" x="0" y="0" width="128" height="128">
<rect width="128" height="128" fill="#D9D9D9"/>
</mask>
<g mask="url(#mask0_1034_105)">
<circle cx="63.8951" cy="63.8942" r="62.5074" transform="rotate(-26.9745 63.8951 63.8942)" fill="#FEECC1"/>
<circle cx="63.8951" cy="63.8942" r="62.5074" transform="rotate(-26.9745 63.8951 63.8942)" stroke="#2E2D30" stroke-width="2"/>
<circle cx="63.8951" cy="63.8942" r="62.5074" transform="rotate(-26.9745 63.8951 63.8942)" stroke="#2E2D30" stroke-width="2"/>
<path d="M31.8022 57.0432C31.134 55.7304 29.3221 55.1348 27.6611 55.9802C26.0002 56.8255 25.4154 58.641 26.0836 59.9538C26.7518 61.2666 28.5637 61.8622 30.2246 61.0168C31.8856 60.1714 32.4703 58.356 31.8022 57.0432Z" fill="#2E2D30" stroke="#2E2D30" stroke-width="2"/>
<circle cx="3.82575" cy="3.82575" r="3.82575" transform="matrix(0.891208 -0.453594 -0.453594 -0.891208 73.9883 39.8706)" fill="#2E2D30"/>
<path d="M28.8066 86.0439V86.0439C57.8877 93.2482 88.0069 78.8992 100.735 51.777L102.179 48.7001" stroke="#2E2D30" stroke-width="2"/>
</g>
</svg>
