<svg width="103" height="110" viewBox="0 0 103 110" fill="none" xmlns="http://www.w3.org/2000/svg">
<path d="M53.5995 96.9181C41.3973 95.6979 26.8003 85.4129 21.0131 71.3628C19.3756 67.3872 15.7669 60.1178 18.0613 55.5994C20.5835 50.6325 26.3269 52.6716 29.5765 55.2415C33.6321 58.449 36.4214 63.2185 39.919 67.1787C40.5527 67.8962 40.9418 68.5018 41.4434 69.3488C41.8527 70.04 42.2952 63.3543 42.3541 62.7331C44.0878 44.4525 52.7445 29.1522 64.7277 19.172C69.1477 15.4908 75.4657 11.448 80.8515 12.7767C87.1132 14.3216 89.0781 21.3946 89.7353 28.7728C90.4626 36.9361 88.2783 45.4712 85.9694 52.9558C82.9565 62.723 79.7277 72.9503 74.5731 81.2365C71.1825 86.6871 66.8421 92.3206 61.4087 94.1285C55.9199 95.9547 51.4104 90.3487 50.8161 83.678C49.8687 73.0427 56.5601 61.8928 61.4403 54.0843C66.311 46.291 70.7683 38.857 77.2131 33.1326" stroke="#CCBBE0" stroke-width="25" stroke-linecap="round"/>
<path d="M70.8467 100.652C64.32 103.713 53.8099 100.609 47.5869 99.1396C29.5516 94.8811 10.4521 86.3091 4.50745 66.744C2.84707 61.2794 2.53568 53.4466 3.68591 47.8596C5.00752 41.4403 9.72977 28.7615 18.2939 29.1317C29.4516 29.6141 36.2436 45.9959 38.9607 54.6413C39.5248 56.4359 43.0332 70.4018 35.8029 69.3523C32.6347 68.8925 31.6088 65.3507 31.1048 62.7793C29.2874 53.5081 32.457 43.4126 37.0096 35.4439C44.7757 21.8502 62.5322 4.28872 79.7296 7.35204C98.4828 10.6925 101.229 33.1287 97.6494 48.3813C92.8749 68.7226 82.7659 86.6738 70.3846 103" stroke="#2E2D30" stroke-width="5" stroke-linecap="round"/>
</svg>
