<svg width="29" height="29" viewBox="0 0 29 29" fill="none" xmlns="http://www.w3.org/2000/svg">
<path d="M26.8047 15.5C27.357 15.5 27.8047 15.0523 27.8047 14.5C27.8047 13.9477 27.357 13.5 26.8047 13.5L26.8047 15.5ZM26.625 14.5C26.625 21.1965 21.1965 26.625 14.5 26.625V28.625C22.301 28.625 28.625 22.301 28.625 14.5H26.625ZM14.5 26.625C7.80355 26.625 2.375 21.1965 2.375 14.5H0.375C0.375 22.301 6.69898 28.625 14.5 28.625V26.625ZM2.375 14.5C2.375 7.80355 7.80355 2.375 14.5 2.375V0.375C6.69898 0.375 0.375 6.69898 0.375 14.5H2.375ZM14.5 2.375C21.1965 2.375 26.625 7.80355 26.625 14.5H28.625C28.625 6.69898 22.301 0.375 14.5 0.375V2.375ZM14.5 26.625C14.038 26.625 13.5191 26.4152 12.9599 25.8746C12.396 25.3294 11.8424 24.4921 11.3558 23.38C10.384 21.1586 9.75781 18.0198 9.75781 14.5H7.75781C7.75781 18.2289 8.4171 21.6527 9.5235 24.1816C10.0761 25.4446 10.7598 26.5294 11.5698 27.3125C12.3846 28.1003 13.3763 28.625 14.5 28.625V26.625ZM9.75781 14.5C9.75781 10.9802 10.384 7.84143 11.3558 5.62004C11.8424 4.50786 12.396 3.67061 12.9599 3.12538C13.5191 2.58479 14.038 2.375 14.5 2.375V0.375C13.3763 0.375 12.3846 0.899742 11.5698 1.68748C10.7598 2.47056 10.0761 3.55543 9.5235 4.8184C8.4171 7.34733 7.75781 10.7711 7.75781 14.5H9.75781ZM14.5 28.625C15.6237 28.625 16.6154 28.1003 17.4302 27.3125C18.2402 26.5294 18.9239 25.4446 19.4765 24.1816C20.5829 21.6527 21.2422 18.2289 21.2422 14.5H19.2422C19.2422 18.0198 18.616 21.1586 17.6442 23.38C17.1576 24.4921 16.604 25.3294 16.0401 25.8746C15.4809 26.4152 14.962 26.625 14.5 26.625V28.625ZM21.2422 14.5C21.2422 10.7711 20.5829 7.34733 19.4765 4.8184C18.9239 3.55543 18.2402 2.47056 17.4302 1.68748C16.6154 0.899742 15.6237 0.375 14.5 0.375V2.375C14.962 2.375 15.4809 2.58479 16.0401 3.12538C16.604 3.67061 17.1576 4.50786 17.6442 5.62004C18.616 7.84143 19.2422 10.9802 19.2422 14.5H21.2422ZM1.375 15.5L26.8047 15.5L26.8047 13.5L1.375 13.5L1.375 15.5Z" fill="#4A4A4A"/>
</svg>
