<svg width="33" height="28" viewBox="0 0 33 28" fill="none" xmlns="http://www.w3.org/2000/svg">
<path fill-rule="evenodd" clip-rule="evenodd" d="M16.5 0L28.4887 0.330007C30.6071 0.388318 32.3592 1.95393 32.6001 4.00374C33.1333 8.54115 33.1333 13.123 32.6001 17.6604C32.3592 19.7102 30.6071 21.2758 28.4887 21.3341L19.3844 21.5847V24.873H24.7412C25.424 24.873 25.9774 25.4118 25.9774 26.0765C25.9774 26.7412 25.424 27.28 24.7412 27.28H8.25881C7.57609 27.28 7.02263 26.7412 7.02263 26.0765C7.02263 25.4118 7.57609 24.873 8.25881 24.873H13.6156V21.5847L4.5113 21.3341C2.39295 21.2758 0.640836 19.7102 0.399936 17.6604C-0.133312 13.123 -0.133312 8.54115 0.399937 4.00374C0.640836 1.95393 2.39295 0.388318 4.5113 0.330007L16.5 0ZM16.5 2.40798L4.58118 2.73606C3.69243 2.76053 2.95734 3.41737 2.85627 4.27736C2.34439 8.63295 2.34439 13.0312 2.85627 17.3867C2.95734 18.2467 3.69243 18.9036 4.58117 18.928L16.5 19.2561L28.4188 18.928C29.3076 18.9036 30.0427 18.2467 30.1437 17.3867C30.6556 13.0312 30.6556 8.63295 30.1437 4.27736C30.0427 3.41737 29.3076 2.76053 28.4188 2.73606L16.5 2.40798Z" fill="#FFFBFB"/>
</svg>
