<svg width="33" height="42" viewBox="0 0 33 42" fill="none" xmlns="http://www.w3.org/2000/svg">
<path d="M24.4839 22.8871C24.4839 22.0052 23.769 21.2903 22.8871 21.2903H10.1129C9.23103 21.2903 8.51613 22.0052 8.51613 22.8871C8.51613 23.769 9.23103 24.4839 10.1129 24.4839H22.8871C23.769 24.4839 24.4839 23.769 24.4839 22.8871Z" fill="#4A4A4A"/>
<path d="M24.4839 31.4032C24.4839 30.5214 23.769 29.8064 22.8871 29.8064H10.1129C9.23103 29.8064 8.51613 30.5214 8.51613 31.4032C8.51613 32.2851 9.23103 33 10.1129 33H22.8871C23.769 33 24.4839 32.2851 24.4839 31.4032Z" fill="#4A4A4A"/>
<path fill-rule="evenodd" clip-rule="evenodd" d="M5.85484 0C2.6213 0 0 2.6213 0 5.85484V35.6613C0 38.8948 2.6213 41.5161 5.85484 41.5161H27.1452C30.3787 41.5161 33 38.8948 33 35.6613V12.1731C33 11.3624 32.7356 10.5738 32.2469 9.92704L25.8645 1.47977C25.1604 0.547795 24.0599 0 22.8918 0H5.85484ZM3.19355 5.85484C3.19355 4.38505 4.38505 3.19355 5.85484 3.19355H21.2903V12.555C21.2903 13.4369 22.0052 14.1518 22.8871 14.1518H29.8065V35.6613C29.8065 37.1311 28.615 38.3226 27.1452 38.3226H5.85484C4.38505 38.3226 3.19355 37.1311 3.19355 35.6613V5.85484Z" fill="#4A4A4A"/>
</svg>
