<svg width="35" height="35" viewBox="0 0 35 35" fill="none" xmlns="http://www.w3.org/2000/svg">
<rect x="0.5" y="0.5" width="34" height="34" stroke="#4A4A4A"/>
<path d="M17.5004 8.75V8.79846M8.79846 17.5004H8.75M23.6876 11.3131L23.6534 11.3474M11.3475 23.6532L11.3133 23.6875M11.3475 11.3468L11.3133 11.3125M17.5 31.5C9.76801 31.5 3.5 25.232 3.5 17.5C3.5 9.76801 9.76801 3.5 17.5 3.5C25.232 3.5 31.5 9.76801 31.5 17.5C31.5 19.8538 29.3251 21.42 26.9712 21.42H26.0574C25.5856 21.42 25.1203 21.5298 24.6983 21.7408C23.197 22.4915 22.5885 24.317 23.3391 25.8183C23.5501 26.2403 23.66 26.7056 23.66 27.1774V27.4533C23.66 29.0583 22.7593 30.5782 21.2114 31.0027C20.0294 31.3269 18.7849 31.5 17.5 31.5Z" stroke="#FFFBFB" stroke-width="2" stroke-linecap="round" stroke-linejoin="round"/>
</svg>
