<svg width="33" height="28" viewBox="0 0 33 28" fill="none" xmlns="http://www.w3.org/2000/svg">
<path fill-rule="evenodd" clip-rule="evenodd" d="M15.9038 0.077957C16.2775 -0.0258715 16.6717 -0.0259667 17.0454 0.0775584C17.8397 0.297619 18.6414 0.501731 19.4458 0.706522C23.2228 1.66818 27.0589 2.64485 30.4717 5.35841L32.0433 6.60802C32.6808 7.11489 32.9997 7.86517 33 8.61558V19.1041C33 19.7247 32.4846 20.2279 31.8488 20.2279C31.2131 20.2279 30.6977 19.7247 30.6977 19.1041V11.6972L30.4476 11.8964C29.265 12.8385 28.0312 13.57 26.7666 14.1638C26.827 14.3003 26.8605 14.4509 26.8605 14.609V21.0429C26.8605 22.7409 25.7934 24.2651 24.1727 24.8819L18.0332 27.2186C17.0472 27.5938 15.9528 27.5938 14.9668 27.2186L8.82727 24.8819C7.20662 24.2651 6.13953 22.741 6.13953 21.0429L6.13953 14.609C6.13953 14.4469 6.17472 14.2927 6.23805 14.1535C4.96355 13.5562 3.72014 12.8204 2.52833 11.8728L0.956696 10.6231C-0.318268 9.6094 -0.318938 7.62205 0.954921 6.60729L2.5524 5.33472C5.94056 2.63567 9.74947 1.66484 13.4986 0.709249C14.3047 0.503791 15.108 0.299032 15.9038 0.077957ZM30.6977 8.61647C30.6976 8.48148 30.6418 8.39235 30.5893 8.35067L29.0177 7.10106C25.7093 4.86968 22.7613 3.88554 19.0171 2.92504C18.1937 2.71384 17.3471 2.49666 16.4754 2.25591C15.5998 2.4984 14.7501 2.71662 13.924 2.92877C10.2097 3.88268 6.97333 4.71386 4.00801 7.07606L2.41054 8.34862C2.35806 8.39043 2.30227 8.4797 2.30233 8.61468C2.30238 8.74967 2.35824 8.8388 2.41066 8.88048L3.98229 10.1301C6.97274 12.5078 10.2387 13.3456 13.983 14.3061C14.8063 14.5173 15.6528 14.7345 16.5246 14.9752C17.4002 14.7328 18.2498 14.5146 19.0758 14.3024C22.7901 13.3485 26.0267 12.5173 28.992 10.1551L30.5895 8.88253C30.6419 8.84077 30.6976 8.75123 30.6977 8.61647ZM19.5014 16.5219C21.1895 16.0916 22.8897 15.6583 24.5581 15.0655V21.0429C24.5581 21.8147 24.0731 22.5075 23.3364 22.7879L17.1969 25.1245C16.7487 25.2951 16.2513 25.2951 15.8031 25.1245L9.66356 22.7879C8.9269 22.5075 8.44186 21.8147 8.44186 21.0429V15.0528C10.1283 15.6524 11.8473 16.09 13.5542 16.5246C14.3586 16.7294 15.1602 16.9335 15.9546 17.1536C16.3283 17.2571 16.7225 17.257 17.0962 17.1532C17.892 16.9321 18.6954 16.7274 19.5014 16.5219Z" fill="#4A4A4A"/>
</svg>
