<svg width="62" height="63" viewBox="0 0 62 63" fill="none" xmlns="http://www.w3.org/2000/svg">
<path fill-rule="evenodd" clip-rule="evenodd" d="M21 0H25H37H41V4V16V20H37H33L33 28L56 28V31V32V47H58H62V51V59V63H58H50H46V59V51V47H50H52V32H33L33 47H35H39V51V59V63H35H27H23V59V51V47H27H29L29 32H10L10 47H12H16V51V59V63H12H4H0V59V51V47H4H6L6 32V31L6 28L29 28L29 20H25H21V16V4V0ZM29 4H25V8V12V16H29H33H37V12V8V4H33H29ZM4 51V55V59H8H12V55V51H8H4ZM50 55V51H54H58V55V59H54H50V55ZM27 51V55V59H31H35V55V51H31H27Z" fill="#CCBBE0"/>
</svg>
