<svg width="50" height="50" viewBox="0 0 50 50" fill="none" xmlns="http://www.w3.org/2000/svg">
<path d="M25 13C22.7909 13 21 11.2091 21 9C21 6.79086 22.7909 5 25 5C27.2091 5 29 6.79086 29 9C29 11.2091 27.2091 13 25 13ZM25 13L25 37M25 37C22.7909 37 21 38.7909 21 41C21 43.2091 22.7909 45 25 45C27.2091 45 29 43.2091 29 41C29 38.7909 27.2091 37 25 37ZM41 37C38.7909 37 37 38.7909 37 41C37 43.2091 38.7909 45 41 45C43.2091 45 45 43.2091 45 41C45 38.7909 43.2091 37 41 37ZM41 37L41 25.5C41 24.3954 40.1046 23.5 39 23.5L11 23.5C9.89544 23.5 9.00001 24.3954 9.00001 25.5V37M9.00001 37C6.79087 37 5.00001 38.7909 5.00001 41C5.00001 43.2091 6.79087 45 9.00001 45C11.2091 45 13 43.2091 13 41C13 38.7909 11.2091 37 9.00001 37Z" stroke="#DECFF0" stroke-width="4" stroke-linecap="round"/>
</svg>
