<svg width="96" height="59" viewBox="0 0 96 59" fill="none" xmlns="http://www.w3.org/2000/svg">
<path fill-rule="evenodd" clip-rule="evenodd" d="M80 0H84H92H96V4V12V16H92H84H83.3284L63 36.3284V39V47V51H59H51H47V47V39V35.6928L38.8914 28H33.3284L16 45.3284V47V55V59H12H4H0V55V47V43H4H12H12.6716L28 27.6716V24V16V12H32H40H44V16V24V27.3329L52.0816 35H58.6716L80 13.6716V12V4V0ZM84 11.5V12H84.5H88H92V8V4H88H84V8V11.5ZM40 23.538V20V16H36H32V20V23.6716V24H36H40V23.538ZM51 39.4876V43V47H55H59V43V40.3284V39H55H51V39.4876ZM8 47H4V51V55H8H12V51V47H8Z" fill="#CCBBE0"/>
</svg>
