<svg width="33" height="33" viewBox="0 0 33 33" fill="none" xmlns="http://www.w3.org/2000/svg">
<path d="M26.5726 18.984C26.7572 18.4635 26.485 17.8918 25.9645 17.7072C25.444 17.5225 24.8724 17.7947 24.6877 18.3152L26.5726 18.984ZM22.8341 26.5292L23.7766 26.8636V26.8636L22.8341 26.5292ZM20.9484 28.1619L21.1445 29.1425L20.9484 28.1619ZM4.48794 31.454L3.50381 31.2765C3.44507 31.6023 3.55132 31.936 3.78758 32.1678C4.02383 32.3996 4.35949 32.4995 4.68406 32.4346L4.48794 31.454ZM7.4918 14.7962L8.47592 14.9737L7.4918 14.7962ZM9.22475 12.8329L9.52303 13.7874H9.52303L9.22475 12.8329ZM17.5906 11.2663C18.1178 11.1016 18.4116 10.5407 18.2468 10.0135C18.0821 9.4864 17.5212 9.1926 16.9941 9.35734L17.5906 11.2663ZM4.07861 30.4491C3.68809 30.8396 3.68809 31.4728 4.07861 31.8633C4.46913 32.2539 5.1023 32.2539 5.49282 31.8633L4.07861 30.4491ZM12.6395 24.7167C13.03 24.3262 13.03 23.693 12.6395 23.3025C12.249 22.9119 11.6158 22.9119 11.2253 23.3025L12.6395 24.7167ZM30.3946 12.694L31.1017 11.9869L30.3946 12.694ZM30.3946 15.0763L31.1017 15.7834L30.3946 15.0763ZM20.8657 5.54738L20.1586 4.84027L20.8657 5.54738ZM23.2479 5.54738L22.5408 6.25448L23.2479 5.54738ZM17.8879 10.9074L17.1808 11.6145L17.8879 10.9074ZM17.8879 8.52515L18.595 9.23226L17.8879 8.52515ZM25.0346 18.054L25.7417 17.3469L25.0346 18.054ZM27.4168 18.054L26.7097 17.3469L27.4168 18.054ZM4.28614 9.07546C4.28614 9.62774 4.73386 10.0755 5.28614 10.0755C5.83843 10.0755 6.28614 9.62774 6.28614 9.07546L4.28614 9.07546ZM6.28614 1.80395C6.28614 1.25167 5.83842 0.803955 5.28614 0.803955C4.73386 0.803955 4.28614 1.25167 4.28614 1.80396L6.28614 1.80395ZM1.65039 4.43971C1.09811 4.43971 0.650391 4.88742 0.650391 5.43971C0.650391 5.99199 1.09811 6.43971 1.65039 6.43971L1.65039 4.43971ZM8.92189 6.4397C9.47417 6.4397 9.92189 5.99199 9.92189 5.4397C9.92189 4.88742 9.47417 4.4397 8.92189 4.4397L8.92189 6.4397ZM24.6877 18.3152L21.8917 26.1948L23.7766 26.8636L26.5726 18.984L24.6877 18.3152ZM20.7523 27.1813L4.29182 30.4734L4.68406 32.4346L21.1445 29.1425L20.7523 27.1813ZM5.47207 31.6315L8.47592 14.9737L6.50767 14.6188L3.50381 31.2765L5.47207 31.6315ZM9.52303 13.7874L17.5906 11.2663L16.9941 9.35734L8.92648 11.8785L9.52303 13.7874ZM8.47592 14.9737C8.57683 14.4141 8.98032 13.957 9.52303 13.7874L8.92648 11.8785C7.67283 12.2702 6.74076 13.3262 6.50767 14.6188L8.47592 14.9737ZM21.8917 26.1948C21.712 26.7013 21.2792 27.0759 20.7523 27.1813L21.1445 29.1425C22.3618 28.899 23.3614 28.0335 23.7766 26.8636L21.8917 26.1948ZM5.49282 31.8633L12.6395 24.7167L11.2253 23.3025L4.07861 30.4491L5.49282 31.8633ZM25.7417 17.3469L18.595 10.2003L17.1808 11.6145L24.3275 18.7611L25.7417 17.3469ZM18.595 9.23226L21.5728 6.25449L20.1586 4.84027L17.1808 7.81805L18.595 9.23226ZM22.5408 6.25448L29.6875 13.4011L31.1017 11.9869L23.955 4.84027L22.5408 6.25448ZM29.6875 14.3691L26.7097 17.3469L28.1239 18.7611L31.1017 15.7834L29.6875 14.3691ZM29.6875 13.4011C29.9548 13.6684 29.9548 14.1018 29.6875 14.3691L31.1017 15.7834C32.15 14.735 32.15 13.0353 31.1017 11.9869L29.6875 13.4011ZM21.5728 6.25449C21.8401 5.98718 22.2735 5.98718 22.5408 6.25448L23.955 4.84027C22.9067 3.79192 21.2069 3.79192 20.1586 4.84027L21.5728 6.25449ZM18.595 10.2003C18.3277 9.93296 18.3277 9.49957 18.595 9.23226L17.1808 7.81805C16.1325 8.8664 16.1325 10.5661 17.1808 11.6145L18.595 10.2003ZM24.3275 18.7611C25.3758 19.8095 27.0755 19.8095 28.1239 18.7611L26.7097 17.3469C26.4424 17.6142 26.009 17.6142 25.7417 17.3469L24.3275 18.7611ZM13.235 19.3567C14.1602 18.4316 15.6601 18.4316 16.5853 19.3567L17.9995 17.9425C16.2933 16.2363 13.527 16.2363 11.8208 17.9425L13.235 19.3567ZM16.5853 19.3567C17.5104 20.2818 17.5104 21.7818 16.5853 22.7069L17.9995 24.1211C19.7057 22.4149 19.7057 19.6487 17.9995 17.9425L16.5853 19.3567ZM16.5853 22.7069C15.6601 23.6321 14.1602 23.6321 13.235 22.7069L11.8208 24.1211C13.527 25.8273 16.2933 25.8273 17.9995 24.1211L16.5853 22.7069ZM13.235 22.7069C12.3099 21.7818 12.3099 20.2818 13.235 19.3567L11.8208 17.9425C10.1146 19.6487 10.1146 22.4149 11.8208 24.1211L13.235 22.7069ZM6.28614 9.07546L6.28614 5.43971L4.28614 5.43971L4.28614 9.07546L6.28614 9.07546ZM6.28614 5.43971L6.28614 1.80395L4.28614 1.80396L4.28614 5.43971L6.28614 5.43971ZM1.65039 6.43971L5.28614 6.43971L5.28614 4.43971L1.65039 4.43971L1.65039 6.43971ZM5.28614 6.43971L8.92189 6.4397L8.92189 4.4397L5.28614 4.43971L5.28614 6.43971Z" fill="#FFFBFB"/>
</svg>
