<svg width="80" height="80" viewBox="0 0 80 80" fill="none" xmlns="http://www.w3.org/2000/svg">
<path fill-rule="evenodd" clip-rule="evenodd" d="M0 0H4H16H20V4V10H60V4V0H64H76H80V4V16V20H76H70V60H76H80V64V76V80H76H64H60V76V72H20V76V80H16H4H0V76V64V60H4H10V20H4H0V16V4V0ZM14 64H12H10H8H4V68V72V76H8H12H16V72V68V64H14ZM20 68V64V60H16H14V20H16H20V16V14H60V16V20H64H66V60H64H60V64V68H20ZM64 76V72V68V64H66H68H70H72H76V68V72V76H72H68H64ZM70 16H72H76V12V8V4H72H68H64V8V10V12V14V16H66H68H70ZM16 8V10V12V14V16H14H12H10H8H4V12V8V4H8H12H16V8Z" fill="black"/>
</svg>
