<svg width="50" height="50" viewBox="0 0 50 50" fill="none" xmlns="http://www.w3.org/2000/svg">
<path d="M39.7368 34.4737V15.5263M34.4737 39.7368H16.5789M10.2632 33.9474V16.0526M15.5263 10.2632H33.9474M7.10526 15.5263H13.4211C14.5838 15.5263 15.5263 14.5838 15.5263 13.4211V7.10526C15.5263 5.94256 14.5838 5 13.4211 5H7.10526C5.94256 5 5 5.94256 5 7.10526V13.4211C5 14.5838 5.94256 15.5263 7.10526 15.5263ZM36.5789 15.5263H42.8947C44.0574 15.5263 45 14.5838 45 13.4211V7.10526C45 5.94256 44.0574 5 42.8947 5H36.5789C35.4162 5 34.4737 5.94256 34.4737 7.10526V13.4211C34.4737 14.5838 35.4162 15.5263 36.5789 15.5263ZM7.10526 45H13.4211C14.5838 45 15.5263 44.0574 15.5263 42.8947V36.5789C15.5263 35.4162 14.5838 34.4737 13.4211 34.4737H7.10526C5.94256 34.4737 5 35.4162 5 36.5789V42.8947C5 44.0574 5.94256 45 7.10526 45ZM36.5789 45H42.8947C44.0574 45 45 44.0574 45 42.8947V36.5789C45 35.4162 44.0574 34.4737 42.8947 34.4737H36.5789C35.4162 34.4737 34.4737 35.4162 34.4737 36.5789V42.8947C34.4737 44.0574 35.4162 45 36.5789 45Z" stroke="#DDCDF0" stroke-width="4" stroke-linecap="round"/>
</svg>
