<svg width="60" height="60" viewBox="0 0 60 60" fill="none" xmlns="http://www.w3.org/2000/svg">
<path fill-rule="evenodd" clip-rule="evenodd" d="M31.1505 0.281088C30.4284 -0.0937167 29.5691 -0.0936947 28.847 0.281146L1.34873 14.5557C0.50787 14.9922 -0.014009 15.8665 0.000855448 16.8137C0.0157197 17.761 0.564774 18.6185 1.41891 19.0284L28.9172 32.2247C29.6009 32.5528 30.3966 32.5528 31.0804 32.2248L58.5821 19.0285C59.4363 18.6186 59.9854 17.7611 60.0002 16.8137C60.0151 15.8664 59.4932 14.9921 58.6523 14.5556L31.1505 0.281088ZM8.09588 16.6867L29.9989 5.31673L51.9047 16.6867L29.9989 27.1979L8.09588 16.6867ZM59.7376 28.3839C60.354 29.6193 59.8522 31.1206 58.6167 31.737L31.0875 45.4724C30.384 45.8234 29.5565 45.823 28.8533 45.4715L1.38251 31.7361C0.147568 31.1186 -0.352993 29.6169 0.26448 28.382C0.881953 27.147 2.38364 26.6465 3.61858 27.2639L29.9725 40.4409L56.3844 27.263C57.6199 26.6466 59.1211 27.1484 59.7376 28.3839ZM59.7376 42.5899C60.354 43.8254 59.8522 45.3266 58.6167 45.9431L31.0875 59.6785C30.384 60.0295 29.5565 60.0291 28.8533 59.6775L1.38251 45.9421C0.147568 45.3246 -0.352993 43.823 0.26448 42.588C0.881953 41.3531 2.38364 40.8525 3.61858 41.47L29.9725 54.647L56.3844 41.469C57.6199 40.8526 59.1211 41.3545 59.7376 42.5899Z" fill="#CCBBE0"/>
</svg>
