<svg width="340" height="296" viewBox="0 0 340 296" fill="none" xmlns="http://www.w3.org/2000/svg">
<path d="M231.775 124.261C242.628 131.138 255.171 130.254 266.266 125.96C275.444 122.408 283.903 117.425 292.841 113.421C294.173 112.824 290.976 115.688 290.793 115.89C286.304 120.836 282.789 126.331 280.307 132.511C277.057 140.603 276.02 149.255 277.892 158.013C278.859 162.535 280.584 166.969 283.084 170.977C285.568 174.961 288.908 177.739 292.389 180.876" stroke="#FFFBFB" stroke-width="5" stroke-linecap="round"/>
<path d="M2.49535 168.453C7.54894 170.895 11.2153 174.692 16.0292 177.583C49.9999 197.987 81.9302 208.331 120.494 203.222C177.872 195.621 223.281 169.44 265.569 135.009" stroke="#FFFBFB" stroke-width="5" stroke-linecap="round"/>
</svg>
