<svg width="207" height="148" viewBox="0 0 207 148" fill="none" xmlns="http://www.w3.org/2000/svg">
<path d="M136.371 36.7563C145.565 37.8805 153.423 33.099 159.273 26.4509C164.113 20.9517 168.037 14.7064 172.579 8.97637C173.256 8.12236 172.08 11.1575 172.024 11.3572C170.663 16.256 170.105 21.2091 170.433 26.2901C170.861 32.9425 172.9 39.2439 176.86 44.6508C178.904 47.4425 181.412 49.921 184.29 51.849C187.15 53.7654 190.187 54.5665 193.427 55.568" stroke="#2E2D30" stroke-width="3" stroke-linecap="round"/>
<path d="M1.51758 143.466C5.56057 143.466 9.12834 144.86 13.1567 145.249C41.5839 147.995 65.5346 144.492 88.9446 128.144C123.775 103.821 145.021 70.6878 161.656 32.9136" stroke="#2E2D30" stroke-width="3" stroke-linecap="round"/>
</svg>
