<svg width="233" height="251" viewBox="0 0 233 251" fill="none" xmlns="http://www.w3.org/2000/svg">
<path d="M68.0254 133.325C64.0454 141.689 55.7966 145.759 47.0482 147.133C39.8116 148.27 32.4358 148.235 25.164 148.997C24.0802 149.111 27.2727 149.745 27.471 149.806C32.3361 151.283 36.8162 153.467 40.9299 156.467C46.3159 160.396 50.5422 165.495 52.9837 171.736C54.2443 174.958 54.992 178.404 55.0769 181.867C55.1614 185.309 54.2096 188.302 53.3177 191.574" stroke="#2E2D30" stroke-width="2" stroke-linecap="round"/>
<path d="M230.398 76.6946C228.23 80.1076 227.494 83.8666 225.663 87.4758C212.741 112.945 196.945 131.285 170.594 142.283C131.389 158.646 92.0299 158.817 51.2245 152.609" stroke="#2E2D30" stroke-width="2" stroke-linecap="round"/>
</svg>
