<svg width="220" height="248" viewBox="0 0 220 248" fill="none" xmlns="http://www.w3.org/2000/svg">
<path d="M156.539 109.746C159.459 100.955 167.143 95.9005 175.656 93.4588C182.697 91.4392 190.021 90.5658 197.144 88.9139C198.205 88.6677 194.959 88.4311 194.755 88.3958C189.745 87.5292 185.03 85.913 180.578 83.4423C174.749 80.2075 169.927 75.6676 166.735 69.7746C165.087 66.732 163.921 63.4044 163.41 59.9786C162.903 56.5735 163.478 53.486 163.961 50.1286" stroke="#2E2D30" stroke-width="3" stroke-linecap="round"/>
<path d="M2.37465 185.944C4.10524 182.29 4.37256 178.469 5.74527 174.661C15.4321 147.795 28.8493 127.649 53.6444 113.489C90.5356 92.4222 129.574 87.4042 170.834 88.5393" stroke="#2E2D30" stroke-width="3" stroke-linecap="round"/>
</svg>
