<svg width="217" height="166" viewBox="0 0 217 166" fill="none" xmlns="http://www.w3.org/2000/svg">
<path d="M1 40.2659C1 45.0956 1.1031 49.9774 1.43623 54.7927C1.85959 60.9121 2.7558 67.0089 3.23935 73.1292C4.35132 87.2035 4.5899 101.379 3.76284 115.473C3.16154 125.721 2.04697 136.131 2.04697 146.403C2.04697 147.696 2.2426 149.286 2.94853 150.372C6.16295 155.318 13.2769 154.386 18.4059 154.386C24.1612 154.386 29.8879 154.909 35.6373 154.909C41.6671 154.909 47.6969 154.909 53.7267 154.909C59.9776 154.909 66.2292 154.975 72.4558 154.648C75.7135 154.476 79.2031 154.672 82.4603 154.328C85.4324 154.013 88.2974 153.021 91.2868 152.699C95.5589 152.238 99.9052 152.074 104.199 152.176C112.755 152.378 121.109 152.58 129.632 151.652C136.088 150.949 142.725 151.14 149.176 151.827C161.98 153.189 174.956 152.292 187.812 152.292C192.768 152.292 197.47 152.282 202.368 151.507C204.329 151.196 206.289 150.87 208.257 150.605C209.18 150.481 210.968 150.655 211.558 149.718C212.446 148.307 212.645 145.782 213.012 144.178C213.944 140.098 215.032 135.99 215.193 131.789C215.672 119.286 215.891 106.704 215.891 94.185C215.891 82.8382 216.044 71.526 214.321 60.2747C213.755 56.5849 213.11 52.8139 213.012 49.0779C212.959 47.0434 212.779 44.7451 211.849 42.8834C210.634 40.4551 208.37 39.0571 205.901 38.0993C200.26 35.911 193.554 35.7216 187.579 35.4528C174.646 34.8708 161.41 34.9317 148.478 35.5545C125.474 36.6624 102.437 37.7844 79.392 37.2559C66.0739 36.9504 52.7424 37.0555 39.4471 37.9102C31.8289 38.4 24.42 38.4672 16.8209 37.7939C14.1792 37.5598 10.4367 37.1099 7.80531 37.8521C4.74082 38.7164 3.63104 43.1844 3.09394 45.7625" stroke="#CCBBE0" stroke-width="2" stroke-linecap="round"/>
<path d="M1.52344 141.561C2.51817 141.561 3.46683 141.648 4.46078 141.793C10.4846 142.672 16.4955 143.527 22.5501 144.178C34.4754 145.46 46.4843 147.17 58.4671 147.639C68.2748 148.023 74.7693 148.646 84.5547 147.639M174.555 141.793C183.69 141.307 174.524 140.535 183.668 140.921C190.612 141.214 197.321 141.351 204.243 140.645C206.208 140.444 209.986 141.135 211.703 139.99" stroke="#CCBBE0" stroke-width="2" stroke-linecap="round"/>
<path d="M3.09375 70.3662C4.47963 70.4292 5.881 70.8073 7.22347 71.0933C12.9737 72.3183 21.679 71.4074 27.4549 72.5038C43.2952 75.5105 58.5261 70.3964 74.5547 71.0933M178.555 73.5071C183.417 73.4492 207.691 75.0191 212.226 73.5071" stroke="#CCBBE0" stroke-width="2" stroke-linecap="round"/>
<path d="M142.079 50.9976C141.891 50.9766 141.793 50.9295 141.629 50.8231C139.654 49.5456 136.775 48.9802 134.605 48.3365C129.987 46.9669 125.256 45.4917 120.413 45.2392C115.526 44.9845 110.563 45.7378 105.77 46.6061C91.5317 49.1855 79.5817 57.0218 70.5945 68.4035C66.1309 74.0564 62.4589 80.5876 61.7244 87.8597C61.1335 93.7089 61.9282 99.8358 63.353 105.513C65.1088 112.509 68.4747 119.1 72.3686 125.129C75.5846 130.109 78.5849 135.241 82.3003 139.874C85.2725 143.58 88.2899 147.368 91.9557 150.416C95.7346 153.559 99.977 156.32 104.141 158.923C113.715 164.907 126.416 165.879 137.106 162.995C147.185 160.275 155.58 154.043 162.932 146.825C171.105 138.8 177.729 128.704 181.37 117.8C185.019 106.874 185.854 95.0282 182.795 83.8609C180.332 74.8716 174.503 66.3947 168.108 59.7223C161.365 52.6858 153.105 47.8564 143.417 46.3153C131.546 44.4266 120.209 47.7698 109.1 51.5211" stroke="#CCBBE0" stroke-width="2" stroke-linecap="round"/>
<path d="M122.447 50.212C118.063 49.4068 113.407 49.6323 108.982 49.8049C100.831 50.1228 93.2264 51.9293 86.516 56.7265C77.9532 62.848 68.7115 70.3923 65.1839 80.6615C62.6855 87.9347 63.2357 95.5937 64.7913 103.026C67.8157 117.476 75.499 130.375 85.4836 141.066C92.8579 148.962 102.269 154.715 113.068 156.48C120.199 157.645 127.603 157.323 134.749 156.48C140.251 155.83 145.258 154.407 150.047 151.623C165.8 142.465 172.266 123.964 171.539 106.574C170.698 86.4517 165.102 63.2941 147.269 51.5062C130.86 40.659 108.507 42.414 92.347 52.7131C73.1866 64.9244 59.313 93.0646 69.8662 114.863C74.6775 124.8 82.0126 133.74 90.922 140.252C102.934 149.03 117.623 156.57 132.67 157.803C144.797 158.797 157.214 155.251 166.769 147.639C174.688 141.33 178.957 131.821 181.078 122.133C183.076 113.009 182.448 103.826 180.627 94.7229C178.646 84.8159 175.324 75.4781 169.096 67.3998C155.15 49.3094 131.535 40.1996 109.157 44.6573C98.5408 46.772 87.8778 52.0456 79.7252 59.1695C71.3464 66.4911 66.1937 75.6504 64.3987 86.6234C60.9023 107.998 72.7769 130.416 88.2464 144.498C107.176 161.728 135.2 168.649 158.713 156.625C180.736 145.363 182.917 117.554 184.219 95.7553" stroke="#CCBBE0" stroke-width="2" stroke-linecap="round"/>
<path d="M130.039 68.0107C122.99 64.0947 113.026 65.0418 106.307 69.174C95.9193 75.5634 89.9816 88.1271 87.3456 99.6671C85.1683 109.199 87.4578 119.305 92.3333 127.659C96.8722 135.436 103.969 142.067 112.502 145.167C122.004 148.619 131.151 147.52 139.985 142.826C148.225 138.447 153.956 131.555 156.184 122.395C158.294 113.719 156.534 104.43 154.105 96.0172C151.959 88.5863 149.346 80.5825 144.464 74.438C138.476 66.901 129.339 61.6337 119.511 62.0779C107.737 62.61 96.7602 70.3009 90.6319 80.08C84.3115 90.1658 84.2071 101.183 87.8109 112.303C91.2463 122.904 99.888 131.883 109.71 136.936C119.916 142.188 130.075 141.453 139.84 135.569C149.352 129.838 155.55 120.911 157.26 109.89C158.674 100.773 154.539 92.0115 148.361 85.4893C142.823 79.6435 135.07 74.5108 127 73.231C116.182 71.5157 106.642 77.6611 100.04 85.7511C93.5106 93.7524 90.8329 104.243 94.4708 114.165C97.7174 123.019 106.17 130.721 115.425 132.821C128.273 135.737 137.786 127.596 142.821 116.273C146.556 107.873 148.272 98.5079 143.126 90.2007C139.812 84.8502 133.139 80.1057 126.796 79.4547C117.976 78.5494 108.229 86.461 104.679 94.0396C101.029 101.832 101.089 111.723 107.878 117.727C113.69 122.868 122.13 123.144 128.468 118.687C134.794 114.239 136.75 105.648 135.128 98.4165C133.913 92.9993 130.018 85.4718 123.306 88.5721C118.802 90.6525 111.612 99.6769 116.079 104.713C120.418 109.605 129.083 104.686 131.842 100.525C135.17 95.5055 135.134 87.5496 128.468 85.4166C121.681 83.2448 114.953 88.3128 113.622 94.9412C112.323 101.403 115.833 108.753 123.393 106.545C129.605 104.731 135.605 98.3807 136.146 91.7421C136.977 81.5348 125.057 80.596 117.97 83.2209C112.622 85.2013 108.243 89.0011 104.81 93.458C102.364 96.6334 99.4619 101.121 100.316 105.44C101.137 109.589 105.053 111.824 108.998 111.94C115.521 112.131 121.752 108.478 126.694 104.597C133.357 99.3643 142.223 89.7105 138.938 80.3126C135.559 70.647 124.659 71.6505 117.039 75.3686C107.798 79.8773 98.2803 91.7165 99.2695 102.561C100.071 111.343 107.581 116.16 115.73 112.682C124.102 109.108 132.104 99.1918 130.911 89.6481C129.976 82.1665 123.33 74.7185 115.468 74.9324C105.121 75.2138 94.417 82.6334 91.01 92.4691C87.3882 102.925 92.6389 114.031 103.283 117.393C114.123 120.817 125.723 116.576 132.831 107.999C139.151 100.373 144.234 86.8695 138.851 77.3753C130.178 62.0807 108.157 73.5228 104.068 86.6817C101.804 93.9677 105.825 99.882 113.055 100.99C119.403 101.963 125.848 99.0568 130.242 94.5922C136.011 88.7308 138.247 79.3792 132.816 72.5912C125.972 64.0363 113.584 67.8369 106.598 74.089C99.2082 80.7025 97.0954 92.298 106.395 98.4602C114.789 104.023 126.983 98.1452 132.627 91.1459C137.692 84.8658 137.646 74.444 129.908 70.2355C119.527 64.5897 107.014 72.8073 101.567 81.5632C95.3613 91.5384 95.2827 104.635 104.664 112.594C110.9 117.885 121.413 121.719 129.254 117.698C144.395 109.934 140.507 84.1121 125.24 78.9312C115.431 75.6026 106.304 81.1565 101.625 89.6918C96.3452 99.3233 98.2091 110.692 106.496 118.105C114.406 125.18 126.007 126.176 135.259 121.319C143.944 116.76 148.855 108.643 148.855 98.8673C148.855 91.1138 145.843 80.5763 136.35 80.4435C126.738 80.3091 118.807 89.0916 117.228 98.0094C115.977 105.072 119.555 110.324 127.014 110.646C135.078 110.993 144.169 105.944 146.878 98.0821C149.718 89.8384 143.247 84.6936 135.332 85.4312C130.468 85.8844 126.048 88.2314 122.259 91.175C119.575 93.2601 116.106 96.3296 115.468 99.9434C113.865 109.027 127.924 105.838 131.929 103.782C136.971 101.194 144.021 93.7362 139.083 87.845C133.022 80.613 121.541 86.0676 115.963 90.8405C112.67 93.658 109.576 97.5429 108.838 101.936C108.009 106.866 111.422 109.431 116.137 110.239C128.078 112.283 145.362 107.658 146.558 93.4143C147.303 84.5317 141.123 72.0878 131.638 70.2792C123.196 68.6692 116.95 75.3262 114.887 82.9446C112.122 93.154 116.403 104.113 126.345 108.479C135.75 112.609 147.217 109.104 152.709 100.438C157.749 92.4847 155.347 83.216 147.27 78.4804C139.279 73.7949 130.231 74.7588 124.426 82.1303C118.759 89.326 119.518 98.2295 126.054 104.669C136.638 115.096 156.155 105.737 156.155 91.2186C156.155 83.0015 149.498 77.4353 141.41 78.0442C132.324 78.7283 126.113 85.9608 126.636 94.9993C127.088 102.809 133.597 107.422 141.148 106.545C149.586 105.565 156.295 98.4826 158.452 90.4915C160.522 82.8261 155.717 75.3847 147.372 75.514C136.605 75.6808 127.228 86.6217 126.258 96.8315C125.21 107.864 133.725 116.287 144.813 115.037C154.95 113.894 166.032 104.837 165.083 93.8069C164.241 84.0101 155.583 79.3498 146.616 79.2075C136.979 79.0545 128.496 83.4112 123.612 91.8293C114.947 106.763 130.909 130.151 147.75 119.225C153.102 115.753 160.398 106.37 157.231 99.4199C152.726 89.5329 137.394 97.9069 132.104 102.066C129.074 104.448 125.856 108.03 123.815 111.315C121.607 114.867 118.033 121.476 120.151 125.87C123.174 132.145 132.709 128.71 136.786 126.292C143.297 122.43 151.671 114.221 151.255 105.818C150.903 98.7133 142.282 97.1366 136.815 97.6749C129.177 98.4269 122.485 102.923 117.17 108.13C110.752 114.418 103.816 126.106 112.633 133.621C120.285 140.143 130.564 135.39 136.51 129.099C141.894 123.401 146.621 113.64 136.597 110.122C127.229 106.835 116.732 112.879 112.328 121.29C110.565 124.655 109.806 129.215 112.56 132.399C116.073 136.461 122.374 136.73 127.203 136.064C137.723 134.614 148.124 127.903 148.317 116.39C148.401 111.378 146.869 105.664 142.632 102.474C137.256 98.4268 129.491 99.1549 123.423 100.452C113.504 102.573 87.6524 113.841 100.171 127.645C110.401 138.925 127.826 129.033 133.95 118.28C139.917 107.805 134.597 92.3921 121.241 92.2365C107.872 92.0807 95.1314 107.221 101.858 120.098C107.788 131.449 122.776 127.368 128.483 118.178C134.589 108.346 131.895 91.7593 118.231 90.8551C106.336 90.0679 95.6832 101.349 93.8601 112.536C92.9056 118.393 95.0358 124.594 101.131 126.452C107.745 128.469 115.092 125.001 119.976 120.708C124.715 116.544 128.61 110.13 127.872 103.593C127.22 97.8203 122.638 94.0892 117.097 93.109C103.86 90.7673 88.6785 102.5 91.8534 116.84C93.4542 124.071 100.572 127.306 106.976 128.91C115.387 131.016 124.726 130.956 133.092 128.59C144.849 125.265 155.389 114.033 151.763 100.99C149.348 92.3022 137.579 90.6416 131.173 95.7846C123.158 102.219 119.56 114.842 124.688 124.082C129.577 132.893 141.763 133.82 150.222 130.306C162.491 125.208 166.326 110.759 160.488 99.2454C151.188 80.9041 127.91 77.0105 111.339 87.9323C105.602 91.7131 102.483 97.301 102.948 104.102C103.34 109.822 105.988 115.151 109.914 119.283C117.194 126.946 128.106 129.22 137.309 123.5C147.962 116.88 149.815 103.082 145.743 92.0038C142.206 82.3793 131.476 75.6185 121.227 76.6482C116.936 77.0793 112.918 79.0792 110.103 82.3339C107.855 84.9334 108.014 87.0221 107.005 89.9971" stroke="#CCBBE0" stroke-width="2" stroke-linecap="round"/>
<path d="M43.4023 31.1048C43.4023 33.48 44.1028 35.8329 44.7983 38.0846C46.2138 42.667 46.9427 35.9842 47.0086 34.4202C47.1271 31.6048 46.4166 28.7216 46.0779 25.9281C45.7958 23.6002 49.1345 23.673 50.8475 23.2525C57.2448 21.682 63.3076 20.8827 69.6057 23.3688C73.4269 24.8772 77.5392 26.8026 81.1224 28.8363C82.0581 29.3674 81.9378 28.4589 81.7622 29.7088C81.4154 32.1777 81.0933 34.6283 81.0933 37.1248" stroke="#CCBBE0" stroke-width="2" stroke-linecap="round"/>
<path d="M46.543 25.085C48.0754 28.5754 49.0207 32.4641 50.2074 36.0782" stroke="#CCBBE0" stroke-width="2" stroke-linecap="round"/>
<path d="M55.7031 25.085C55.7031 25.6768 55.7739 26.2451 55.8776 26.8299C56.0207 27.6363 56.7501 32.0316 56.7501 29.0256C56.7501 26.1654 57.1811 28.6931 58.0007 30.0145C60.0418 33.3053 60.9612 27.0557 62.2758 26.2192C63.7659 25.2709 64.3842 29.4323 65.8239 28.0223C65.9658 27.8833 67.231 25.2649 67.6706 25.7829C68.4785 26.735 68.3154 29.2619 68.4122 30.4071C68.6885 33.6766 68.4535 31.7654 69.5755 30.0581C70.7105 28.3309 71.6248 29.5672 72.4547 30.5816" stroke="#CCBBE0" stroke-width="2" stroke-linecap="round"/>
<path d="M68.2665 32.4134C66.7106 32.4134 65.1041 32.1166 63.5842 31.8899C62.0464 31.6606 55.8686 30.6879 54.4232 30.4067C50.1267 29.5708 51.2818 29.0961 55.0485 28.8363C65.5432 28.1125 76.7783 28.9711 86.8503 32.1517" stroke="#CCBBE0" stroke-width="2" stroke-linecap="round"/>
<path d="M18.7984 31.6284C18.4938 32.2714 18.3149 32.9395 18.0713 33.606C17.7088 34.5982 15.7103 37.4771 15.9919 38.4628C16.0459 38.6516 16.3365 38.2697 16.4863 38.1429C17.5976 37.2026 18.689 36.2368 19.8454 35.351C22.6222 33.2238 27.4296 29.3265 31.2167 30.5524C32.9397 31.1101 34.7345 32.481 36.0298 33.7224C36.3114 33.9922 38.0377 36.164 37.8184 36.1071C31.8551 34.5611 26.1119 34.9863 20.1071 36.078" stroke="#CCBBE0" stroke-width="2" stroke-linecap="round"/>
<path d="M171.918 28.4873C171.945 29.5765 172.077 30.6566 172.122 31.7446C172.141 32.2127 172.168 33.105 172.063 33.6058C171.962 34.0934 171.31 33.987 172.049 33.3732C175.789 30.2667 181.48 29.1012 186.11 28.1674C186.696 28.0493 192.405 26.361 192.814 27.3676C193.266 28.4801 192.004 30.8972 191.723 31.9627C191.524 32.7205 191.58 35.3892 191.171 35.9615C190.871 36.3806 182.549 35.4685 182.184 35.4671C178.34 35.4524 174.654 35.5527 170.871 35.0309" stroke="#CCBBE0" stroke-width="2" stroke-linecap="round"/>
<path d="M22.4629 57.8027C22.6055 59.798 24.3479 62.2385 26.1128 63.0958C28.1916 64.1055 30.1853 62.4896 28.0468 60.711C26.1761 59.1552 22.5104 61.3381 21.9395 61.9906" stroke="#CCBBE0" stroke-width="2" stroke-linecap="round"/>
<path d="M82.9238 30.0578C82.9238 27.0067 83.1342 23.6425 84.8433 21.0131C86.9133 17.8285 90.8514 15.5934 93.7135 13.2044C96.9166 10.5308 100.1 8.13885 103.572 5.832C104.746 5.05218 105.876 4.09681 107.15 3.47631C108.021 3.05203 109.576 3.3715 110.48 3.3309C117.284 3.02508 123.726 0.891773 130.59 1.00429C131.633 1.02139 132.433 1.48086 133.266 2.08035C135.496 3.6856 137.871 5.00942 140.144 6.54452C142.444 8.09782 144.348 10.1606 146.658 11.6776C148.538 12.9124 150.682 13.4345 152.751 14.2369C154.651 14.9737 154.895 17.5626 155.601 19.2536C157.922 24.8101 160.59 30.6027 161.447 36.6013" stroke="#CCBBE0" stroke-width="2" stroke-linecap="round"/>
<path d="M144.958 16.4473C144.306 16.028 143.7 16.0814 142.864 16.011C135.243 15.3688 127.563 15.0639 119.918 14.9495C115.014 14.8761 110.104 14.9783 105.202 15.1385C101.929 15.2456 97.01 14.7725 93.9181 16.2437C92.0768 17.1198 97.886 17.3303 99.9236 17.407C109.437 17.765 118.967 17.3131 128.468 16.8544C136.66 16.459 144.924 15.8843 153.072 16.9707" stroke="#CCBBE0" stroke-width="2" stroke-linecap="round"/>
<path d="M53.6104 108.843C53.6104 108.149 53.4105 107.419 52.8397 106.967C49.1225 104.024 45.2807 106.757 44.7402 110.908C44.0949 115.863 49.5255 116.421 52.6943 113.845C54.1492 112.662 55.325 110.801 54.5701 108.872C53.8862 107.124 51.6624 106.162 50.0042 107.185C47.3692 108.81 44.4939 117.455 48.1574 119.312C52.6014 121.566 56.1609 112.652 55.7334 109.512C55.6258 108.721 55.1036 107.312 54.0176 107.592C51.786 108.168 50.7145 111.454 50.4113 113.394C50.3808 113.59 50.0081 116.273 50.7894 116.491C51.3499 116.648 52.1369 114.632 52.3017 114.339" stroke="#CCBBE0" stroke-width="2" stroke-linecap="round"/>
<path d="M190.239 55.4471C188.935 54.4038 187.724 56.5465 187.709 57.6574C187.689 59.0984 189.78 56.6916 188.407 58.0645" stroke="#CCBBE0" stroke-width="2" stroke-linecap="round"/>
</svg>
