<svg width="208" height="180" viewBox="0 0 208 180" fill="none" xmlns="http://www.w3.org/2000/svg">
<mask id="mask0_716_47" style="mask-type:alpha" maskUnits="userSpaceOnUse" x="0" y="0" width="208" height="180">
<rect width="208" height="180" fill="#D9D9D9"/>
</mask>
<g mask="url(#mask0_716_47)">
<path d="M115.657 92.3715C110.733 113.489 100.005 131.044 86.7583 142.383C73.5108 153.723 57.9024 158.744 43.002 155.27C28.1017 151.796 16.3233 140.39 9.4574 124.36C2.59207 108.331 0.733467 87.8423 5.65726 66.7243C10.5811 45.6064 21.3096 28.0523 34.556 16.7129C47.8034 5.3726 63.4118 0.351826 78.3122 3.82595C93.2126 7.30007 104.991 18.7062 111.857 34.7362C118.722 50.7647 120.581 71.2535 115.657 92.3715Z" fill="#FFFBFB" stroke="#2E2D30" stroke-width="5"/>
<path d="M70.9061 102.581C69.2688 93.0649 64.9485 84.3546 58.7728 78.1196C52.5971 71.8845 45.0004 68.5631 37.4384 68.7917C29.8764 69.0204 22.8809 72.7831 17.7923 79.3588C12.7036 85.9345 9.8798 94.8607 9.86182 104.427C9.84384 113.994 12.633 123.527 17.6948 131.202C22.7567 138.876 29.7352 144.152 37.2933 146.017C44.8513 147.882 52.4574 146.206 58.654 141.311C64.8506 136.415 69.202 128.643 70.8743 119.485L40.7459 107.77L70.9061 102.581Z" fill="#2E2D30"/>
<path d="M202.209 114.238C197.391 134.903 186.764 152.052 173.593 163.103C160.423 174.154 144.849 179.017 129.927 175.538C115.005 172.059 103.188 160.809 96.2635 145.073C89.3382 129.337 87.3915 109.256 92.2097 88.5911C97.0278 67.9262 107.655 50.7771 120.826 39.7261C133.996 28.6757 149.57 23.8121 164.492 27.2913C179.414 30.7705 191.231 42.0202 198.156 57.756C205.081 73.4926 207.028 93.5734 202.209 114.238Z" fill="#FFFBFB" stroke="#2E2D30" stroke-width="5"/>
<path d="M157.836 122.849C156.199 113.332 151.878 104.622 145.702 98.3871C139.527 92.1521 131.93 88.8306 124.368 89.0593C116.806 89.288 109.811 93.0506 104.722 99.6263C99.6333 106.202 96.8095 115.128 96.7915 124.695C96.7735 134.261 99.5627 143.795 104.625 151.469C109.686 159.144 116.665 164.419 124.223 166.284C131.781 168.15 139.387 166.474 145.584 161.578C151.78 156.682 156.132 148.911 157.804 139.753L127.676 128.038L157.836 122.849Z" fill="#2E2D30"/>
</g>
</svg>
