<svg width="197" height="152" viewBox="0 0 197 152" fill="none" xmlns="http://www.w3.org/2000/svg">
<path d="M9.0847 35.8392V44.7647H107.212V35.8392H98.2911V26.9137H89.3704V35.8392H9.0847ZM80.4498 142.945H142.894V151.871H80.4498V142.945ZM80.4498 0.137207L107.212 0.137207V9.0627L89.3704 9.0627V26.9137H80.4498V0.137207ZM133.974 26.9137H116.132V17.9882H133.974V26.9137ZM151.815 35.8392H133.974V26.9137H151.815V35.8392ZM169.656 44.7647H196.418V134.02H169.712V125.094H187.497V53.6902H169.656V44.7647H151.815V35.8392H169.656V44.7647ZM169.656 134.02V142.945H142.894V134.02H169.656ZM116.132 17.9882H107.212V9.0627H116.132V17.9882ZM71.5292 134.02H80.4498V142.945H71.5292V134.02ZM62.6085 116.169H98.2911V125.094H71.5292V134.02H62.6085L62.6085 116.169ZM53.6879 89.3922H89.3704V98.3177H62.6085V116.169H53.6879V89.3922ZM44.7673 71.5412H9.0847V62.6157H89.3704V71.5412H53.6879V89.3922H44.7673V71.5412ZM0.164062 44.7647H9.0847V62.6157H0.164062L0.164062 44.7647Z" fill="#2E2D30"/>
</svg>
