<svg width="207" height="256" viewBox="0 0 207 256" fill="none" xmlns="http://www.w3.org/2000/svg">
<path d="M2.64425 39.9808C6.54704 52.0607 11.1256 64.4732 19.2993 74.3761C31.9306 89.6798 41.1859 97.817 58.5354 106.459C69.0246 111.684 95.9325 115.32 107.123 110.068C116.286 105.768 118.758 98.7541 111.079 90.7765C99.801 79.0604 77.3405 81.2628 63.16 84.4952C40.7469 89.6042 26.8224 105.944 31.9439 128.651C48.3524 201.401 130.626 221.187 194.397 215.709" stroke="#4A4A4A" stroke-width="5" stroke-linecap="round"/>
<path d="M169.229 189.837C170.44 198.52 176.728 204.541 184.233 208.272C190.441 211.358 197.109 213.425 203.456 216.183C204.402 216.594 201.34 216.258 201.144 216.256C196.332 216.204 191.666 216.901 187.099 218.438C181.119 220.451 175.853 223.851 171.873 228.789C169.818 231.339 168.162 234.237 167.1 237.338C166.044 240.421 166.052 243.393 165.925 246.601" stroke="#4A4A4A" stroke-width="5" stroke-linecap="round"/>
</svg>
