<svg width="85" height="88" viewBox="0 0 85 88" fill="none" xmlns="http://www.w3.org/2000/svg">
<mask id="path-1-inside-1_1272_58" fill="white">
<path fill-rule="evenodd" clip-rule="evenodd" d="M55.933 53.6429C54.0428 53.1445 52.1884 54.5581 52.1682 56.5128L51.9628 76.4014C51.937 78.8986 54.7953 80.3322 56.7814 78.8182L60.7031 75.8287L64.3173 80.5698C65.3217 81.8875 67.2042 82.1414 68.5218 81.1369L74.8516 76.3118C76.1693 75.3073 76.4232 73.4249 75.4188 72.1072L71.8046 67.3661L76.2191 64.001C78.2051 62.487 77.58 59.351 75.1653 58.7143L55.933 53.6429Z"/>
</mask>
<path fill-rule="evenodd" clip-rule="evenodd" d="M55.933 53.6429C54.0428 53.1445 52.1884 54.5581 52.1682 56.5128L51.9628 76.4014C51.937 78.8986 54.7953 80.3322 56.7814 78.8182L60.7031 75.8287L64.3173 80.5698C65.3217 81.8875 67.2042 82.1414 68.5218 81.1369L74.8516 76.3118C76.1693 75.3073 76.4232 73.4249 75.4188 72.1072L71.8046 67.3661L76.2191 64.001C78.2051 62.487 77.58 59.351 75.1653 58.7143L55.933 53.6429Z" fill="#2E2D30"/>
<path d="M52.1682 56.5128L54.1681 56.5335L54.1681 56.5335L52.1682 56.5128ZM55.933 53.6429L56.4429 51.709L56.4429 51.709L55.933 53.6429ZM51.9628 76.4014L49.9629 76.3808L49.9629 76.3808L51.9628 76.4014ZM56.7814 78.8182L55.5689 77.2277L56.7814 78.8182ZM60.7031 75.8287L62.2937 74.6162L61.0812 73.0257L59.4907 74.2381L60.7031 75.8287ZM75.4188 72.1072L77.0093 70.8947L75.4188 72.1072ZM71.8046 67.3661L70.5921 65.7755L69.0016 66.988L70.214 68.5786L71.8046 67.3661ZM75.1653 58.7143L75.6752 56.7804L75.6752 56.7804L75.1653 58.7143ZM54.1681 56.5335C54.1748 55.8819 54.793 55.4107 55.423 55.5768L56.4429 51.709C53.2926 50.8783 50.202 53.2343 50.1683 56.4921L54.1681 56.5335ZM53.9627 76.4221L54.1681 56.5335L50.1683 56.4921L49.9629 76.3808L53.9627 76.4221ZM55.5689 77.2277C54.9069 77.7323 53.9541 77.2544 53.9627 76.4221L49.9629 76.3808C49.9199 80.5427 54.6838 82.9321 57.9939 80.4088L55.5689 77.2277ZM59.4907 74.2381L55.5689 77.2277L57.9939 80.4088L61.9156 77.4193L59.4907 74.2381ZM65.9078 79.3573L62.2937 74.6162L59.1126 77.0412L62.7267 81.7823L65.9078 79.3573ZM67.3094 79.5464C66.8701 79.8812 66.2427 79.7966 65.9078 79.3573L62.7267 81.7823C64.4008 83.9784 67.5382 84.4016 69.7343 82.7275L67.3094 79.5464ZM73.6391 74.7212L67.3094 79.5464L69.7343 82.7275L76.0641 77.9023L73.6391 74.7212ZM73.8282 73.3197C74.163 73.7589 74.0784 74.3864 73.6391 74.7212L76.0641 77.9023C78.2602 76.2283 78.6834 73.0908 77.0093 70.8947L73.8282 73.3197ZM70.214 68.5786L73.8282 73.3197L77.0093 70.8947L73.3952 66.1536L70.214 68.5786ZM75.0066 62.4104L70.5921 65.7755L73.0171 68.9566L77.4315 65.5915L75.0066 62.4104ZM74.6553 60.6482C75.4602 60.8604 75.6686 61.9057 75.0066 62.4104L77.4315 65.5915C80.7416 63.0683 79.6998 57.8416 75.6752 56.7804L74.6553 60.6482ZM55.423 55.5768L74.6553 60.6482L75.6752 56.7804L56.4429 51.709L55.423 55.5768Z" fill="#FFFBFB" mask="url(#path-1-inside-1_1272_58)"/>
</svg>
