<svg width="85" height="88" viewBox="0 0 85 88" fill="none" xmlns="http://www.w3.org/2000/svg">
<path d="M71.6457 36.3229C71.6457 55.8311 55.8311 71.6457 36.3229 71.6457C16.8146 71.6457 1 55.8311 1 36.3229C1 16.8146 16.8146 1 36.3229 1C55.8311 1 71.6457 16.8146 71.6457 36.3229Z" stroke="#FFFBFB" stroke-width="2"/>
<path d="M71.6457 36.3229C71.6457 55.8311 55.8311 71.6457 36.3229 71.6457C16.8146 71.6457 1 55.8311 1 36.3229C1 16.8146 16.8146 1 36.3229 1C55.8311 1 71.6457 16.8146 71.6457 36.3229Z" stroke="#FFFBFB" stroke-width="2"/>
<path d="M71.6457 36.3229C71.6457 55.8311 55.8311 71.6457 36.3229 71.6457C16.8146 71.6457 1 55.8311 1 36.3229C1 16.8146 16.8146 1 36.3229 1C55.8311 1 71.6457 16.8146 71.6457 36.3229Z" stroke="#FFFBFB" stroke-width="2"/>
<path d="M71.6457 36.3229C71.6457 55.8311 55.8311 71.6457 36.3229 71.6457C16.8146 71.6457 1 55.8311 1 36.3229C1 16.8146 16.8146 1 36.3229 1C55.8311 1 71.6457 16.8146 71.6457 36.3229Z" stroke="#FFFBFB" stroke-width="2"/>
<mask id="mask0_1272_57" style="mask-type:alpha" maskUnits="userSpaceOnUse" x="0" y="0" width="73" height="73">
<path d="M71.6457 36.3236C71.6457 16.8153 55.8311 1.00076 36.3229 1.00076C16.8146 1.00076 1 16.8153 1 36.3236C1 55.8319 16.8146 71.6465 36.3229 71.6465C55.8311 71.6465 71.6457 55.8319 71.6457 36.3236Z" fill="#F19C9C" stroke="#C1ACDC" stroke-width="2"/>
</mask>
<g mask="url(#mask0_1272_57)">
<path d="M71.6457 -15.565C71.6457 -35.0733 55.8311 -50.8879 36.3229 -50.8879C16.8146 -50.8879 1 -35.0733 1 -15.565C1 3.94323 16.8146 19.7578 36.3229 19.7578C55.8311 19.7578 71.6457 3.94323 71.6457 -15.565Z" stroke="#FFFBFB" stroke-width="2"/>
<path d="M71.6457 89.6967C71.6457 70.1884 55.8311 54.3738 36.3229 54.3738C16.8146 54.3738 1 70.1884 1 89.6967C1 109.205 16.8146 125.02 36.3229 125.02C55.8311 125.02 71.6457 109.205 71.6457 89.6967Z" stroke="#FFFBFB" stroke-width="2"/>
</g>
<line x1="35.8438" y1="1.4834" x2="35.8437" y2="71.164" stroke="#FFFBFB" stroke-width="2"/>
<line x1="1.48242" y1="38.0469" x2="71.163" y2="38.0469" stroke="#FFFBFB" stroke-width="2"/>
<path d="M56.8186 36.3229C56.8186 46.2054 54.4458 55.1038 50.6617 61.4977C46.8644 67.9137 41.7616 71.6457 36.3214 71.6457C30.8812 71.6457 25.7784 67.9137 21.9812 61.4977C18.197 55.1038 15.8242 46.2054 15.8242 36.3229C15.8242 26.4403 18.197 17.5419 21.9812 11.148C25.7784 4.73204 30.8812 1 36.3214 1C41.7616 1 46.8644 4.73204 50.6617 11.148C54.4458 17.5419 56.8186 26.4403 56.8186 36.3229Z" stroke="#FFFBFB" stroke-width="2"/>
<path d="M56.8186 36.3229C56.8186 46.2054 54.4458 55.1038 50.6617 61.4977C46.8644 67.9137 41.7616 71.6457 36.3214 71.6457C30.8812 71.6457 25.7784 67.9137 21.9812 61.4977C18.197 55.1038 15.8242 46.2054 15.8242 36.3229C15.8242 26.4403 18.197 17.5419 21.9812 11.148C25.7784 4.73204 30.8812 1 36.3214 1C41.7616 1 46.8644 4.73204 50.6617 11.148C54.4458 17.5419 56.8186 26.4403 56.8186 36.3229Z" stroke="#FFFBFB" stroke-width="2"/>
<path d="M56.8186 36.3229C56.8186 46.2054 54.4458 55.1038 50.6617 61.4977C46.8644 67.9137 41.7616 71.6457 36.3214 71.6457C30.8812 71.6457 25.7784 67.9137 21.9812 61.4977C18.197 55.1038 15.8242 46.2054 15.8242 36.3229C15.8242 26.4403 18.197 17.5419 21.9812 11.148C25.7784 4.73204 30.8812 1 36.3214 1C41.7616 1 46.8644 4.73204 50.6617 11.148C54.4458 17.5419 56.8186 26.4403 56.8186 36.3229Z" stroke="#FFFBFB" stroke-width="2"/>
<path d="M56.8186 36.3229C56.8186 46.2054 54.4458 55.1038 50.6617 61.4977C46.8644 67.9137 41.7616 71.6457 36.3214 71.6457C30.8812 71.6457 25.7784 67.9137 21.9812 61.4977C18.197 55.1038 15.8242 46.2054 15.8242 36.3229C15.8242 26.4403 18.197 17.5419 21.9812 11.148C25.7784 4.73204 30.8812 1 36.3214 1C41.7616 1 46.8644 4.73204 50.6617 11.148C54.4458 17.5419 56.8186 26.4403 56.8186 36.3229Z" stroke="#FFFBFB" stroke-width="2"/>
</svg>
