<svg width="196" height="64" viewBox="0 0 196 64" fill="none" xmlns="http://www.w3.org/2000/svg">
<path fill-rule="evenodd" clip-rule="evenodd" d="M147.92 15.5233C157.157 17.8803 164.103 21.4425 170.997 25.2303C193.604 37.6617 199.236 50.0618 180.244 56.509C150.721 66.4904 88.2276 62.9235 42.8012 47.1952C32.7397 43.7172 19.0001 39.512 9.98617 31.9133C1.60062 24.8469 3.3432 19.1862 8.95164 14.8801C14.6709 10.4578 24.4128 7.43537 31.9898 5.80011C65.11 -1.32 127.831 -0.160025 180.265 19.2306C181.344 19.6205 182.507 19.6565 182.92 19.3245C183.332 18.9925 182.878 18.427 181.878 18.0556C127.904 -1.903 63.2149 -3.23317 29.1261 4.09366C19.6969 6.13712 7.02006 10.2649 2.21957 16.4812C-1.03456 20.7362 -0.665248 25.9503 6.59409 32.1092C16.1631 40.1959 30.7411 44.7517 41.4209 48.4474C88.3171 64.6872 152.943 68.43 183.383 58.1089C203.825 51.1861 197.904 37.878 173.591 24.5128C166.183 20.4198 158.545 16.5935 148.519 14.0354C147.414 13.7537 146.386 13.8591 146.286 14.2851C146.107 14.6925 146.894 15.2601 147.92 15.5233Z" fill="#DFC2FC"/>
</svg>
