<svg width="207" height="108" viewBox="0 0 207 108" fill="none" xmlns="http://www.w3.org/2000/svg">
<path fill-rule="evenodd" clip-rule="evenodd" d="M151.92 39.5233C161.157 41.8803 168.103 45.4425 174.997 49.2303C197.604 61.6617 203.236 74.0618 184.244 80.509C154.721 90.4904 92.2276 86.9235 46.8012 71.1952C36.7397 67.7172 23.0001 63.512 13.9862 55.9133C5.60062 48.8469 7.3432 43.1862 12.9516 38.8801C18.6709 34.4578 28.4128 31.4354 35.9898 29.8001C69.11 22.68 131.831 23.84 184.265 43.2306C185.344 43.6205 186.507 43.6565 186.92 43.3245C187.332 42.9925 186.878 42.427 185.878 42.0556C131.904 22.097 67.2149 20.7668 33.1261 28.0937C23.6969 30.1371 11.0201 34.2649 6.21957 40.4812C2.96544 44.7362 3.33475 49.9503 10.5941 56.1092C20.1631 64.1959 34.7411 68.7517 45.4209 72.4474C92.3171 88.6872 156.943 92.43 187.383 82.1089C207.825 75.1861 201.904 61.878 177.591 48.5128C170.183 44.4198 162.545 40.5935 152.519 38.0354C151.414 37.7537 150.386 37.8591 150.286 38.2851C150.107 38.6925 150.894 39.2601 151.92 39.5233Z" fill="#DFC2FC"/>
<path d="M51.3519 58.7003L53.6288 41.6517L70.8757 43.9551L70.3098 48.1925L59.1836 46.7065L58.7997 49.581L68.5382 50.8816L67.9723 55.119L58.2338 53.8184L57.4726 59.5178L51.3519 58.7003ZM71.3405 61.3699L73.6174 44.3213L88.3862 46.2937C89.6583 46.4636 90.6803 46.8691 91.4522 47.5103C92.2406 48.1537 92.7922 48.9335 93.107 49.85C93.4218 50.7664 93.513 51.7202 93.3806 52.7114C93.2284 53.8512 92.8367 54.833 92.2054 55.6567C91.5929 56.4661 90.7639 57.07 89.7187 57.4685L92.2548 64.1631L85.3411 63.2398L83.4756 57.5679L78.1726 56.8596L77.4611 62.1873L71.3405 61.3699ZM78.7386 52.6223L85.2309 53.4893C85.6935 53.5511 86.1005 53.4626 86.4518 53.2236C86.8054 52.9682 87.0164 52.5844 87.0848 52.0723C87.1312 51.7254 87.0954 51.4263 86.9776 51.1752C86.8621 50.9076 86.6881 50.6994 86.4557 50.5506C86.2421 50.3876 85.9783 50.2851 85.6645 50.2432L79.1721 49.3761L78.7386 52.6223ZM94.7169 64.4919L96.9938 47.4433L115.207 49.8758L114.641 54.1132L102.573 52.5014L102.279 54.7068L112.686 56.0968L112.15 60.1112L101.743 58.7212L101.428 61.0753L113.694 62.7135L113.128 66.9509L94.7169 64.4919ZM116.036 67.3393L118.313 50.2906L136.527 52.7231L135.961 56.9605L123.893 55.3488L123.598 57.5542L134.006 58.9442L133.47 62.9585L123.062 61.5685L122.748 63.9226L135.014 65.5608L134.448 69.7982L116.036 67.3393ZM146.162 64.5023L146.473 54.0515L153.188 54.9484L150.746 65.1145L146.162 64.5023ZM144.32 71.1167L145.002 66.012L151.469 66.8758L150.788 71.9804L144.32 71.1167Z" fill="#DFC2FC"/>
</svg>
