<svg width="55" height="55" viewBox="0 0 55 55" fill="none" xmlns="http://www.w3.org/2000/svg">
<mask id="mask0_712_54" style="mask-type:alpha" maskUnits="userSpaceOnUse" x="0" y="0" width="55" height="55">
<rect width="55" height="55" fill="#D9D9D9"/>
</mask>
<g mask="url(#mask0_712_54)">
<path d="M27.6682 27.3333C27.6682 30.9665 28.3838 34.5642 29.7742 37.9209C31.1646 41.2775 33.2025 44.3275 35.7716 46.8966C38.3407 49.4657 41.3907 51.5036 44.7474 52.894C48.1041 54.2844 51.7018 55 55.3351 55L55.3351 27.3333L27.6682 27.3333Z" fill="#C1ACDC"/>
<path d="M0.000217438 27.3333C0.000217438 30.9665 0.715843 34.5642 2.10623 37.9209C3.49662 41.2775 5.53455 44.3275 8.10366 46.8966C10.6728 49.4657 13.7227 51.5036 17.0794 52.894C20.4361 54.2844 24.0338 55 27.6671 55L27.6671 27.3333L0.000217438 27.3333Z" fill="#C1ACDC"/>
<path d="M27.6682 -0.333246C27.6682 3.3 28.3838 6.89767 29.7742 10.2544C31.1646 13.611 33.2025 16.661 35.7716 19.2301C38.3407 21.7992 41.3907 23.8371 44.7474 25.2275C48.1041 26.6179 51.7018 27.3335 55.3351 27.3335L55.3351 -0.333246L27.6682 -0.333246Z" fill="#C1ACDC"/>
<path d="M0.000217438 -0.333246C0.000217438 3.3 0.715843 6.89767 2.10623 10.2544C3.49662 13.611 5.53455 16.661 8.10366 19.2301C10.6728 21.7992 13.7227 23.8371 17.0794 25.2275C20.4361 26.6179 24.0338 27.3335 27.6671 27.3335L27.6671 -0.333246L0.000217438 -0.333246Z" fill="#C1ACDC"/>
</g>
</svg>
