<svg width="53" height="55" viewBox="0 0 53 55" fill="none" xmlns="http://www.w3.org/2000/svg">
<path d="M51.5 13C51.5 15.7006 49.2247 18.5661 44.5777 20.8457C40.0288 23.0772 33.6393 24.5 26.5 24.5C19.3607 24.5 12.9712 23.0772 8.42231 20.8457C3.77535 18.5661 1.5 15.7006 1.5 13C1.5 10.2994 3.77535 7.43394 8.42231 5.1543C12.9712 2.92276 19.3607 1.5 26.5 1.5C33.6393 1.5 40.0288 2.92276 44.5777 5.1543C49.2247 7.43394 51.5 10.2994 51.5 13Z" stroke="#C1ACDC" stroke-width="3"/>
<path d="M51.5 27C51.5 29.7006 49.2247 32.5661 44.5777 34.8457C40.0288 37.0772 33.6393 38.5 26.5 38.5C19.3607 38.5 12.9712 37.0772 8.42231 34.8457C3.77535 32.5661 1.5 29.7006 1.5 27C1.5 24.2994 3.77535 21.4339 8.42231 19.1543C12.9712 16.9228 19.3607 15.5 26.5 15.5C33.6393 15.5 40.0288 16.9228 44.5777 19.1543C49.2247 21.4339 51.5 24.2994 51.5 27Z" stroke="#C1ACDC" stroke-width="3"/>
<path d="M51.5 42C51.5 44.7006 49.2247 47.5661 44.5777 49.8457C40.0288 52.0772 33.6393 53.5 26.5 53.5C19.3607 53.5 12.9712 52.0772 8.42231 49.8457C3.77535 47.5661 1.5 44.7006 1.5 42C1.5 39.2994 3.77535 36.4339 8.42231 34.1543C12.9712 31.9228 19.3607 30.5 26.5 30.5C33.6393 30.5 40.0288 31.9228 44.5777 34.1543C49.2247 36.4339 51.5 39.2994 51.5 42Z" stroke="#C1ACDC" stroke-width="3"/>
</svg>
