<svg width="55" height="55" viewBox="0 0 55 55" fill="none" xmlns="http://www.w3.org/2000/svg">
<path d="M19 18C19 13.2261 20.8964 8.64773 24.2721 5.27208C27.6477 1.89642 32.2261 0 37 0C41.7739 0 46.3523 1.89642 49.7279 5.27208C53.1036 8.64773 55 13.2261 55 18L37 18L19 18Z" fill="#C1ACDC"/>
<path d="M19 36C13.9609 36 9.12816 34.1036 5.56497 30.7279C2.00178 27.3523 0 22.7739 0 18C0 13.2261 2.00178 8.64773 5.56497 5.27208C9.12816 1.89642 13.9609 7.20839e-07 19 0L19 18L19 36Z" fill="#C1ACDC"/>
<path d="M36 36C36 40.7739 34.1036 45.3523 30.7279 48.7279C27.3523 52.1036 22.7739 54 18 54C13.2261 54 8.64773 52.1036 5.27208 48.7279C1.89642 45.3523 7.20839e-07 40.7739 0 36L18 36H36Z" fill="#C1ACDC"/>
<path d="M36 18C41.0391 18 45.8718 19.9491 49.435 23.4185C52.9982 26.8879 55 31.5935 55 36.5C55 41.4065 52.9982 46.1121 49.435 49.5815C45.8718 53.0509 41.0391 55 36 55L36 36.5V18Z" fill="#C1ACDC"/>
</svg>
