<svg width="54" height="56" viewBox="0 0 54 56" fill="none" xmlns="http://www.w3.org/2000/svg">
<mask id="mask0_714_117" style="mask-type:alpha" maskUnits="userSpaceOnUse" x="0" y="0" width="54" height="56">
<rect width="54" height="56" fill="#D9D9D9"/>
</mask>
<g mask="url(#mask0_714_117)">
<path fill-rule="evenodd" clip-rule="evenodd" d="M28.8741 25.6626C28.1251 25.8702 27.3252 26.1266 26.8986 26.7763C26.2832 27.7136 26.7398 28.7054 29.0361 30.0312C36.8636 34.5503 46.8725 31.8685 51.3917 24.041C55.9109 16.2136 53.229 6.20465 45.4015 1.68547C40.9927 -0.859956 41.0409 1.85194 41.1164 6.10502C41.1749 9.40292 41.2499 13.6275 39.2762 17.0461C39.1767 17.2185 39.0728 17.3874 38.9648 17.5529C38.8721 17.7277 38.7758 17.9016 38.676 18.0744C36.4416 21.9445 32.8653 24.5567 28.8741 25.6626Z" fill="#C1ACDC"/>
<path fill-rule="evenodd" clip-rule="evenodd" d="M24.7003 30.3556C25.4495 30.148 26.2497 29.8916 26.6761 29.2416C27.2908 28.3045 26.8339 27.3128 24.5381 25.9874C16.7106 21.4682 6.70171 24.1501 2.18254 31.9775C-2.33665 39.805 0.345238 49.8139 8.17269 54.3331C12.5815 56.8785 12.5333 54.1666 12.4578 49.9135C12.3993 46.6156 12.3243 42.3911 14.298 38.9724C14.3973 38.8005 14.501 38.632 14.6086 38.4668C14.7016 38.2915 14.7982 38.1171 14.8982 37.9439C17.1326 34.0737 20.709 31.4615 24.7003 30.3556Z" fill="#C1ACDC"/>
<path fill-rule="evenodd" clip-rule="evenodd" d="M24.5362 26.7243C24.6289 27.4964 24.7622 28.3263 25.3412 28.8455C26.1752 29.5934 27.2241 29.2903 28.879 27.22C34.5226 20.1602 33.3745 9.86198 26.3146 4.21839C19.2547 -1.4252 8.95655 -0.277068 3.31296 6.78281C0.134216 10.7593 2.82258 11.119 7.03875 11.6832C10.308 12.1206 14.4959 12.681 17.5793 15.1458C17.7324 15.2682 17.8814 15.3942 18.0267 15.5236C18.1881 15.6433 18.348 15.7664 18.5062 15.8929C21.9971 18.6834 24.0425 22.6119 24.5362 26.7243Z" fill="#C1ACDC"/>
<path fill-rule="evenodd" clip-rule="evenodd" d="M49.9341 43.4855C50.6995 43.3488 51.532 43.234 52.1976 43.636C53.1569 44.2152 53.1734 45.3069 51.6763 47.4945C46.5717 54.9534 36.387 56.8619 28.9281 51.7573C21.4692 46.6526 19.5607 36.4679 24.6654 29.009C27.5405 24.8078 28.6695 27.2741 30.44 31.1418C31.8128 34.141 33.5715 37.9828 36.8292 40.2123C36.991 40.323 37.1551 40.4288 37.3214 40.53C37.4829 40.6493 37.6471 40.7662 37.8142 40.8805C41.5023 43.4045 45.8568 44.2139 49.9341 43.4855Z" fill="#C1ACDC"/>
</g>
</svg>
