<svg width="25" height="25" viewBox="0 0 25 25" fill="none" xmlns="http://www.w3.org/2000/svg">
<path d="M12.5027 6.09031C8.95566 6.09031 6.09454 8.95207 6.09454 12.5C6.09454 16.0479 8.95566 18.9096 12.5027 18.9096C16.0499 18.9096 18.911 16.0479 18.911 12.5C18.911 8.95207 16.0499 6.09031 12.5027 6.09031ZM12.5027 16.6671C10.2105 16.6671 8.33659 14.7984 8.33659 12.5C8.33659 10.2017 10.205 8.33287 12.5027 8.33287C14.8006 8.33287 16.669 10.2017 16.669 12.5C16.669 14.7984 14.795 16.6671 12.5027 16.6671ZM20.6679 5.82812C20.6679 6.65932 19.9986 7.32316 19.1731 7.32316C18.3421 7.32316 17.6785 6.65374 17.6785 5.82812C17.6785 5.00251 18.3477 4.33309 19.1731 4.33309C19.9986 4.33309 20.6679 5.00251 20.6679 5.82812ZM24.9121 7.34547C24.8174 5.3428 24.36 3.56884 22.8932 2.10727C21.432 0.64571 19.6584 0.188274 17.6561 0.0878613C15.5926 -0.0292871 9.40741 -0.0292871 7.34384 0.0878613C5.34719 0.182695 3.57362 0.640131 2.1068 2.1017C0.639989 3.56326 0.188232 5.33722 0.0878416 7.3399C-0.0292805 9.40394 -0.0292805 15.5905 0.0878416 17.6545C0.182655 19.6572 0.639989 21.4311 2.1068 22.8927C3.57362 24.3542 5.3416 24.8117 7.34384 24.9121C9.40741 25.0292 15.5926 25.0292 17.6561 24.9121C19.6584 24.8172 21.432 24.3599 22.8932 22.8927C24.3544 21.4311 24.8117 19.6572 24.9121 17.6545C25.0292 15.5905 25.0292 9.40951 24.9121 7.34547ZM22.2462 19.8691C21.8112 20.9626 20.969 21.8049 19.8704 22.2456C18.225 22.8982 14.321 22.7476 12.5027 22.7476C10.6846 22.7476 6.77496 22.8927 5.13525 22.2456C4.04211 21.8105 3.19995 20.9681 2.75934 19.8691C2.1068 18.2235 2.25739 14.3186 2.25739 12.5C2.25739 10.6814 2.11239 6.77089 2.75934 5.13081C3.19436 4.03744 4.03652 3.19507 5.13525 2.75437C6.78054 2.1017 10.6846 2.25231 12.5027 2.25231C14.321 2.25231 18.2306 2.10727 19.8704 2.75437C20.9635 3.1895 21.8056 4.03185 22.2462 5.13081C22.8987 6.77647 22.7481 10.6814 22.7481 12.5C22.7481 14.3186 22.8987 18.2291 22.2462 19.8691Z" fill="#2E2D30"/>
</svg>
