<svg width="25" height="25" viewBox="0 0 25 25" fill="none" xmlns="http://www.w3.org/2000/svg">
<path d="M5.59599 25H0.412946V8.30877H5.59599V25ZM3.00168 6.03194C1.34431 6.03194 0 4.65915 0 3.00174C1.18627e-08 2.20563 0.316247 1.44212 0.87917 0.87919C1.44209 0.316254 2.20557 0 3.00168 0C3.79776 0 4.56125 0.316254 5.12418 0.87919C5.6871 1.44212 6.00335 2.20563 6.00335 3.00174C6.00335 4.65915 4.65849 6.03194 3.00168 6.03194ZM24.9944 25H19.8225V16.8749C19.8225 14.9384 19.7835 12.4551 17.1278 12.4551C14.433 12.4551 14.0201 14.5589 14.0201 16.7353V25H8.84264V8.30877H13.8136V10.5856H13.8861C14.5781 9.2742 16.2684 7.89024 18.7901 7.89024C24.0357 7.89024 25 11.3446 25 15.8313V25H24.9944Z" fill="#2E2D30"/>
</svg>
