<svg width="21" height="25" viewBox="0 0 21 25" fill="none" xmlns="http://www.w3.org/2000/svg">
<mask id="path-1-inside-1_460_352" fill="white">
<path fillRule="evenodd" clipRule="evenodd" d="M19.7813 23.1507C20.8772 22.3267 19.3515 21.2762 18.0381 20.8823C14.6076 19.8535 11.6401 17.369 10.1165 13.8207C8.593 10.2724 8.83519 6.40997 10.4515 3.21411C11.0705 1.99027 11.3591 0.160621 10.0067 0.388173C9.60624 0.455543 9.11501 0.612226 8.51562 0.869589C2.15572 3.60036 -0.786273 10.9698 1.9445 17.3297C4.67527 23.6896 12.0447 26.6316 18.4046 23.9008C19.0045 23.6433 19.4566 23.3948 19.7813 23.1507Z"/>
</mask>
<path fillRule="evenodd" clipRule="evenodd" d="M19.7813 23.1507C20.8772 22.3267 19.3515 21.2762 18.0381 20.8823C14.6076 19.8535 11.6401 17.369 10.1165 13.8207C8.593 10.2724 8.83519 6.40997 10.4515 3.21411C11.0705 1.99027 11.3591 0.160621 10.0067 0.388173C9.60624 0.455543 9.11501 0.612226 8.51562 0.869589C2.15572 3.60036 -0.786273 10.9698 1.9445 17.3297C4.67527 23.6896 12.0447 26.6316 18.4046 23.9008C19.0045 23.6433 19.4566 23.3948 19.7813 23.1507Z" fill="#FFFBFB"/>
<path d="M18.0381 20.8823L18.6127 18.9666L18.0381 20.8823ZM19.7813 23.1507L18.5793 21.5522L19.7813 23.1507ZM18.6127 18.9666C15.7249 18.1006 13.2345 16.0131 11.9543 13.0316L8.27876 14.6098C10.0457 18.725 13.4903 21.6064 17.4635 22.798L18.6127 18.9666ZM11.9543 13.0316C10.6741 10.0502 10.8757 6.80696 12.2362 4.11675L8.6668 2.31147C6.79473 6.01298 6.51186 10.4947 8.27876 14.6098L11.9543 13.0316ZM9.3047 2.70735C9.8266 2.48326 10.1552 2.39128 10.3385 2.36045L9.67481 -1.58411C9.05723 -1.4802 8.40342 -1.2588 7.72653 -0.968167L9.3047 2.70735ZM3.78225 16.5406C1.48728 11.1957 3.95977 5.00232 9.3047 2.70735L7.72653 -0.968167C0.35167 2.1984 -3.05983 10.7439 0.106741 18.1188L3.78225 16.5406ZM17.6155 22.0631C12.2706 24.358 6.07722 21.8856 3.78225 16.5406L0.106741 18.1188C3.27331 25.4937 11.8188 28.9051 19.1937 25.7386L17.6155 22.0631ZM18.5793 21.5522C18.4309 21.6637 18.1379 21.8388 17.6155 22.0631L19.1937 25.7386C19.8711 25.4477 20.4823 25.1259 20.9832 24.7492L18.5793 21.5522ZM12.2362 4.11675C12.6301 3.33804 13.0022 2.23084 12.9672 1.18978C12.9501 0.678651 12.8222 -0.156008 12.1713 -0.828868C11.4261 -1.59927 10.4465 -1.71394 9.67481 -1.58411L10.3385 2.36045C10.3032 2.36639 10.1567 2.38589 9.94592 2.33222C9.71739 2.27403 9.48474 2.147 9.29623 1.95212C8.95231 1.59656 8.96712 1.25314 8.9695 1.32396C8.9704 1.35095 8.96402 1.47771 8.90412 1.69685C8.84767 1.90334 8.76278 2.12169 8.6668 2.31147L12.2362 4.11675ZM17.4635 22.798C17.6672 22.8591 17.884 22.9479 18.0727 23.0492C18.2729 23.1567 18.3693 23.2394 18.3883 23.2587C18.4381 23.3092 18.1789 23.0837 18.1578 22.5896C18.1462 22.3187 18.2142 22.0625 18.3293 21.8565C18.4355 21.6666 18.5506 21.5737 18.5793 21.5522L20.9832 24.7492C21.6087 24.2789 22.1999 23.4893 22.1541 22.4185C22.1141 21.4834 21.5969 20.816 21.2381 20.4518C20.5072 19.7098 19.4483 19.2173 18.6127 18.9666L17.4635 22.798Z" fill="#FFFBFB" mask="url(#path-1-inside-1_460_352)"/>
</svg>
