<svg width="244" height="245" viewBox="0 0 244 245" fill="none" xmlns="http://www.w3.org/2000/svg">
<mask id="mask0_1380_2954" style="mask-type:alpha" maskUnits="userSpaceOnUse" x="0" y="0" width="244" height="245">
<rect width="244" height="245" fill="#D9D9D9"/>
</mask>
<g mask="url(#mask0_1380_2954)">
<circle cx="121.516" cy="121.516" r="69.5857" fill="#E7E2DE" stroke="#2E2D30" stroke-width="1.86"/>
<path d="M155.843 121.516C155.843 140.875 151.918 158.356 145.615 170.962C139.284 183.624 130.71 191.101 121.516 191.101C112.321 191.101 103.747 183.624 97.4164 170.962C91.1132 158.356 87.1878 140.875 87.1878 121.516C87.1878 102.156 91.1132 84.6758 97.4164 72.0695C103.747 59.4075 112.321 51.93 121.516 51.93C130.71 51.93 139.284 59.4075 145.615 72.0695C151.918 84.6758 155.843 102.156 155.843 121.516Z" fill="#E7E2DE" stroke="#2E2D30" stroke-width="1.86"/>
<rect x="120.105" y="51" width="1.88128" height="141.031" fill="#2E2D30"/>
<rect x="51" y="120.105" width="141.031" height="1.88128" fill="#2E2D30"/>
<rect x="62.2832" y="84.1426" width="118.466" height="1.88128" fill="#2E2D30"/>
<rect x="61.6055" y="155.881" width="119.461" height="1.88128" fill="#2E2D30"/>
<circle cx="82.0241" cy="114.465" r="22.3402" fill="#FFFBFB" stroke="#2E2D30" stroke-width="1.86"/>
<mask id="mask1_1380_2954" style="mask-type:alpha" maskUnits="userSpaceOnUse" x="58" y="91" width="48" height="47">
<circle cx="82.0241" cy="114.465" r="22.3402" fill="#FFFBFB" stroke="#2E2D30" stroke-width="1.86"/>
</mask>
<g mask="url(#mask1_1380_2954)">
<circle cx="66.8638" cy="118.343" r="13.7506" fill="#2E2D30"/>
</g>
<mask id="path-11-inside-1_1380_2954" fill="white">
<path d="M105.294 113.759C105.294 110.796 104.692 107.862 103.523 105.124C102.353 102.386 100.639 99.8988 98.4786 97.8035C96.3177 95.7081 93.7524 94.046 90.9292 92.912C88.1059 91.778 85.08 91.1943 82.0241 91.1943C78.9682 91.1943 75.9422 91.778 73.119 92.912C70.2957 94.046 67.7304 95.7081 65.5696 97.8035C63.4087 99.8988 61.6947 102.386 60.5252 105.124C59.3558 107.862 58.7539 110.796 58.7539 113.759L82.0241 113.759H105.294Z"/>
</mask>
<path d="M105.294 113.759C105.294 110.796 104.692 107.862 103.523 105.124C102.353 102.386 100.639 99.8988 98.4786 97.8035C96.3177 95.7081 93.7524 94.046 90.9292 92.912C88.1059 91.778 85.08 91.1943 82.0241 91.1943C78.9682 91.1943 75.9422 91.778 73.119 92.912C70.2957 94.046 67.7304 95.7081 65.5696 97.8035C63.4087 99.8988 61.6947 102.386 60.5252 105.124C59.3558 107.862 58.7539 110.796 58.7539 113.759L82.0241 113.759H105.294Z" fill="#E7E2DE" stroke="#2E2D30" stroke-width="3.72" mask="url(#path-11-inside-1_1380_2954)"/>
<circle cx="121.516" cy="114.465" r="22.3402" fill="#FFFBFB" stroke="#2E2D30" stroke-width="1.86"/>
<mask id="mask2_1380_2954" style="mask-type:alpha" maskUnits="userSpaceOnUse" x="98" y="91" width="47" height="47">
<circle cx="121.516" cy="114.465" r="22.3402" fill="#FFFBFB" stroke="#2E2D30" stroke-width="1.86"/>
</mask>
<g mask="url(#mask2_1380_2954)">
<circle cx="106.356" cy="118.342" r="13.7506" fill="#2E2D30"/>
</g>
<mask id="path-15-inside-2_1380_2954" fill="white">
<path d="M144.786 113.759C144.786 110.796 144.185 107.862 143.015 105.124C141.846 102.386 140.132 99.8988 137.971 97.8035C135.81 95.7081 133.245 94.046 130.421 92.912C127.598 91.778 124.572 91.1943 121.516 91.1943C118.46 91.1943 115.434 91.778 112.611 92.912C109.788 94.046 107.223 95.7081 105.062 97.8035C102.901 99.8988 101.187 102.386 100.017 105.124C98.848 107.862 98.2461 110.796 98.2461 113.759L121.516 113.759H144.786Z"/>
</mask>
<path d="M144.786 113.759C144.786 110.796 144.185 107.862 143.015 105.124C141.846 102.386 140.132 99.8988 137.971 97.8035C135.81 95.7081 133.245 94.046 130.421 92.912C127.598 91.778 124.572 91.1943 121.516 91.1943C118.46 91.1943 115.434 91.778 112.611 92.912C109.788 94.046 107.223 95.7081 105.062 97.8035C102.901 99.8988 101.187 102.386 100.017 105.124C98.848 107.862 98.2461 110.796 98.2461 113.759L121.516 113.759H144.786Z" fill="#E7E2DE" stroke="#2E2D30" stroke-width="3.72" mask="url(#path-15-inside-2_1380_2954)"/>
<path d="M132.06 148.975C132.609 152.428 131.478 155.392 128.952 157.73C126.394 160.099 122.367 161.85 117.142 162.68C111.918 163.51 107.09 163.166 103.466 161.749C99.8617 160.34 97.5214 157.914 96.9864 154.546C96.7127 152.823 97.0861 152.063 97.6083 151.643C98.2403 151.133 99.3679 150.868 101.143 150.788C102.289 150.736 103.574 150.762 105.007 150.791C105.762 150.807 106.558 150.823 107.396 150.829C109.788 150.846 112.441 150.778 115.182 150.342C117.925 149.907 120.363 149.166 122.477 148.431C123.318 148.139 124.091 147.855 124.807 147.591C125.931 147.177 126.917 146.814 127.82 146.549C129.319 146.108 130.21 146.068 130.769 146.334C131.249 146.563 131.775 147.178 132.06 148.975Z" fill="#FFFBFB" stroke="#2E2D30" stroke-width="1.86"/>
<line x1="118.975" y1="149.297" x2="118.975" y2="162.936" stroke="#2E2D30" stroke-width="1.86"/>
<line x1="118.975" y1="149.297" x2="118.975" y2="162.936" stroke="#2E2D30" stroke-width="1.86"/>
<line x1="118.975" y1="149.297" x2="118.975" y2="162.936" stroke="#2E2D30" stroke-width="1.86"/>
<line x1="108.344" y1="150.427" x2="108.344" y2="163.12" stroke="#2E2D30" stroke-width="1.86"/>
<line x1="108.344" y1="150.427" x2="108.344" y2="163.12" stroke="#2E2D30" stroke-width="1.86"/>
<line x1="108.344" y1="150.427" x2="108.344" y2="163.12" stroke="#2E2D30" stroke-width="1.86"/>
<path d="M133.502 141.965C134.325 142.2 136.111 143.516 136.675 146.901" stroke="#2E2D30" stroke-width="1.86" stroke-linecap="round"/>
<circle cx="75.011" cy="116.14" r="2.11644" fill="#FFFBFB"/>
<circle cx="77.5969" cy="119.197" r="0.94064" fill="#FFFBFB"/>
<circle cx="117.105" cy="119.197" r="0.94064" fill="#FFFBFB"/>
<circle cx="114.048" cy="116.14" r="2.11644" fill="#FFFBFB"/>
</g>
</svg>
