<svg width="244" height="245" viewBox="0 0 244 245" fill="none" xmlns="http://www.w3.org/2000/svg">
<mask id="mask0_1380_2954" style="mask-type:alpha" maskUnits="userSpaceOnUse" x="0" y="0" width="244" height="245">
<rect width="244" height="245" fill="#D9D9D9"/>
</mask>
<g mask="url(#mask0_1380_2954)">
<circle cx="122" cy="122" r="122" fill="#2E2D30"/>
<circle cx="122.112" cy="122.112" r="112.182" stroke="#FFFBFB" stroke-width="1.86"/>
<path d="M53.0525 165.035L55.9767 170.726L56.1132 170.992L56.3789 171.128L62.0701 174.053L56.3789 176.977L56.1132 177.113L55.9767 177.379L53.0525 183.07L50.1284 177.379L49.9919 177.113L49.7262 176.977L44.035 174.053L49.7262 171.128L49.9919 170.992L50.1284 170.726L53.0525 165.035Z" fill="#FFFBFB" stroke="#2E2D30" stroke-width="1.86"/>
<path d="M166.053 37.035L168.977 42.7262L169.113 42.9919L169.379 43.1284L175.07 46.0525L169.379 48.9767L169.113 49.1132L168.977 49.3789L166.053 55.0701L163.128 49.3789L162.992 49.1132L162.726 48.9767L157.035 46.0525L162.726 43.1284L162.992 42.9919L163.128 42.7262L166.053 37.035Z" fill="#FFFBFB" stroke="#2E2D30" stroke-width="1.86"/>
</g>
<path d="M42.6516 137.767L28.9743 139.274L27.4503 125.437L30.8498 125.063L31.8329 133.989L34.139 133.735L33.2784 125.922L36.6779 125.548L37.5384 133.36L42.1108 132.857L42.6516 137.767Z" fill="#FFFBFB"/>
<path d="M40.8399 121.28L27.1711 119.699L28.5409 107.858C28.6589 106.838 28.9689 106.015 29.4709 105.388C29.9744 104.748 30.5904 104.296 31.319 104.032C32.0476 103.767 32.8092 103.681 33.6039 103.772C34.5178 103.878 35.3086 104.178 35.9764 104.671C36.6324 105.15 37.1271 105.804 37.4606 106.635L42.7797 104.512L42.1385 110.055L37.6279 111.627L37.1361 115.879L41.4076 116.373L40.8399 121.28ZM33.7387 115.486L34.3409 110.28C34.3838 109.909 34.3073 109.585 34.1112 109.307C33.9019 109.028 33.592 108.865 33.1814 108.817C32.9032 108.785 32.6645 108.818 32.4653 108.916C32.2529 109.012 32.0888 109.154 31.9731 109.342C31.8457 109.515 31.7674 109.728 31.7383 109.979L31.1361 115.184L33.7387 115.486Z" fill="#FFFBFB"/>
<path d="M46.4255 94.1264C45.7497 95.8807 44.8974 97.2956 43.8687 98.371C42.84 99.4464 41.7 100.143 40.4487 100.461C39.1849 100.775 37.8625 100.665 36.4814 100.133C35.1004 99.6012 34.0464 98.795 33.3194 97.7148C32.5925 96.6346 32.2146 95.3531 32.1857 93.8703C32.1444 92.3827 32.4616 90.7617 33.1374 89.0073C33.8181 87.2406 34.6703 85.8257 35.6942 84.7627C36.7105 83.6825 37.8505 82.9857 39.1143 82.6724C40.3781 82.3591 41.7005 82.4685 43.0815 83.0005C44.4626 83.5326 45.5166 84.3387 46.2436 85.4189C46.9581 86.4943 47.336 87.7758 47.3773 89.2635C47.4234 90.7386 47.1061 92.3596 46.4255 94.1264ZM43.2341 92.897C43.4594 92.3122 43.5885 91.7546 43.6213 91.2243C43.6417 90.6892 43.5735 90.1986 43.4168 89.7524C43.2476 89.3014 42.9975 88.9122 42.6664 88.5846C42.3354 88.257 41.9335 88.0022 41.4607 87.82L41.0127 87.6475C40.5399 87.4653 40.0771 87.3871 39.6243 87.4127C39.1591 87.4335 38.7187 87.5567 38.3031 87.7824C37.8875 88.0081 37.514 88.3286 37.1826 88.7439C36.8387 89.1544 36.5541 89.652 36.3288 90.2368C36.1035 90.8216 35.9807 91.3815 35.9603 91.9166C35.9275 92.4469 35.9894 92.9352 36.1462 93.3813C36.303 93.8275 36.5468 94.2144 36.8779 94.542C37.1965 94.8647 37.5922 95.1172 38.065 95.2993L38.5129 95.4719C38.9857 95.654 39.4547 95.7347 39.92 95.7139C40.3852 95.6931 40.8318 95.5722 41.2599 95.3513C41.6755 95.1256 42.0552 94.8075 42.3991 94.397C42.7305 93.9818 43.0089 93.4817 43.2341 92.897Z" fill="#FFFBFB"/>
<path d="M50.9119 82.3305L39.7637 74.2648L42.2842 70.781L50.9206 68.6363C51.0215 68.6106 51.169 68.5774 51.363 68.5367C51.557 68.496 51.7603 68.4538 51.9729 68.4102C52.1855 68.3665 52.3795 68.3259 52.5549 68.2882L52.6721 68.1261C52.5209 68.0167 52.321 67.8721 52.0726 67.6924C51.8133 67.5048 51.5649 67.325 51.3272 67.1531L47.1142 64.105L49.834 60.3457L60.9822 68.4114L58.4852 71.8628L50.3073 73.9196C49.9595 74.0136 49.5784 74.1082 49.164 74.2033C48.7574 74.2876 48.4292 74.3546 48.1793 74.4042L48.0738 74.5501C48.225 74.6595 48.4411 74.8158 48.7219 75.019C48.992 75.2144 49.2675 75.4137 49.5483 75.6169L53.6317 78.5712L50.9119 82.3305Z" fill="#FFFBFB"/>
<path d="M67.4561 62.1464L61.0324 54.5085L56.563 58.2675L54.13 55.3746L66.8495 44.677L69.2825 47.5699L64.8131 51.3289L71.2368 58.9667L67.4561 62.1464Z" fill="#FFFBFB"/>
<path d="M78.0288 53.5196L71.8339 41.233L84.9599 34.6149L86.4996 37.6687L77.8025 42.0537L78.6039 43.6431L86.1045 39.8614L87.5631 42.7544L80.0626 46.5362L80.918 48.2328L89.7579 43.7757L91.2976 46.8295L78.0288 53.5196Z" fill="#FFFBFB"/>
<path d="M94.4496 45.2535L91.4262 31.8297L95.6212 30.8849L103.516 34.9905C103.609 35.038 103.741 35.1106 103.914 35.2085C104.086 35.3063 104.267 35.4092 104.455 35.5172C104.643 35.6251 104.816 35.7229 104.972 35.8107L105.167 35.7668C105.126 35.5847 105.072 35.344 105.005 35.0448C104.934 34.7327 104.867 34.4335 104.802 34.1473L103.66 29.0744L108.186 28.0549L111.21 41.4786L107.054 42.4146L99.5609 38.5465C99.2379 38.3869 98.8896 38.2057 98.5159 38.0028C98.1552 37.7971 97.8647 37.6301 97.6445 37.5021L97.4689 37.5416C97.51 37.7237 97.5686 37.9839 97.6447 38.3221C97.718 38.6472 97.7927 38.9789 97.8688 39.3171L98.9763 44.234L94.4496 45.2535Z" fill="#FFFBFB"/>
<path d="M115.63 40.8349L116.069 27.0819L124.065 27.3371C125.77 27.3915 127.234 27.705 128.457 28.2776C129.679 28.8502 130.607 29.6602 131.241 30.7077C131.874 31.7551 132.168 33.0117 132.121 34.4776C132.074 35.9436 131.701 37.179 131.002 38.1839C130.303 39.1887 129.325 39.9379 128.069 40.4314C126.813 40.925 125.332 41.1445 123.626 41.0901L115.63 40.8349ZM120.676 37.5742L123.435 37.6622C123.981 37.6797 124.47 37.6152 124.902 37.4689C125.333 37.3226 125.707 37.1144 126.022 36.8443C126.338 36.5609 126.582 36.2286 126.755 35.8472C126.927 35.4525 127.021 35.0153 127.036 34.5355L127.052 34.0558C127.067 33.576 127.001 33.1403 126.853 32.7488C126.706 32.3572 126.483 32.0166 126.186 31.7269C125.888 31.424 125.529 31.1924 125.107 31.0322C124.686 30.8587 124.202 30.7632 123.656 30.7458L120.897 30.6577L120.676 37.5742Z" fill="#FFFBFB"/>
<path d="M188.326 75.2464L200.419 68.6819L204.236 75.7128C205.05 77.2127 205.518 78.6348 205.641 79.9791C205.764 81.3233 205.533 82.5333 204.949 83.609C204.365 84.6847 203.428 85.5724 202.139 86.2721C200.85 86.9718 199.596 87.2736 198.375 87.1775C197.155 87.0813 196.015 86.6156 194.954 85.7803C193.894 84.9449 192.957 83.7773 192.143 82.2773L188.326 75.2464ZM193.688 77.9564L195.005 80.3821C195.266 80.8625 195.568 81.2521 195.913 81.5507C196.257 81.8494 196.625 82.0667 197.017 82.2026C197.422 82.3322 197.832 82.3751 198.248 82.3312C198.676 82.281 199.101 82.1414 199.522 81.9124L199.944 81.6834C200.366 81.4544 200.709 81.1774 200.972 80.8523C201.236 80.5272 201.417 80.1631 201.517 79.76C201.629 79.3505 201.647 78.9233 201.572 78.4784C201.51 78.0271 201.348 77.5612 201.087 77.0807L199.77 74.6551L193.688 77.9564Z" fill="#FFFBFB"/>
<path d="M197.338 92.304L210.621 88.7137L214.457 102.905L211.155 103.797L208.614 94.3943L206.895 94.8587L209.087 102.968L205.959 103.813L203.768 95.7041L201.933 96.1998L204.517 105.757L201.215 106.649L197.338 92.304Z" fill="#FFFBFB"/>
<path d="M202.263 116.017L215.849 108.971L215.988 114.45L210.274 117.115C210.076 117.213 209.786 117.341 209.403 117.497C209.034 117.653 208.638 117.817 208.215 117.987C207.806 118.158 207.43 118.307 207.086 118.436L207.09 118.576C207.399 118.675 207.755 118.793 208.159 118.929C208.562 119.066 208.959 119.202 209.35 119.339C209.74 119.489 210.07 119.621 210.34 119.734L216.183 122.147L216.316 127.405L202.391 121.056L202.263 116.017Z" fill="#FFFBFB"/>
<path d="M202.426 129.844L215.887 132.697L212.839 147.077L209.494 146.368L211.513 136.84L209.772 136.471L208.03 144.688L204.861 144.017L206.602 135.799L204.743 135.405L202.691 145.09L199.345 144.381L202.426 129.844Z" fill="#FFFBFB"/>
<path d="M198.342 147.886L210.871 153.575L208.829 158.073L199.742 153.947L196.054 162.069L192.612 160.506L198.342 147.886Z" fill="#FFFBFB"/>
<path d="M186.239 169.554C187.391 168.068 188.613 166.958 189.908 166.223C191.202 165.488 192.494 165.148 193.784 165.203C195.084 165.266 196.32 165.751 197.49 166.657C198.66 167.563 199.438 168.638 199.824 169.882C200.21 171.125 200.204 172.461 199.806 173.89C199.418 175.327 198.648 176.788 197.497 178.274C196.338 179.771 195.115 180.882 193.829 181.606C192.545 182.349 191.253 182.688 189.952 182.626C188.652 182.563 187.417 182.078 186.247 181.172C185.077 180.265 184.299 179.191 183.913 177.947C183.537 176.712 183.543 175.376 183.931 173.939C184.31 172.513 185.08 171.051 186.239 169.554ZM188.943 171.649C188.559 172.144 188.276 172.641 188.092 173.139C187.919 173.646 187.843 174.136 187.865 174.608C187.897 175.089 188.025 175.533 188.248 175.942C188.471 176.351 188.783 176.711 189.184 177.021L189.563 177.315C189.964 177.625 190.384 177.833 190.825 177.939C191.277 178.052 191.734 178.061 192.197 177.964C192.66 177.867 193.11 177.667 193.547 177.365C193.994 177.07 194.41 176.675 194.793 176.18C195.177 175.685 195.456 175.184 195.629 174.677C195.813 174.178 195.893 173.693 195.871 173.22C195.849 172.748 195.727 172.307 195.504 171.899C195.292 171.498 194.985 171.142 194.584 170.832L194.205 170.538C193.804 170.228 193.378 170.016 192.927 169.902C192.475 169.789 192.013 169.776 191.539 169.865C191.076 169.962 190.621 170.157 190.174 170.452C189.737 170.754 189.327 171.153 188.943 171.649Z" fill="#FFFBFB"/>
<path d="M178.493 179.423L187.074 190.18L178.428 197.077C177.719 197.642 176.965 197.98 176.165 198.089C175.374 198.208 174.598 198.102 173.839 197.77C173.087 197.448 172.416 196.917 171.826 196.177C171.219 195.417 170.843 194.625 170.699 193.802C170.544 192.988 170.612 192.208 170.905 191.463C171.198 190.718 171.693 190.067 172.391 189.51L177.176 185.693L174.631 182.504L178.493 179.423ZM179.308 188.367L175.603 191.323C175.207 191.639 174.99 191.965 174.952 192.302C174.904 192.648 175.025 193.003 175.316 193.368C175.515 193.618 175.724 193.784 175.943 193.866C176.159 193.966 176.389 193.987 176.633 193.929C176.866 193.879 177.113 193.751 177.374 193.543L181.079 190.587L179.308 188.367Z" fill="#FFFBFB"/>
<path d="M165.059 190.568L170.591 203.167L163.485 206.286L159.903 202.355C159.692 202.141 159.464 201.885 159.216 201.586C158.973 201.299 158.734 201.004 158.499 200.7C158.256 200.413 158.051 200.161 157.883 199.943L157.755 200C157.796 200.258 157.843 200.565 157.897 200.92C157.938 201.281 157.986 201.653 158.038 202.038C158.083 202.44 158.119 202.803 158.145 203.127L158.614 208.425L151.729 211.448L146.197 198.849L150.72 196.863L153.132 202.357C153.266 202.662 153.414 202.998 153.575 203.364C153.723 203.736 153.869 204.101 154.012 204.461C154.155 204.82 154.283 205.128 154.396 205.384L154.542 205.32C154.505 205.002 154.464 204.626 154.42 204.194C154.369 203.78 154.324 203.363 154.285 202.943C154.24 202.54 154.209 202.19 154.194 201.89L153.76 195.528L157.771 193.768L162.161 198.393C162.466 198.725 162.769 199.05 163.07 199.37C163.364 199.707 163.629 200.013 163.866 200.287C164.108 200.574 164.303 200.802 164.45 200.97L164.596 200.906C164.498 200.716 164.377 200.456 164.232 200.126C164.081 199.814 163.919 199.463 163.747 199.072C163.569 198.699 163.394 198.317 163.223 197.927L160.811 192.433L165.059 190.568Z" fill="#FFFBFB"/>
<path d="M142.253 199.946L144.285 213.555L129.746 215.726L129.241 212.344L138.874 210.905L138.612 209.145L130.304 210.385L129.825 207.181L138.133 205.94L137.852 204.061L128.061 205.523L127.556 202.141L142.253 199.946Z" fill="#FFFBFB"/>
<path d="M124.371 202.737L123.048 216.433L118.768 216.02L112.551 209.652C112.478 209.578 112.375 209.468 112.242 209.321C112.109 209.174 111.969 209.02 111.824 208.859C111.679 208.697 111.546 208.551 111.425 208.418L111.226 208.399C111.208 208.585 111.184 208.83 111.155 209.136C111.124 209.454 111.094 209.759 111.066 210.051L110.566 215.227L105.948 214.781L107.271 201.085L111.511 201.495L117.42 207.511C117.677 207.763 117.951 208.044 118.243 208.354C118.521 208.662 118.745 208.911 118.914 209.102L119.093 209.119C119.111 208.933 119.137 208.668 119.17 208.323C119.202 207.991 119.235 207.652 119.268 207.307L119.753 202.291L124.371 202.737Z" fill="#FFFBFB"/>
<path d="M98.2208 198.654L94.8391 208.043L100.334 210.022L99.0528 213.579L83.416 207.947L84.6969 204.391L90.1914 206.369L93.5731 196.98L98.2208 198.654Z" fill="#FFFBFB"/>
</svg>
