<svg width="245" height="246" viewBox="0 0 245 246" fill="none" xmlns="http://www.w3.org/2000/svg">
<mask id="mask0_1366_295" style="mask-type:alpha" maskUnits="userSpaceOnUse" x="0" y="0" width="245" height="246">
<rect x="0.316406" y="0.21875" width="244" height="245" fill="#D9D9D9"/>
</mask>
<g mask="url(#mask0_1366_295)">
<circle cx="122.545" cy="122.546" r="122" fill="#2E2D30"/>
<circle cx="122.124" cy="122.594" r="112.182" stroke="#FFFBFB" stroke-width="1.86"/>
<path d="M51.1033 162.49L54.0274 168.181L54.164 168.447L54.4296 168.583L60.1208 171.508L54.4296 174.432L54.164 174.568L54.0274 174.834L51.1033 180.525L48.1792 174.834L48.0426 174.568L47.777 174.432L42.0858 171.508L47.777 168.583L48.0426 168.447L48.1792 168.181L51.1033 162.49Z" fill="#FFFBFB" stroke="#2E2D30" stroke-width="1.86"/>
<path d="M170.095 39.2664L173.02 44.9576L173.156 45.2233L173.422 45.3598L179.113 48.284L173.422 51.2081L173.156 51.3446L173.02 51.6103L170.095 57.3015L167.171 51.6103L167.035 51.3446L166.769 51.2081L161.078 48.284L166.769 45.3598L167.035 45.2233L167.171 44.9576L170.095 39.2664Z" fill="#FFFBFB" stroke="#2E2D30" stroke-width="1.86"/>
<circle cx="121.856" cy="119.034" r="69.5857" fill="#E7E2DE" stroke="#2E2D30" stroke-width="1.86"/>
<path d="M156.183 119.034C156.183 138.394 152.258 155.874 145.955 168.48C139.624 181.142 131.05 188.62 121.855 188.62C112.661 188.62 104.087 181.142 97.7563 168.48C91.4531 155.874 87.5277 138.394 87.5277 119.034C87.5277 99.6749 91.4531 82.1944 97.7563 69.588C104.087 56.9261 112.661 49.4486 121.855 49.4486C131.05 49.4486 139.624 56.9261 145.955 69.588C152.258 82.1944 156.183 99.6749 156.183 119.034Z" fill="#E7E2DE" stroke="#2E2D30" stroke-width="1.86"/>
<rect x="120.445" y="48.5186" width="1.88128" height="141.031" fill="#2E2D30"/>
<rect x="51.3398" y="117.624" width="141.031" height="1.88128" fill="#2E2D30"/>
<rect x="62.623" y="81.6611" width="118.466" height="1.88128" fill="#2E2D30"/>
<rect x="61.9453" y="153.399" width="119.461" height="1.88128" fill="#2E2D30"/>
<circle cx="82.3639" cy="111.983" r="22.3402" fill="#FFFBFB" stroke="#2E2D30" stroke-width="1.86"/>
<mask id="mask1_1366_295" style="mask-type:alpha" maskUnits="userSpaceOnUse" x="59" y="88" width="47" height="48">
<circle cx="82.3639" cy="111.983" r="22.3402" fill="#FFFBFB" stroke="#2E2D30" stroke-width="1.86"/>
</mask>
<g mask="url(#mask1_1366_295)">
<circle cx="67.2037" cy="115.862" r="13.7506" fill="#2E2D30"/>
</g>
<mask id="path-15-inside-1_1366_295" fill="white">
<path d="M105.634 111.278C105.634 108.315 105.032 105.38 103.863 102.643C102.693 99.9049 100.979 97.4174 98.8184 95.322C96.6576 93.2267 94.0923 91.5645 91.269 90.4305C88.4458 89.2966 85.4198 88.7129 82.3639 88.7129C79.308 88.7129 76.2821 89.2966 73.4588 90.4306C70.6355 91.5645 68.0703 93.2267 65.9094 95.322C63.7486 97.4174 62.0345 99.9049 60.8651 102.643C59.6957 105.38 59.0937 108.315 59.0938 111.278L82.3639 111.278H105.634Z"/>
</mask>
<path d="M105.634 111.278C105.634 108.315 105.032 105.38 103.863 102.643C102.693 99.9049 100.979 97.4174 98.8184 95.322C96.6576 93.2267 94.0923 91.5645 91.269 90.4305C88.4458 89.2966 85.4198 88.7129 82.3639 88.7129C79.308 88.7129 76.2821 89.2966 73.4588 90.4306C70.6355 91.5645 68.0703 93.2267 65.9094 95.322C63.7486 97.4174 62.0345 99.9049 60.8651 102.643C59.6957 105.38 59.0937 108.315 59.0938 111.278L82.3639 111.278H105.634Z" fill="#E7E2DE" stroke="#2E2D30" stroke-width="3.72" mask="url(#path-15-inside-1_1366_295)"/>
<circle cx="121.856" cy="111.983" r="22.3402" fill="#FFFBFB" stroke="#2E2D30" stroke-width="1.86"/>
<mask id="mask2_1366_295" style="mask-type:alpha" maskUnits="userSpaceOnUse" x="98" y="88" width="48" height="48">
<circle cx="121.856" cy="111.983" r="22.3402" fill="#FFFBFB" stroke="#2E2D30" stroke-width="1.86"/>
</mask>
<g mask="url(#mask2_1366_295)">
<circle cx="106.696" cy="115.861" r="13.7506" fill="#2E2D30"/>
</g>
<mask id="path-19-inside-2_1366_295" fill="white">
<path d="M145.126 111.278C145.126 108.315 144.524 105.38 143.355 102.643C142.186 99.9049 140.471 97.4174 138.311 95.322C136.15 93.2267 133.584 91.5645 130.761 90.4305C127.938 89.2966 124.912 88.7129 121.856 88.7129C118.8 88.7129 115.774 89.2966 112.951 90.4306C110.128 91.5645 107.562 93.2267 105.402 95.322C103.241 97.4174 101.527 99.9049 100.357 102.643C99.1878 105.38 98.5859 108.315 98.5859 111.278L121.856 111.278H145.126Z"/>
</mask>
<path d="M145.126 111.278C145.126 108.315 144.524 105.38 143.355 102.643C142.186 99.9049 140.471 97.4174 138.311 95.322C136.15 93.2267 133.584 91.5645 130.761 90.4305C127.938 89.2966 124.912 88.7129 121.856 88.7129C118.8 88.7129 115.774 89.2966 112.951 90.4306C110.128 91.5645 107.562 93.2267 105.402 95.322C103.241 97.4174 101.527 99.9049 100.357 102.643C99.1878 105.38 98.5859 108.315 98.5859 111.278L121.856 111.278H145.126Z" fill="#E7E2DE" stroke="#2E2D30" stroke-width="3.72" mask="url(#path-19-inside-2_1366_295)"/>
<path d="M132.4 146.493C132.948 149.947 131.818 152.911 129.292 155.249C126.733 157.618 122.707 159.369 117.482 160.199C112.258 161.028 107.43 160.684 103.806 159.268C100.202 157.859 97.8612 155.432 97.3263 152.065C97.0526 150.342 97.426 149.582 97.9482 149.161C98.5801 148.652 99.7077 148.387 101.483 148.307C102.629 148.255 103.914 148.281 105.347 148.31C106.102 148.325 106.897 148.341 107.736 148.348C110.128 148.365 112.781 148.296 115.522 147.861C118.265 147.425 120.703 146.685 122.817 145.95C123.658 145.658 124.43 145.373 125.147 145.109C126.27 144.696 127.257 144.332 128.16 144.067C129.659 143.627 130.55 143.587 131.109 143.853C131.589 144.082 132.114 144.696 132.4 146.493Z" fill="#FFFBFB" stroke="#2E2D30" stroke-width="1.86"/>
<line x1="119.315" y1="146.815" x2="119.315" y2="160.455" stroke="#2E2D30" stroke-width="1.86"/>
<line x1="119.315" y1="146.815" x2="119.315" y2="160.455" stroke="#2E2D30" stroke-width="1.86"/>
<line x1="119.315" y1="146.815" x2="119.315" y2="160.455" stroke="#2E2D30" stroke-width="1.86"/>
<line x1="108.684" y1="147.945" x2="108.684" y2="160.638" stroke="#2E2D30" stroke-width="1.86"/>
<line x1="108.684" y1="147.945" x2="108.684" y2="160.638" stroke="#2E2D30" stroke-width="1.86"/>
<line x1="108.684" y1="147.945" x2="108.684" y2="160.638" stroke="#2E2D30" stroke-width="1.86"/>
<path d="M133.842 139.483C134.664 139.718 136.451 141.035 137.015 144.419" stroke="#2E2D30" stroke-width="1.86" stroke-linecap="round"/>
<circle cx="75.3508" cy="113.658" r="2.11644" fill="#FFFBFB"/>
<circle cx="77.9367" cy="116.715" r="0.94064" fill="#FFFBFB"/>
<circle cx="117.445" cy="116.715" r="0.94064" fill="#FFFBFB"/>
<circle cx="114.388" cy="113.658" r="2.11644" fill="#FFFBFB"/>
<path d="M43.3346 140.055L29.7313 142.126L27.6363 128.365L31.0173 127.85L32.3689 136.728L34.6624 136.378L33.4795 128.608L36.8605 128.093L38.0435 135.864L42.5911 135.171L43.3346 140.055Z" fill="#FFFBFB"/>
<path d="M40.5962 122.589L26.9008 121.257L28.0547 109.393C28.1541 108.371 28.449 107.542 28.9395 106.907C29.4312 106.258 30.039 105.795 30.7626 105.517C31.4862 105.239 32.2462 105.139 33.0424 105.216C33.9581 105.305 34.7542 105.59 35.4308 106.071C36.0955 106.538 36.602 107.183 36.9506 108.008L42.2302 105.788L41.69 111.342L37.2089 112.996L36.7946 117.256L41.0744 117.672L40.5962 122.589ZM33.3907 116.925L33.8979 111.709C33.934 111.338 33.8515 111.015 33.6505 110.741C33.4361 110.466 33.1232 110.308 32.7119 110.268C32.4332 110.241 32.1951 110.278 31.9977 110.379C31.787 110.479 31.6256 110.624 31.5133 110.814C31.3891 110.99 31.3147 111.204 31.2902 111.456L30.783 116.671L33.3907 116.925Z" fill="#FFFBFB"/>
<path d="M46.1735 93.1153C45.4853 94.8648 44.623 96.2736 43.5867 97.3417C42.5504 98.4098 41.4055 99.0985 40.152 99.4077C38.886 99.712 37.5644 99.5933 36.1871 99.0515C34.8099 98.5097 33.7616 97.6961 33.0423 96.6108C32.3231 95.5255 31.9542 94.2413 31.9359 92.7583C31.9051 91.2704 32.2338 89.6517 32.9221 87.9022C33.6152 86.1403 34.4775 84.7315 35.5089 83.6758C36.5328 82.6028 37.6777 81.9142 38.9437 81.6098C40.2096 81.3055 41.5312 81.4242 42.9085 81.966C44.2858 82.5078 45.334 83.3214 46.0533 84.4067C46.7602 85.4872 47.129 86.7714 47.1598 88.2592C47.1954 89.7347 46.8667 91.3534 46.1735 93.1153ZM42.991 91.8633C43.2204 91.2801 43.3534 90.7235 43.39 90.1934C43.4142 89.6585 43.3495 89.1674 43.1959 88.7201C43.0299 88.2679 42.7825 87.8769 42.4538 87.547C42.1251 87.2171 41.725 86.9594 41.2535 86.7739L40.8068 86.5982C40.3353 86.4127 39.8731 86.3312 39.4201 86.3536C38.9547 86.3711 38.5135 86.4912 38.0963 86.7139C37.6791 86.9367 37.3033 87.2545 36.969 87.6674C36.6222 88.0755 36.3341 88.5711 36.1047 89.1542C35.8753 89.7374 35.7485 90.2965 35.7243 90.8314C35.6877 91.3615 35.7462 91.8501 35.8998 92.2974C36.0533 92.7447 36.2945 93.1333 36.6232 93.4632C36.9395 93.7882 37.3334 94.0435 37.8049 94.229L38.2516 94.4047C38.7231 94.5902 39.1915 94.6742 39.6569 94.6566C40.1223 94.6391 40.5698 94.5214 40.9993 94.3036C41.4165 94.0808 41.7985 93.7655 42.1453 93.3574C42.4797 92.9445 42.7615 92.4465 42.991 91.8633Z" fill="#FFFBFB"/>
<path d="M51.3388 79.8775L40.4264 71.4956L43.0457 68.0854L51.7401 66.1892C51.8417 66.1664 51.99 66.1374 52.1851 66.1023C52.3802 66.0672 52.5846 66.0309 52.7984 65.9933C53.0122 65.9558 53.2073 65.9207 53.3837 65.8881L53.5055 65.7295C53.3574 65.6157 53.1618 65.4655 52.9186 65.2787C52.6648 65.0838 52.4216 64.8969 52.189 64.7183L48.0651 61.5507L50.8916 57.8709L61.804 66.2528L59.209 69.6312L50.9756 71.4528C50.6252 71.5367 50.2416 71.6203 49.8246 71.7036C49.4157 71.7762 49.0857 71.8337 48.8346 71.8762L48.7249 72.0189C48.8729 72.1326 49.0844 72.2951 49.3593 72.5063C49.6237 72.7093 49.8933 72.9164 50.1683 73.1276L54.1652 76.1977L51.3388 79.8775Z" fill="#FFFBFB"/>
<path d="M69.4554 59.0565L63.409 51.1167L58.7628 54.6549L56.4727 51.6476L69.6951 41.5782L71.9853 44.5855L67.3391 48.1237L73.3856 56.0635L69.4554 59.0565Z" fill="#FFFBFB"/>
<path d="M81.7137 50.0711L76.289 37.4255L89.7983 31.6302L91.1467 34.7732L82.1955 38.6131L82.8973 40.2489L90.6169 36.9373L91.8943 39.9149L84.1746 43.2265L84.9237 44.9726L94.0219 41.0696L95.3702 44.2126L81.7137 50.0711Z" fill="#FFFBFB"/>
<path d="M99.8038 42.3454L97.8792 28.7207L102.137 28.1193L109.673 32.8518C109.761 32.9066 109.888 32.9898 110.052 33.1013C110.215 33.2128 110.387 33.33 110.566 33.4528C110.745 33.5756 110.909 33.6872 111.057 33.7873L111.255 33.7594C111.229 33.5745 111.195 33.3303 111.152 33.0266C111.107 32.7098 111.064 32.4061 111.023 32.1157L110.296 26.9668L114.89 26.3178L116.815 39.9426L112.597 40.5384L105.442 36.0752C105.133 35.8899 104.801 35.681 104.445 35.4485C104.102 35.2142 103.826 35.0242 103.617 34.8787L103.439 34.9039C103.465 35.0887 103.502 35.3528 103.551 35.696C103.597 36.0261 103.645 36.3627 103.693 36.706L104.398 41.6965L99.8038 42.3454Z" fill="#FFFBFB"/>
<path d="M122.453 39.466L124.265 25.8259L132.195 26.8793C133.887 27.104 135.312 27.5624 136.471 28.2544C137.63 28.9463 138.472 29.8451 138.998 30.9506C139.524 32.0561 139.69 33.3358 139.497 34.7897C139.304 36.2436 138.809 37.4355 138.013 38.3654C137.217 39.2954 136.169 39.9431 134.87 40.3085C133.57 40.6739 132.075 40.7442 130.383 40.5195L122.453 39.466ZM127.8 36.7263L130.536 37.0898C131.078 37.1617 131.571 37.1465 132.015 37.0441C132.459 36.9417 132.851 36.7719 133.192 36.5347C133.535 36.2843 133.811 35.978 134.02 35.6157C134.232 35.2403 134.369 34.8147 134.432 34.3388L134.495 33.863C134.559 33.3872 134.536 32.9471 134.429 32.5427C134.321 32.1384 134.134 31.7772 133.866 31.4593C133.601 31.1281 133.267 30.8617 132.863 30.6602C132.461 30.4454 131.989 30.302 131.447 30.23L128.711 29.8666L127.8 36.7263Z" fill="#FFFBFB"/>
<path d="M187.58 74.1542L199.791 67.8117L203.479 74.9112C204.265 76.4257 204.708 77.8561 204.806 79.2024C204.904 80.5486 204.652 81.7542 204.048 82.819C203.444 83.8839 202.491 84.7543 201.19 85.4304C199.888 86.1064 198.628 86.3852 197.41 86.2669C196.191 86.1485 195.06 85.662 194.015 84.8074C192.97 83.9528 192.054 82.7682 191.268 81.2537L187.58 74.1542ZM192.892 76.9617L194.164 79.4111C194.416 79.8962 194.712 80.2912 195.05 80.5961C195.389 80.901 195.753 81.125 196.143 81.268C196.545 81.405 196.954 81.4553 197.371 81.4191C197.8 81.3767 198.227 81.2449 198.653 81.0236L199.079 80.8024C199.505 80.5811 199.852 80.3104 200.122 79.9902C200.391 79.67 200.579 79.3092 200.687 78.908C200.806 78.5007 200.832 78.0739 200.765 77.6276C200.711 77.1752 200.557 76.7065 200.305 76.2214L199.033 73.772L192.892 76.9617Z" fill="#FFFBFB"/>
<path d="M197.059 93.0558L210.464 89.9499L213.782 104.271L210.45 105.042L208.252 95.5539L206.518 95.9557L208.414 104.139L205.258 104.87L203.361 96.687L201.511 97.1159L203.745 106.76L200.413 107.532L197.059 93.0558Z" fill="#FFFBFB"/>
<path d="M201.223 117.239L215.147 110.886L215.009 116.365L209.168 118.739C208.966 118.827 208.669 118.94 208.279 119.077C207.902 119.214 207.499 119.357 207.068 119.506C206.651 119.656 206.267 119.787 205.918 119.898L205.914 120.038C206.218 120.152 206.568 120.288 206.964 120.444C207.361 120.601 207.75 120.757 208.133 120.914C208.516 121.083 208.839 121.231 209.102 121.358L214.816 124.062L214.684 129.321L201.097 122.278L201.223 117.239Z" fill="#FFFBFB"/>
<path d="M200.518 133.066L213.737 136.886L209.656 151.008L206.371 150.059L209.075 140.702L207.364 140.207L205.033 148.277L201.92 147.378L204.252 139.308L202.426 138.781L199.678 148.291L196.393 147.342L200.518 133.066Z" fill="#FFFBFB"/>
<path d="M194.817 151.8L206.804 158.556L204.378 162.86L195.684 157.959L191.304 165.73L188.012 163.874L194.817 151.8Z" fill="#FFFBFB"/>
<path d="M180.269 173.155C181.574 171.803 182.91 170.831 184.277 170.241C185.643 169.651 186.964 169.454 188.241 169.648C189.527 169.851 190.702 170.467 191.767 171.495C192.832 172.523 193.489 173.676 193.738 174.954C193.987 176.232 193.836 177.559 193.285 178.936C192.744 180.323 191.82 181.692 190.515 183.045C189.2 184.407 187.864 185.378 186.507 185.959C185.15 186.558 183.829 186.756 182.543 186.552C181.257 186.349 180.081 185.733 179.016 184.705C177.951 183.677 177.295 182.524 177.046 181.246C176.806 179.978 176.957 178.65 177.498 177.264C178.03 175.887 178.954 174.518 180.269 173.155ZM182.73 175.53C182.294 175.981 181.958 176.445 181.722 176.92C181.494 177.405 181.366 177.884 181.337 178.356C181.317 178.837 181.396 179.293 181.573 179.723C181.751 180.154 182.021 180.545 182.386 180.897L182.731 181.231C183.096 181.582 183.492 181.835 183.919 181.988C184.355 182.15 184.809 182.207 185.28 182.161C185.75 182.115 186.219 181.966 186.686 181.712C187.163 181.468 187.619 181.121 188.054 180.67C188.489 180.219 188.82 179.751 189.047 179.266C189.284 178.79 189.417 178.316 189.447 177.844C189.476 177.372 189.402 176.921 189.225 176.49C189.057 176.069 188.791 175.682 188.426 175.331L188.081 174.997C187.716 174.645 187.316 174.388 186.879 174.226C186.442 174.064 185.984 174.002 185.504 174.039C185.033 174.085 184.559 174.23 184.083 174.474C183.616 174.727 183.165 175.08 182.73 175.53Z" fill="#FFFBFB"/>
<path d="M170.048 183.444L177.136 195.237L167.657 200.935C166.879 201.402 166.087 201.637 165.28 201.64C164.48 201.654 163.725 201.446 163.016 201.017C162.314 200.599 161.719 199.985 161.231 199.173C160.729 198.339 160.461 197.504 160.426 196.67C160.38 195.842 160.551 195.078 160.939 194.378C161.327 193.678 161.904 193.098 162.67 192.638L167.916 189.485L165.814 185.988L170.048 183.444ZM169.677 192.417L165.615 194.858C165.18 195.119 164.922 195.415 164.84 195.744C164.747 196.08 164.82 196.448 165.06 196.848C165.225 197.122 165.411 197.314 165.617 197.424C165.818 197.552 166.043 197.603 166.292 197.578C166.53 197.559 166.792 197.464 167.078 197.293L171.14 194.851L169.677 192.417Z" fill="#FFFBFB"/>
<path d="M154.489 193.37L158.04 206.664L150.543 208.667L147.6 204.236C147.424 203.993 147.237 203.705 147.038 203.372C146.842 203.052 146.65 202.723 146.464 202.386C146.268 202.066 146.103 201.786 145.97 201.545L145.835 201.582C145.836 201.843 145.836 202.154 145.835 202.513C145.822 202.875 145.811 203.251 145.805 203.639C145.789 204.044 145.769 204.408 145.745 204.732L145.403 210.039L138.138 211.98L134.587 198.686L139.359 197.411L140.908 203.208C140.994 203.53 141.088 203.884 141.192 204.271C141.282 204.661 141.371 205.044 141.457 205.421C141.544 205.798 141.624 206.122 141.696 206.393L141.851 206.351C141.862 206.031 141.878 205.654 141.901 205.22C141.913 204.803 141.932 204.384 141.958 203.963C141.974 203.558 141.998 203.207 142.028 202.909L142.567 196.555L146.798 195.424L150.434 200.664C150.685 201.038 150.936 201.406 151.184 201.767C151.423 202.145 151.639 202.488 151.831 202.795C152.027 203.115 152.185 203.37 152.304 203.559L152.459 203.518C152.391 203.315 152.31 203.04 152.218 202.692C152.115 202.36 152.009 201.989 151.899 201.576C151.779 201.18 151.664 200.776 151.554 200.364L150.006 194.567L154.489 193.37Z" fill="#FFFBFB"/>
<path d="M128.088 199.698L127.714 213.452L113.019 213.052L113.112 209.634L122.849 209.899L122.897 208.119L114.5 207.891L114.589 204.652L122.985 204.881L123.037 202.981L113.141 202.712L113.234 199.293L128.088 199.698Z" fill="#FFFBFB"/>
<path d="M108.743 199.26L104.814 212.447L100.693 211.219L95.8151 203.777C95.7575 203.69 95.6774 203.562 95.5749 203.392C95.4724 203.222 95.3654 203.044 95.254 202.858C95.1425 202.672 95.04 202.502 94.9465 202.349L94.7548 202.292C94.7015 202.471 94.6311 202.707 94.5435 203.001C94.4522 203.308 94.3646 203.602 94.2809 203.883L92.7962 208.867L88.3494 207.542L92.2779 194.355L96.3606 195.571L101.004 202.61C101.208 202.907 101.423 203.235 101.65 203.595C101.864 203.951 102.035 204.238 102.165 204.458L102.337 204.509C102.391 204.33 102.467 204.075 102.566 203.743C102.661 203.423 102.758 203.097 102.857 202.765L104.296 197.935L108.743 199.26Z" fill="#FFFBFB"/>
<path d="M82.7487 189.879L77.4964 198.365L82.4623 201.439L80.4729 204.653L66.3408 195.906L68.3301 192.692L73.2959 195.766L78.5482 187.28L82.7487 189.879Z" fill="#FFFBFB"/>
</g>
</svg>
