<svg width="271" height="270" viewBox="0 0 271 270" fill="none" xmlns="http://www.w3.org/2000/svg">
<path d="M177 135C177 158.196 158.196 177 135 177C111.804 177 93 158.196 93 135C93 111.804 111.804 93 135 93C158.196 93 177 111.804 177 135Z" stroke="#2E2D30" stroke-width="2"/>
<path d="M177 135C177 158.196 158.196 177 135 177C111.804 177 93 158.196 93 135C93 111.804 111.804 93 135 93C158.196 93 177 111.804 177 135Z" stroke="#2E2D30" stroke-width="2"/>
<path d="M177 135C177 158.196 158.196 177 135 177C111.804 177 93 158.196 93 135C93 111.804 111.804 93 135 93C158.196 93 177 111.804 177 135Z" stroke="#2E2D30" stroke-width="2"/>
<path d="M177 135C177 158.196 158.196 177 135 177C111.804 177 93 158.196 93 135C93 111.804 111.804 93 135 93C158.196 93 177 111.804 177 135Z" stroke="#2E2D30" stroke-width="2"/>
<mask id="mask0_1001_1443" style="mask-type:alpha" maskUnits="userSpaceOnUse" x="92" y="92" width="86" height="87">
<path d="M177 135C177 111.804 158.196 93.0004 135 93.0004C111.804 93.0004 93 111.804 93 135C93 158.196 111.804 177 135 177C158.196 177 177 158.196 177 135Z" fill="#2E2D30" stroke="#C1ACDC" stroke-width="2"/>
</mask>
<g mask="url(#mask0_1001_1443)">
<path d="M177 73.5722C177 50.3762 158.196 31.5722 135 31.5722C111.804 31.5722 93 50.3762 93 73.5722C93 96.7682 111.804 115.572 135 115.572C158.196 115.572 177 96.7682 177 73.5722Z" stroke="#2E2D30" stroke-width="2"/>
<path d="M177 198.184C177 174.988 158.196 156.184 135 156.184C111.804 156.184 93 174.988 93 198.184C93 221.38 111.804 240.184 135 240.184C158.196 240.184 177 221.38 177 198.184Z" stroke="#2E2D30" stroke-width="2"/>
</g>
<line x1="134.248" y1="93.7559" x2="134.248" y2="176.246" stroke="#2E2D30" stroke-width="2"/>
<line x1="93.7559" y1="137.225" x2="176.246" y2="137.225" stroke="#2E2D30" stroke-width="2"/>
<path d="M159.447 135C159.447 146.726 156.632 157.294 152.132 164.896C147.62 172.521 141.529 177 134.998 177C128.466 177 122.376 172.521 117.863 164.896C113.364 157.294 110.549 146.726 110.549 135C110.549 123.274 113.364 112.706 117.863 105.104C122.376 97.4794 128.466 93 134.998 93C141.529 93 147.62 97.4794 152.132 105.104C156.632 112.706 159.447 123.274 159.447 135Z" stroke="#2E2D30" stroke-width="2"/>
<path d="M159.447 135C159.447 146.726 156.632 157.294 152.132 164.896C147.62 172.521 141.529 177 134.998 177C128.466 177 122.376 172.521 117.863 164.896C113.364 157.294 110.549 146.726 110.549 135C110.549 123.274 113.364 112.706 117.863 105.104C122.376 97.4794 128.466 93 134.998 93C141.529 93 147.62 97.4794 152.132 105.104C156.632 112.706 159.447 123.274 159.447 135Z" stroke="#2E2D30" stroke-width="2"/>
<path d="M159.447 135C159.447 146.726 156.632 157.294 152.132 164.896C147.62 172.521 141.529 177 134.998 177C128.466 177 122.376 172.521 117.863 164.896C113.364 157.294 110.549 146.726 110.549 135C110.549 123.274 113.364 112.706 117.863 105.104C122.376 97.4794 128.466 93 134.998 93C141.529 93 147.62 97.4794 152.132 105.104C156.632 112.706 159.447 123.274 159.447 135Z" stroke="#2E2D30" stroke-width="2"/>
<path d="M159.447 135C159.447 146.726 156.632 157.294 152.132 164.896C147.62 172.521 141.529 177 134.998 177C128.466 177 122.376 172.521 117.863 164.896C113.364 157.294 110.549 146.726 110.549 135C110.549 123.274 113.364 112.706 117.863 105.104C122.376 97.4794 128.466 93 134.998 93C141.529 93 147.62 97.4794 152.132 105.104C156.632 112.706 159.447 123.274 159.447 135Z" stroke="#2E2D30" stroke-width="2"/>
</svg>
