<svg width="271" height="270" viewBox="0 0 271 270" fill="none" xmlns="http://www.w3.org/2000/svg">
<path d="M138.757 248.907L138.928 260.234L141.4 260.196L141.419 261.492L138.948 261.53L138.98 263.641C138.986 264.057 138.92 264.482 138.783 264.916C138.645 265.351 138.371 265.723 137.96 266.033C137.532 266.344 136.911 266.505 136.095 266.517C135.823 266.521 135.575 266.509 135.35 266.481C135.11 266.468 134.886 266.448 134.677 266.419C134.469 266.406 134.284 266.369 134.123 266.307L134.107 265.227L135.787 265.202C136.363 265.193 136.793 265.067 137.077 264.822C137.346 264.578 137.476 264.2 137.468 263.688L137.436 261.552L134.052 261.604L134.033 260.308L137.416 260.257L137.245 248.93L138.757 248.907Z" fill="#2E2D30"/>
<path d="M126.155 248.644L124.794 261.194L123.601 261.065L123.722 258.616L123.579 258.6C123.481 258.911 123.282 259.26 122.983 259.646C122.682 260.048 122.267 260.381 121.74 260.646C121.195 260.925 120.54 261.023 119.777 260.94C119.522 260.912 119.269 260.869 119.018 260.809C118.766 260.766 118.554 260.711 118.384 260.644L118.527 259.332L119.457 259.433C120.253 259.519 120.922 259.43 121.466 259.168C122.007 258.92 122.456 258.567 122.812 258.106C123.152 257.644 123.415 257.142 123.603 256.599C123.773 256.07 123.884 255.567 123.936 255.09L124.652 248.481L126.155 248.644Z" fill="#2E2D30"/>
<path d="M105.829 244.82C107.284 245.202 108.435 245.762 109.284 246.498C110.128 247.249 110.674 248.162 110.921 249.236C111.148 250.322 111.081 251.553 110.718 252.93C110.352 254.323 109.805 255.428 109.077 256.246C108.333 257.059 107.411 257.578 106.31 257.801C105.205 258.04 103.925 257.968 102.471 257.585C101.016 257.202 99.8665 256.635 99.0219 255.884C98.1733 255.148 97.6333 254.244 97.402 253.174C97.1552 252.1 97.2149 250.867 97.5813 249.474C97.9436 248.097 98.4986 246.994 99.2461 246.165C99.9741 245.347 100.891 244.819 101.996 244.58C103.097 244.357 104.375 244.437 105.829 244.82ZM105.499 246.073C104.525 245.816 103.615 245.751 102.772 245.876C101.928 246.002 101.196 246.363 100.575 246.961C99.9547 247.559 99.4877 248.454 99.1743 249.645L99.0521 250.109C98.7346 251.316 98.6988 252.333 98.9448 253.158C99.1908 253.984 99.6522 254.651 100.329 255.16C101.002 255.685 101.825 256.075 102.8 256.332C103.76 256.584 104.661 256.648 105.505 256.522C106.344 256.412 107.075 256.058 107.695 255.461C108.316 254.863 108.785 253.96 109.102 252.753L109.224 252.289C109.538 251.098 109.571 250.089 109.325 249.263C109.079 248.438 108.62 247.763 107.947 247.238C107.275 246.714 106.459 246.325 105.499 246.073Z" fill="#2E2D30"/>
<path d="M93.1686 241.108L87.9186 252.589L86.8273 252.09L87.6445 249.956L87.4699 249.877C86.7473 250.303 86.033 250.557 85.327 250.638C84.6144 250.735 83.9331 250.705 83.2833 250.548C82.6269 250.406 82.0294 250.212 81.4911 249.966C80.4871 249.507 79.7136 248.986 79.1707 248.404C78.6132 247.815 78.303 247.127 78.2399 246.342C78.1701 245.571 78.3681 244.676 78.8339 243.658L82.2774 236.128L83.6524 236.757L80.3387 244.003C79.9927 244.76 79.8072 245.396 79.7822 245.912C79.7572 246.429 79.8654 246.865 80.1069 247.222C80.3272 247.587 80.639 247.905 81.0423 248.178C81.431 248.443 81.8727 248.689 82.3674 248.916C83.1095 249.255 83.9136 249.42 84.7796 249.412C85.6244 249.411 86.416 249.219 87.1545 248.835C87.8717 248.459 88.42 247.857 88.7993 247.027L91.7936 240.48L93.1686 241.108Z" fill="#2E2D30"/>
<path d="M72.9943 230.172C73.4499 230.469 73.7837 230.792 73.9957 231.14C74.2077 231.489 74.2892 231.876 74.2402 232.303C74.169 232.734 73.9672 233.204 73.635 233.713L68.7166 241.251L70.6863 242.536L69.9781 243.621L68.0084 242.336L65.799 245.107L64.8141 244.464L66.7421 241.51L63.9885 239.713L64.6968 238.627L67.4504 240.424L72.0802 233.329C72.4299 232.793 72.6276 232.359 72.6731 232.025C72.6965 231.697 72.4201 231.344 71.8439 230.968L70.3365 229.985L70.848 229.201C71.0659 229.248 71.3086 229.329 71.576 229.447C71.8387 229.542 72.0884 229.657 72.3249 229.792C72.5702 229.914 72.7933 230.04 72.9943 230.172Z" fill="#2E2D30"/>
<path d="M59.2098 219.584C60.3092 220.562 61.0818 221.571 61.5274 222.611C61.9731 223.65 62.0686 224.71 61.814 225.79C61.5487 226.882 60.9267 227.978 59.9479 229.077C58.9797 230.165 57.98 230.903 56.9486 231.291C55.9052 231.669 54.8422 231.708 53.7595 231.408C52.6649 231.098 51.5619 230.448 50.4505 229.458C49.2913 228.427 48.5228 227.389 48.1449 226.346C47.7444 225.303 47.6695 224.305 47.92 223.35C48.1586 222.384 48.6449 221.489 49.379 220.664L50.161 219.786L59.0341 227.685C59.8201 226.778 60.2792 225.902 60.4114 225.055C60.521 224.21 60.3834 223.403 59.9987 222.632C59.5914 221.862 59.0113 221.142 58.2584 220.472C57.6131 219.897 56.9949 219.497 56.4038 219.27C55.8007 219.033 55.2494 218.907 54.7498 218.89C54.2382 218.863 53.7884 218.924 53.4003 219.071C53.0122 219.218 52.7111 219.4 52.497 219.616L51.4036 218.643C51.7347 218.295 52.1601 218.01 52.6798 217.787C53.1876 217.553 53.7809 217.428 54.4599 217.411C55.1163 217.396 55.851 217.557 56.6639 217.895C57.4649 218.223 58.3135 218.786 59.2098 219.584ZM58.2043 228.617L50.5142 221.771C49.9184 222.44 49.5366 223.086 49.3687 223.708C49.2008 224.329 49.1904 224.931 49.3374 225.511C49.4845 226.092 49.7484 226.638 50.1294 227.148C50.4997 227.671 50.9299 228.15 51.4198 228.586C52.101 229.193 52.8235 229.632 53.5873 229.905C54.3391 230.168 55.1118 230.202 55.9052 230.009C56.6879 229.827 57.4543 229.364 58.2043 228.617Z" fill="#2E2D30"/>
<path d="M49.6574 210.587L39.7761 218.444L39.0292 217.504L40.7243 215.973L40.6048 215.823C39.7675 215.875 39.0157 215.778 38.3492 215.531C37.6703 215.294 37.0766 214.959 36.5681 214.525C36.0472 214.101 35.6024 213.657 35.234 213.194C34.5469 212.33 34.0934 211.515 33.8733 210.75C33.6432 209.972 33.678 209.219 33.9775 208.49C34.2645 207.771 34.8464 207.063 35.723 206.366L42.2041 201.213L43.1451 202.397L36.9082 207.356C36.257 207.873 35.8033 208.357 35.547 208.806C35.2908 209.255 35.1895 209.693 35.2432 210.12C35.2744 210.545 35.4081 210.971 35.6442 211.396C35.8704 211.809 36.1527 212.228 36.4913 212.654C36.9991 213.293 37.641 213.805 38.417 214.189C39.1705 214.571 39.9633 214.759 40.7954 214.751C41.605 214.741 42.3668 214.452 43.0806 213.885L48.7164 209.404L49.6574 210.587Z" fill="#2E2D30"/>
<path d="M35.5522 189.791C36.1889 190.956 36.5084 192.058 36.5104 193.096C36.4908 194.128 36.164 195.082 35.53 195.957C34.8743 196.825 33.9216 197.601 32.672 198.284C31.3943 198.982 30.216 199.362 29.137 199.423C28.0504 199.469 27.0708 199.212 26.1982 198.649C25.318 198.073 24.5556 197.195 23.9111 196.015C23.5659 195.383 23.3215 194.769 23.1781 194.173C23.0269 193.563 22.9767 192.97 23.0273 192.396C23.078 191.821 23.2295 191.264 23.4819 190.725L23.4014 190.578L17.6097 193.743L16.8961 192.437L32.1231 184.116L32.687 185.148L30.9679 186.306L31.0369 186.433C32.0075 186.541 32.8684 186.882 33.6197 187.456C34.3633 188.016 35.0074 188.794 35.5522 189.791ZM34.3017 190.255C33.8491 189.427 33.2989 188.77 32.6511 188.286C31.9956 187.787 31.2414 187.524 30.3884 187.498C29.5354 187.472 28.5683 187.754 27.4872 188.345L27.1081 188.552C26.2937 188.997 25.6633 189.479 25.2168 189.996C24.7562 190.521 24.4648 191.072 24.3427 191.65C24.2065 192.235 24.2031 192.829 24.3325 193.433C24.4479 194.045 24.6705 194.652 25.0004 195.256C25.4301 196.042 25.965 196.671 26.6051 197.141C27.2375 197.598 27.9764 197.832 28.8217 197.845C29.653 197.864 30.6092 197.579 31.6904 196.988L32.1116 196.758C33.1787 196.175 33.9392 195.531 34.3933 194.827C34.8474 194.124 35.053 193.382 35.0103 192.603C34.9599 191.81 34.7237 191.028 34.3017 190.255Z" fill="#2E2D30"/>
<path d="M25.2034 163.863C25.5369 165.148 25.5781 166.294 25.327 167.302C25.0564 168.298 24.507 169.143 23.6788 169.837C22.831 170.52 21.718 171.04 20.3396 171.397C18.9303 171.763 17.695 171.844 16.6337 171.64C15.5685 171.42 14.6813 170.931 13.9722 170.173C13.259 169.399 12.7337 168.362 12.3962 167.061C12.2154 166.364 12.1281 165.709 12.1343 165.096C12.1365 164.467 12.2322 163.88 12.4214 163.335C12.6107 162.79 12.8934 162.287 13.2696 161.826L13.2274 161.663L6.8389 163.321L6.46524 161.881L23.2612 157.523L23.5566 158.662L21.6069 159.366L21.6431 159.505C22.5581 159.846 23.3099 160.387 23.8985 161.127C24.4832 161.851 24.9181 162.763 25.2034 163.863ZM23.8775 164.008C23.6404 163.094 23.2669 162.324 22.7568 161.696C22.2427 161.052 21.5753 160.614 20.7544 160.38C19.9335 160.147 18.9268 160.185 17.7342 160.494L17.3161 160.603C16.4178 160.836 15.6891 161.149 15.1298 161.542C14.5551 161.939 14.1382 162.402 13.879 162.933C13.6043 163.467 13.4561 164.042 13.4344 164.66C13.3972 165.281 13.465 165.924 13.6378 166.59C13.8628 167.458 14.2283 168.198 14.7343 168.81C15.2363 169.407 15.8958 169.815 16.7127 170.032C17.514 170.254 18.511 170.211 19.7035 169.901L20.1682 169.781C21.3452 169.475 22.2397 169.037 22.8517 168.465C23.4636 167.893 23.8438 167.224 23.9923 166.458C24.1367 165.677 24.0985 164.86 23.8775 164.008Z" fill="#2E2D30"/>
<path d="M21.8273 143.874C21.9482 145.341 21.8114 146.604 21.4171 147.664C21.0228 148.724 20.361 149.557 19.4316 150.164C18.4863 150.771 17.2801 151.136 15.8131 151.257C14.362 151.376 13.1291 151.221 12.1144 150.791C11.0983 150.345 10.3018 149.64 9.72468 148.676C9.14629 147.696 8.79602 146.464 8.67386 144.981C8.54644 143.435 8.70578 142.153 9.15188 141.137C9.58071 140.107 10.2152 139.332 11.0555 138.813C11.8944 138.278 12.864 137.966 13.9643 137.875L15.1363 137.779L16.1116 149.618C17.3063 149.504 18.2433 149.186 18.9228 148.664C19.585 148.128 20.0428 147.448 20.296 146.625C20.532 145.787 20.6086 144.865 20.5259 143.861C20.4549 143 20.2835 142.283 20.0117 141.712C19.7385 141.124 19.4267 140.652 19.0763 140.296C18.7245 139.923 18.3574 139.656 17.9749 139.495C17.5923 139.334 17.2489 139.258 16.9447 139.267L16.8245 137.808C17.3042 137.785 17.809 137.871 18.339 138.069C18.8676 138.25 19.3835 138.569 19.8867 139.025C20.3726 139.466 20.7932 140.09 21.1485 140.896C21.5025 141.685 21.7288 142.678 21.8273 143.874ZM14.8679 149.721L14.0226 139.46C13.1296 139.533 12.4079 139.737 11.8575 140.071C11.3071 140.406 10.8848 140.834 10.5907 141.356C10.2965 141.878 10.1113 142.455 10.035 143.087C9.94267 143.721 9.92345 144.365 9.9773 145.019C10.0522 145.927 10.272 146.744 10.6367 147.469C11.0001 148.177 11.5357 148.735 12.2435 149.142C12.9354 149.551 13.8102 149.744 14.8679 149.721Z" fill="#2E2D30"/>
<path d="M21.503 126.561L8.43586 131.436L8.57345 129.761L15.9727 127.046C16.2383 126.939 16.5942 126.808 17.0405 126.652C17.4708 126.495 17.9251 126.34 18.4033 126.186C18.8827 126.017 19.3124 125.868 19.6923 125.738L19.7041 125.595C19.4116 125.442 19.0646 125.269 18.6631 125.076C18.2629 124.866 17.8481 124.64 17.4186 124.396C16.9891 124.152 16.5976 123.935 16.2439 123.745L9.3872 119.859L9.51889 118.256L21.615 125.198L21.503 126.561Z" fill="#2E2D30"/>
<path d="M25.0214 106.861C24.6627 108.289 24.1258 109.441 23.4107 110.317C22.6956 111.193 21.8005 111.768 20.7252 112.042C19.6345 112.313 18.3753 112.268 16.9476 111.91C15.5355 111.555 14.4186 111.01 13.5968 110.276C12.7789 109.526 12.2522 108.602 12.0168 107.503C11.7853 106.389 11.8508 105.111 12.2135 103.668C12.5917 102.162 13.1557 101.001 13.9057 100.183C14.644 99.3456 15.4944 98.8169 16.4571 98.5969C17.4236 98.3613 18.4423 98.3781 19.513 98.6471L20.6535 98.9337L17.7585 110.456C18.9262 110.732 19.9157 110.734 20.7271 110.459C21.5269 110.165 22.1794 109.669 22.6847 108.971C23.1784 108.254 23.548 107.406 23.7937 106.429C24.0042 105.591 24.073 104.858 24 104.229C23.9309 103.585 23.788 103.037 23.5712 102.587C23.3584 102.121 23.0969 101.75 22.7868 101.474C22.4766 101.198 22.1761 101.015 21.8852 100.926L22.2419 99.506C22.7036 99.6385 23.1534 99.8835 23.5915 100.241C24.0335 100.583 24.419 101.051 24.7482 101.645C25.0657 102.22 25.2627 102.946 25.3393 103.823C25.4198 104.685 25.3138 105.697 25.0214 106.861ZM16.5481 110.151L19.0571 100.166C18.1882 99.9475 17.4392 99.9078 16.8104 100.047C16.1816 100.186 15.6438 100.455 15.1971 100.854C14.7503 101.253 14.3889 101.74 14.1127 102.314C13.821 102.884 13.5952 103.487 13.4353 104.123C13.2131 105.008 13.1577 105.852 13.2693 106.655C13.3848 107.443 13.7119 108.144 14.2505 108.757C14.7737 109.367 15.5395 109.832 16.5481 110.151Z" fill="#2E2D30"/>
<path d="M28.7464 94.1654L12.6595 87.6611L13.2263 86.2594L29.3131 92.7637L28.7464 94.1654Z" fill="#2E2D30"/>
<path d="M36.8307 77.9713C36.0804 79.2748 35.2389 80.2396 34.3062 80.8658C33.3596 81.484 32.3357 81.7715 31.2344 81.7283C30.1272 81.6633 28.9565 81.2756 27.7224 80.5653C26.4743 79.8469 25.5511 79.0293 24.9527 78.1126C24.3622 77.1819 24.1035 76.1561 24.1764 75.035C24.2356 73.906 24.6403 72.6897 25.3906 71.3863C26.1409 70.0828 26.9893 69.1219 27.9359 68.5037C28.8686 67.8776 29.8816 67.593 30.975 67.65C32.0763 67.6932 33.2509 68.0739 34.4989 68.7923C35.7331 69.5027 36.6523 70.3272 37.2567 71.2658C37.8551 72.1825 38.1248 73.2054 38.0656 74.3345C37.9927 75.4555 37.581 76.6678 36.8307 77.9713ZM35.7075 77.3247C36.2104 76.4511 36.5118 75.5908 36.6117 74.7437C36.7116 73.8966 36.5543 73.0953 36.1399 72.3399C35.7256 71.5844 34.9845 70.8994 33.9167 70.2848L33.5007 70.0454C32.4191 69.4228 31.4476 69.122 30.5863 69.1432C29.7249 69.1643 28.96 69.4347 28.2915 69.9546C27.6092 70.4664 27.0166 71.1592 26.5138 72.0328C26.0189 72.8925 25.7215 73.7459 25.6216 74.593C25.5078 75.4322 25.6581 76.2294 26.0725 76.9849C26.4869 77.7403 27.2349 78.4293 28.3165 79.0519L28.7325 79.2914C29.8003 79.906 30.7648 80.2027 31.6262 80.1816C32.4876 80.1605 33.2594 79.894 33.9417 79.3822C34.624 78.8703 35.2126 78.1845 35.7075 77.3247Z" fill="#2E2D30"/>
<path d="M46.9573 69.4112L34.0241 58.6511L34.7915 57.7286L36.4826 58.8858L36.5747 58.7751C36.2974 57.8575 36.2833 56.9613 36.5325 56.0863C36.7695 55.2011 37.241 54.3342 37.947 53.4855C38.8271 52.4277 39.7494 51.7069 40.714 51.323C41.6785 50.9392 42.6895 50.8749 43.7467 51.1301C44.804 51.3853 45.8923 51.9785 47.0116 52.9097C48.1063 53.8205 48.8865 54.7714 49.3524 55.7625C49.8059 56.7434 49.9429 57.742 49.7635 58.7583C49.5819 59.752 49.0665 60.7593 48.2172 61.7802C47.7465 62.346 47.2439 62.8124 46.7095 63.1795C46.1874 63.5569 45.6448 63.8339 45.0816 64.0105C44.5183 64.1872 43.9407 64.2686 43.3486 64.2547L43.2566 64.3654L47.9243 68.2488L46.9573 69.4112ZM47.0643 61.102C47.6373 60.4132 48.0198 59.6908 48.2118 58.9347C48.4038 58.1786 48.3448 57.4114 48.0348 56.6332C47.7248 55.855 47.1024 55.077 46.1677 54.2993L45.7987 53.9923C44.8516 53.2044 43.9621 52.735 43.1303 52.584C42.2984 52.4331 41.5293 52.5321 40.8228 52.8809C40.1142 53.2072 39.4683 53.7209 38.885 54.422C38.2915 55.1354 37.8885 55.8824 37.6761 56.6631C37.4739 57.4315 37.5176 58.2171 37.8071 59.0199C38.0945 59.8002 38.7179 60.5894 39.6773 61.3876L40.0094 61.6639C40.7228 62.2574 41.4022 62.6666 42.0477 62.8914C42.7034 63.1039 43.3283 63.1659 43.9223 63.0773C44.5163 62.9887 45.0765 62.7783 45.6027 62.446C46.1268 62.0912 46.614 61.6432 47.0643 61.102Z" fill="#2E2D30"/>
<path d="M59.4557 55.3151L48.5503 42.5042L49.464 41.7263L50.9326 43.1553L51.0422 43.0619C50.9257 42.1105 51.065 41.225 51.46 40.4055C51.8446 39.5738 52.4572 38.8001 53.2979 38.0845C54.3457 37.1926 55.3775 36.6399 56.3935 36.4264C57.4095 36.2129 58.4165 36.3222 59.4147 36.7543C60.4128 37.1863 61.3838 37.9567 62.3276 39.0654C63.2506 40.1497 63.857 41.2199 64.1467 42.2761C64.426 43.32 64.3905 44.3274 64.0401 45.298C63.6915 46.2461 63.0116 47.1506 62.0004 48.0114C61.44 48.4885 60.8651 48.8622 60.2759 49.1327C59.697 49.4154 59.115 49.5956 58.5299 49.6734C57.9448 49.7513 57.3617 49.7328 56.7808 49.618L56.6711 49.7114L60.607 54.335L59.4557 55.3151ZM60.9803 47.1463C61.6626 46.5655 62.1628 45.919 62.4811 45.2068C62.7994 44.4946 62.8723 43.7287 62.6998 42.9089C62.5273 42.0892 62.0469 41.2164 61.2587 40.2904L60.9476 39.9249C60.149 38.9868 59.3528 38.3724 58.5589 38.0816C57.7651 37.7908 56.9903 37.7569 56.2346 37.9799C55.4808 38.1804 54.7566 38.5763 54.0621 39.1674C53.3555 39.769 52.8309 40.4362 52.4882 41.1691C52.1578 41.8917 52.0666 42.6732 52.2147 43.5137C52.3647 44.3316 52.8441 45.2157 53.6531 46.166L53.9331 46.4949C54.5346 47.2016 55.1342 47.7208 55.7318 48.0525C56.3416 48.3739 56.9467 48.5417 57.5471 48.5559C58.1475 48.5701 58.7354 48.4585 59.3106 48.2209C59.8877 47.9608 60.4442 47.6026 60.9803 47.1463Z" fill="#2E2D30"/>
<path d="M77.7286 36.9218C76.4613 37.6705 75.2647 38.0986 74.1389 38.2062C73.0131 38.3137 71.9747 38.0816 71.0237 37.5099C70.0645 36.9243 69.2106 35.9978 68.4619 34.7305C67.7213 33.4769 67.3233 32.2997 67.2677 31.199C67.2259 30.0901 67.5128 29.0658 68.1284 28.126C68.7578 27.1781 69.713 26.3258 70.9942 25.569C72.3304 24.7796 73.553 24.364 74.6619 24.3222C75.7764 24.2585 76.7503 24.4915 77.5836 25.0213C78.4307 25.543 79.135 26.2791 79.6965 27.2296L80.2947 28.2421L70.0661 34.2846C70.6902 35.3096 71.3851 36.0141 72.1508 36.398C72.9222 36.76 73.7336 36.8753 74.5852 36.7439C75.4424 36.5906 76.3049 36.2576 77.1728 35.745C77.9167 35.3055 78.4865 34.8388 78.8823 34.3448C79.2918 33.8427 79.5805 33.3563 79.7484 32.8854C79.93 32.4065 80.0099 31.9597 79.9881 31.5452C79.9662 31.1307 79.8849 30.7886 79.744 30.5187L81.0045 29.7741C81.2349 30.1955 81.3769 30.6876 81.4307 31.2505C81.4983 31.8053 81.4365 32.4085 81.2455 33.0603C81.06 33.6902 80.6824 34.3407 80.1125 35.0118C79.5565 35.6748 78.7618 36.3115 77.7286 36.9218ZM69.4313 33.21L78.2961 27.9733C77.8404 27.2018 77.342 26.6414 76.8011 26.2919C76.2602 25.9425 75.6907 25.7493 75.0928 25.7122C74.4948 25.6752 73.8947 25.7603 73.2923 25.9675C72.6818 26.1609 72.0942 26.4244 71.5294 26.758C70.7441 27.2219 70.1051 27.776 69.6123 28.4202C69.1332 29.0563 68.8648 29.7816 68.8071 30.5962C68.7413 31.397 68.9493 32.2683 69.4313 33.21Z" fill="#2E2D30"/>
<path d="M89.3262 30.6332L84.593 18.9301L85.7055 18.4802L86.7568 20.6956L86.8903 20.6417C86.8297 20.321 86.84 19.9199 86.9214 19.4382C86.9967 18.9418 87.2043 18.4522 87.5442 17.9696C87.8929 17.4661 88.4232 17.0704 89.1351 16.7825C89.3725 16.6865 89.6158 16.6053 89.8651 16.539C90.1084 16.4579 90.3207 16.4065 90.5018 16.3851L90.9968 17.6088L90.129 17.9597C89.3874 18.2596 88.8392 18.6539 88.4846 19.1426C88.1239 19.6164 87.8956 20.1401 87.7998 20.7139C87.7188 21.2817 87.7239 21.8492 87.8152 22.4164C87.9153 22.9627 88.0554 23.4583 88.2354 23.9033L90.7279 30.0663L89.3262 30.6332Z" fill="#2E2D30"/>
<path d="M112.498 17.8072C111.963 17.9042 111.469 17.8716 111.017 17.7095C110.565 17.5475 110.184 17.2832 109.874 16.9166C109.561 16.5342 109.356 16.0754 109.259 15.5401C109.162 15.0048 109.193 14.5033 109.352 14.0354C109.511 13.5676 109.774 13.1785 110.141 12.8682C110.507 12.558 110.958 12.3544 111.494 12.2575C112.029 12.1605 112.523 12.1931 112.975 12.3552C113.443 12.5144 113.833 12.7851 114.146 13.1675C114.459 13.5498 114.664 14.0086 114.761 14.5439C114.858 15.0792 114.827 15.5808 114.668 16.0486C114.506 16.5007 114.234 16.8833 113.851 17.1965C113.485 17.5067 113.034 17.7103 112.498 17.8072Z" fill="#2E2D30"/>
<path d="M135.776 21.0603L136.029 9.73512L133.558 9.67978L133.587 8.38411L136.058 8.43945L136.105 6.32798C136.115 5.91208 136.196 5.4898 136.35 5.06113C136.503 4.63246 136.792 4.27082 137.214 3.97621C137.653 3.68196 138.28 3.54397 139.096 3.56223C139.368 3.56832 139.616 3.58987 139.839 3.62688C140.078 3.64824 140.302 3.67725 140.509 3.7139C140.717 3.73455 140.9 3.77866 141.058 3.84623L141.034 4.92596L139.354 4.88835C138.779 4.87545 138.344 4.98575 138.051 5.21925C137.773 5.4531 137.629 5.82596 137.618 6.33783L137.57 8.4733L140.953 8.54905L140.924 9.84473L137.541 9.76897L137.287 21.0941L135.776 21.0603Z" fill="#2E2D30"/>
<path d="M148.359 21.7963L150.189 9.30569L151.377 9.47971L151.164 11.9227L151.307 11.9436C151.416 11.6363 151.628 11.2953 151.942 10.9209C152.258 10.5306 152.684 10.2131 153.221 9.96836C153.777 9.71016 154.434 9.63674 155.194 9.7481C155.447 9.78523 155.698 9.83818 155.947 9.90696C156.198 9.95992 156.407 10.0229 156.574 10.0959L156.383 11.402L155.457 11.2662C154.665 11.1502 153.993 11.2134 153.44 11.4558C152.889 11.6823 152.428 12.0189 152.055 12.4656C151.698 12.9146 151.416 13.4069 151.208 13.9424C151.018 14.4644 150.888 14.9629 150.819 15.4378L149.855 22.0155L148.359 21.7963Z" fill="#2E2D30"/>
<path d="M168.529 26.3797C167.09 25.9428 165.96 25.3406 165.139 24.5731C164.324 23.7904 163.813 22.8576 163.606 21.775C163.42 20.6817 163.533 19.4537 163.947 18.0912C164.365 16.7133 164.954 15.6294 165.712 14.8396C166.485 14.0545 167.426 13.571 168.535 13.3893C169.648 13.1922 170.925 13.3121 172.364 13.7491C173.803 14.186 174.93 14.7959 175.746 15.5787C176.566 16.3461 177.072 17.2688 177.263 18.3468C177.47 19.4295 177.364 20.6598 176.945 22.0377C176.531 23.4002 175.936 24.4818 175.157 25.2822C174.399 26.072 173.464 26.5655 172.35 26.7625C171.242 26.9443 169.968 26.8167 168.529 26.3797ZM168.905 25.1396C169.87 25.4325 170.776 25.532 171.624 25.4383C172.472 25.3446 173.217 25.0106 173.859 24.4365C174.502 23.8624 175.002 22.986 175.36 21.8071L175.499 21.3478C175.862 20.1536 175.936 19.1394 175.721 18.3049C175.506 17.4705 175.07 16.7863 174.413 16.2524C173.76 15.7031 172.952 15.282 171.987 14.9892C171.038 14.701 170.139 14.6037 169.292 14.6975C168.448 14.7759 167.706 15.1022 167.063 15.6763C166.421 16.2504 165.918 17.1345 165.555 18.3287L165.416 18.788C165.058 19.9668 164.987 20.9735 165.201 21.8079C165.416 22.6423 165.85 23.3341 166.503 23.8834C167.155 24.4327 167.956 24.8514 168.905 25.1396Z" fill="#2E2D30"/>
<path d="M181.039 30.5632L186.716 19.2876L187.788 19.8273L186.891 21.9285L187.062 22.0148C187.801 21.6162 188.524 21.3892 189.232 21.3339C189.948 21.2643 190.628 21.3199 191.271 21.5006C191.922 21.6669 192.512 21.8832 193.04 22.1495C194.027 22.6459 194.78 23.1954 195.301 23.7979C195.836 24.4076 196.12 25.106 196.153 25.8932C196.194 26.6661 195.963 27.5528 195.459 28.5531L191.736 35.9487L190.385 35.2688L193.968 28.1519C194.343 27.4087 194.552 26.7796 194.596 26.2646C194.64 25.7495 194.549 25.3092 194.321 24.9436C194.114 24.571 193.815 24.241 193.422 23.9537C193.043 23.6736 192.611 23.4112 192.125 23.1666C191.397 22.7996 190.599 22.6042 189.733 22.5804C188.889 22.5494 188.091 22.7118 187.339 23.0674C186.608 23.416 186.037 23.9976 185.627 24.8122L182.389 31.2431L181.039 30.5632Z" fill="#2E2D30"/>
<path d="M200.788 42.249C200.344 41.9348 200.023 41.5996 199.824 41.2434C199.625 40.8872 199.558 40.4969 199.623 40.0725C199.71 39.6443 199.93 39.1821 200.281 38.6857L205.478 31.3382L203.558 29.9799L204.307 28.9219L206.227 30.2802L208.539 27.594L209.499 28.2732L207.461 31.1534L210.145 33.0522L209.397 34.1103L206.713 32.2114L201.82 39.1278C201.45 39.6503 201.237 40.0772 201.179 40.4086C201.143 40.7361 201.406 41.0985 201.968 41.4958L203.437 42.5354L202.897 43.2995C202.681 43.2447 202.441 43.1537 202.178 43.0266C201.919 42.9217 201.674 42.7973 201.443 42.6533C201.202 42.5223 200.984 42.3876 200.788 42.249Z" fill="#2E2D30"/>
<path d="M214.17 53.3464C213.108 52.327 212.374 51.2897 211.968 50.2343C211.561 49.1789 211.506 48.1163 211.801 47.0466C212.107 45.9653 212.769 44.8936 213.789 43.8317C214.797 42.7813 215.824 42.0813 216.869 41.7317C217.926 41.3932 218.99 41.3941 220.06 41.7343C221.142 42.0856 222.22 42.7764 223.294 43.8068C224.413 44.8815 225.142 45.9473 225.481 47.0041C225.842 48.0604 225.88 49.0611 225.593 50.0062C225.319 50.9624 224.799 51.8387 224.035 52.6352L223.22 53.4836L214.65 45.2569C213.83 46.1337 213.339 46.9924 213.175 47.8332C213.034 48.6735 213.141 49.486 213.496 50.2709C213.874 51.0553 214.427 51.7965 215.154 52.4945C215.778 53.0928 216.38 53.5161 216.963 53.7645C217.556 54.0239 218.103 54.1711 218.601 54.2062C219.111 54.2523 219.563 54.2091 219.956 54.0766C220.35 53.9441 220.657 53.7737 220.88 53.5654L221.936 54.5792C221.592 54.9144 221.156 55.1836 220.628 55.3868C220.112 55.6011 219.514 55.7038 218.835 55.6951C218.179 55.6859 217.451 55.4971 216.651 55.1288C215.863 54.7715 215.036 54.1773 214.17 53.3464ZM215.514 44.3565L222.942 51.4863C223.562 50.8399 223.968 50.2092 224.159 49.5942C224.35 48.9793 224.383 48.3788 224.258 47.793C224.133 47.2071 223.89 46.6519 223.528 46.1275C223.178 45.5915 222.766 45.0963 222.292 44.6421C221.634 44.0105 220.929 43.544 220.176 43.2426C219.434 42.9523 218.664 42.8888 217.864 43.0523C217.075 43.2043 216.291 43.639 215.514 44.3565Z" fill="#2E2D30"/>
<path d="M223.376 62.6945L233.545 55.214L234.257 56.1807L232.505 57.6477L232.619 57.8023C233.458 57.7813 234.205 57.9067 234.862 58.1784C235.532 58.4406 236.112 58.798 236.604 59.2506C237.109 59.6936 237.537 60.1536 237.887 60.6305C238.542 61.5198 238.964 62.351 239.156 63.124C239.356 63.9099 239.293 64.6613 238.967 65.3783C238.653 66.0858 238.045 66.7714 237.143 67.4351L230.473 72.3415L229.577 71.1235L235.995 66.402C236.666 65.909 237.137 65.443 237.41 65.0039C237.683 64.5648 237.801 64.1307 237.763 63.7015C237.748 63.2757 237.63 62.8458 237.41 62.4118C237.2 61.9906 236.933 61.5609 236.611 61.1227C236.127 60.4654 235.505 59.93 234.744 59.5165C234.005 59.1064 233.22 58.8896 232.388 58.8658C231.579 58.8455 230.807 59.1056 230.072 59.646L224.272 63.9124L223.376 62.6945Z" fill="#2E2D30"/>
<path d="M236.691 84.0055C236.099 82.8171 235.821 81.7041 235.858 80.6666C235.916 79.6363 236.278 78.6958 236.945 77.845C237.632 77.0014 238.614 76.2618 239.888 75.6263C241.191 74.9766 242.383 74.6415 243.463 74.6212C244.551 74.6152 245.52 74.9096 246.371 75.5044C247.229 76.1135 247.958 77.0195 248.557 78.2222C248.879 78.8665 249.1 79.4893 249.221 80.0905C249.349 80.706 249.377 81.2999 249.305 81.8723C249.233 82.4446 249.06 82.9954 248.788 83.5246L248.863 83.675L254.769 80.7296L255.433 82.0612L239.905 89.8048L239.38 88.7524L241.142 87.6595L241.077 87.5306C240.112 87.3865 239.264 87.0135 238.535 86.4117C237.813 85.8242 237.198 85.0221 236.691 84.0055ZM237.958 83.5883C238.379 84.4331 238.905 85.1098 239.534 85.6185C240.17 86.1415 240.914 86.4321 241.765 86.4903C242.617 86.5484 243.594 86.3026 244.696 85.7528L245.083 85.56C245.913 85.1459 246.561 84.6886 247.027 84.1882C247.507 83.6807 247.819 83.1408 247.963 82.5685C248.121 81.9891 248.146 81.3952 248.04 80.7869C247.947 80.1714 247.748 79.5558 247.44 78.9401C247.041 78.1383 246.53 77.4902 245.908 76.9958C245.293 76.5158 244.563 76.2538 243.719 76.21C242.889 76.159 241.923 76.4084 240.82 76.9582L240.391 77.1724C239.302 77.7151 238.518 78.3296 238.038 79.016C237.558 79.7025 237.325 80.4356 237.338 81.2156C237.359 82.0099 237.565 82.8008 237.958 83.5883Z" fill="#2E2D30"/>
<path d="M246.061 110.304C245.776 109.007 245.777 107.859 246.066 106.862C246.374 105.877 246.954 105.053 247.808 104.391C248.681 103.74 249.813 103.262 251.203 102.956C252.626 102.644 253.863 102.61 254.916 102.853C255.972 103.113 256.84 103.634 257.521 104.419C258.204 105.219 258.69 106.275 258.979 107.588C259.133 108.291 259.196 108.949 259.167 109.561C259.141 110.189 259.023 110.772 258.814 111.31C258.604 111.847 258.303 112.339 257.91 112.786L257.946 112.95L264.392 111.534L264.711 112.987L247.764 116.711L247.511 115.563L249.486 114.932L249.455 114.792C248.553 114.416 247.822 113.848 247.262 113.087C246.705 112.341 246.304 111.413 246.061 110.304ZM247.391 110.208C247.594 111.13 247.938 111.914 248.424 112.561C248.914 113.223 249.564 113.686 250.376 113.95C251.187 114.214 252.195 114.214 253.398 113.95L253.82 113.857C254.726 113.658 255.466 113.372 256.04 113C256.629 112.625 257.063 112.178 257.342 111.658C257.637 111.134 257.806 110.565 257.851 109.949C257.912 109.329 257.868 108.684 257.72 108.012C257.528 107.136 257.191 106.383 256.708 105.752C256.229 105.137 255.585 104.705 254.777 104.456C253.984 104.205 252.986 104.211 251.783 104.475L251.314 104.579C250.127 104.84 249.216 105.244 248.583 105.793C247.95 106.342 247.545 106.996 247.368 107.756C247.194 108.531 247.202 109.348 247.391 110.208Z" fill="#2E2D30"/>
<path d="M248.685 130.405C248.62 128.934 248.804 127.677 249.238 126.632C249.671 125.588 250.364 124.78 251.315 124.209C252.283 123.637 253.502 123.319 254.972 123.253C256.427 123.188 257.653 123.389 258.651 123.857C259.65 124.341 260.419 125.075 260.96 126.06C261.501 127.061 261.805 128.305 261.871 129.791C261.941 131.342 261.733 132.616 261.249 133.615C260.782 134.629 260.119 135.379 259.26 135.866C258.402 136.369 257.421 136.645 256.318 136.694L255.143 136.747L254.613 124.879C253.414 124.948 252.466 125.231 251.768 125.727C251.086 126.237 250.603 126.9 250.319 127.713C250.052 128.542 249.941 129.46 249.986 130.467C250.024 131.33 250.169 132.052 250.419 132.634C250.67 133.231 250.964 133.714 251.3 134.084C251.638 134.469 251.995 134.749 252.371 134.925C252.747 135.1 253.088 135.189 253.392 135.191L253.457 136.654C252.977 136.659 252.476 136.554 251.954 136.337C251.432 136.136 250.929 135.798 250.443 135.323C249.974 134.864 249.577 134.225 249.252 133.407C248.928 132.604 248.739 131.604 248.685 130.405ZM255.859 124.823L256.319 135.109C257.214 135.069 257.943 134.892 258.506 134.578C259.068 134.265 259.506 133.853 259.82 133.342C260.133 132.832 260.34 132.262 260.44 131.633C260.556 131.003 260.599 130.361 260.57 129.705C260.529 128.794 260.34 127.97 260.003 127.232C259.666 126.511 259.152 125.933 258.46 125.499C257.784 125.065 256.917 124.84 255.859 124.823Z" fill="#2E2D30"/>
<path d="M248.361 147.717L261.601 143.337L261.401 145.005L253.905 147.44C253.636 147.537 253.275 147.655 252.823 147.794C252.387 147.935 251.928 148.073 251.444 148.209C250.959 148.36 250.524 148.493 250.139 148.608L250.122 148.751C250.409 148.914 250.749 149.1 251.143 149.308C251.535 149.533 251.941 149.775 252.361 150.035C252.781 150.295 253.164 150.526 253.51 150.729L260.217 154.87L260.025 156.466L248.198 149.076L248.361 147.717Z" fill="#2E2D30"/>
<path d="M244.105 167.272C244.517 165.859 245.097 164.728 245.844 163.879C246.592 163.03 247.508 162.489 248.593 162.255C249.693 162.026 250.949 162.117 252.363 162.529C253.76 162.937 254.856 163.523 255.65 164.288C256.439 165.068 256.931 166.011 257.125 167.118C257.314 168.24 257.201 169.515 256.784 170.943C256.35 172.433 255.743 173.573 254.963 174.362C254.193 175.171 253.324 175.668 252.354 175.851C251.379 176.051 250.362 175.996 249.302 175.687L248.173 175.357L251.498 163.952C250.341 163.632 249.352 163.594 248.531 163.837C247.721 164.101 247.05 164.572 246.519 165.251C245.999 165.949 245.598 166.782 245.316 167.75C245.074 168.579 244.978 169.31 245.027 169.941C245.072 170.587 245.194 171.139 245.394 171.597C245.589 172.071 245.837 172.451 246.136 172.739C246.436 173.026 246.729 173.22 247.017 173.32L246.607 174.726C246.15 174.576 245.71 174.315 245.286 173.941C244.857 173.582 244.489 173.1 244.183 172.494C243.887 171.908 243.717 171.175 243.674 170.296C243.625 169.432 243.769 168.424 244.105 167.272ZM252.696 164.302L249.814 174.186C250.674 174.437 251.421 174.505 252.055 174.389C252.688 174.274 253.236 174.025 253.697 173.643C254.159 173.261 254.538 172.788 254.836 172.225C255.149 171.666 255.397 171.072 255.58 170.442C255.836 169.567 255.923 168.726 255.841 167.919C255.755 167.127 255.455 166.414 254.94 165.781C254.44 165.152 253.692 164.659 252.696 164.302Z" fill="#2E2D30"/>
<path d="M239.906 179.819L255.737 186.922L255.118 188.301L239.287 181.198L239.906 179.819Z" fill="#2E2D30"/>
<path d="M231.22 195.698C232.018 194.424 232.896 193.491 233.851 192.9C234.82 192.318 235.854 192.069 236.953 192.154C238.057 192.26 239.212 192.692 240.419 193.448C241.639 194.212 242.531 195.064 243.095 196.003C243.65 196.955 243.87 197.989 243.755 199.107C243.654 200.233 243.204 201.433 242.405 202.708C241.606 203.982 240.722 204.91 239.753 205.493C238.798 206.083 237.775 206.33 236.684 206.232C235.585 206.147 234.426 205.723 233.206 204.958C231.999 204.202 231.111 203.344 230.543 202.383C229.979 201.445 229.748 200.412 229.849 199.286C229.964 198.169 230.421 196.973 231.22 195.698ZM232.318 196.386C231.783 197.241 231.449 198.089 231.318 198.932C231.186 199.775 231.313 200.581 231.699 201.352C232.085 202.122 232.8 202.834 233.843 203.489L234.25 203.743C235.308 204.406 236.267 204.743 237.129 204.754C237.99 204.766 238.765 204.524 239.452 204.03C240.153 203.544 240.772 202.874 241.307 202.019C241.834 201.179 242.163 200.337 242.294 199.494C242.439 198.66 242.319 197.858 241.933 197.087C241.548 196.317 240.826 195.6 239.769 194.938L239.362 194.683C238.318 194.029 237.365 193.696 236.504 193.685C235.642 193.673 234.861 193.911 234.16 194.397C233.459 194.883 232.845 195.546 232.318 196.386Z" fill="#2E2D30"/>
<path d="M220.779 203.872L233.3 215.11L232.498 216.003L230.852 214.783L230.756 214.89C230.999 215.818 230.979 216.714 230.697 217.579C230.427 218.454 229.923 219.303 229.186 220.125C228.267 221.149 227.318 221.834 226.34 222.182C225.362 222.529 224.349 222.556 223.302 222.261C222.255 221.966 221.19 221.333 220.106 220.36C219.047 219.409 218.303 218.429 217.874 217.422C217.458 216.424 217.358 215.421 217.576 214.413C217.794 213.426 218.347 212.439 219.234 211.451C219.726 210.903 220.246 210.456 220.793 210.109C221.329 209.751 221.882 209.495 222.451 209.34C223.021 209.184 223.601 209.124 224.192 209.161L224.288 209.053L219.769 204.998L220.779 203.872ZM220.361 212.172C219.762 212.839 219.353 213.546 219.133 214.294C218.913 215.043 218.943 215.812 219.223 216.601C219.504 217.39 220.097 218.191 221.002 219.003L221.359 219.324C222.276 220.147 223.147 220.649 223.973 220.831C224.798 221.013 225.571 220.943 226.29 220.621C227.01 220.322 227.675 219.832 228.284 219.154C228.904 218.463 229.334 217.732 229.576 216.96C229.807 216.199 229.793 215.413 229.534 214.599C229.276 213.809 228.682 212.997 227.753 212.163L227.432 211.875C226.741 211.255 226.078 210.821 225.441 210.572C224.794 210.335 224.172 210.249 223.575 210.316C222.978 210.382 222.41 210.571 221.872 210.883C221.335 211.218 220.831 211.648 220.361 212.172Z" fill="#2E2D30"/>
<path d="M207.761 217.49L218.178 230.701L217.235 231.444L215.822 229.961L215.708 230.05C215.789 231.005 215.617 231.885 215.191 232.689C214.776 233.506 214.135 234.256 213.268 234.939C212.187 235.791 211.135 236.305 210.112 236.48C209.089 236.655 208.087 236.508 207.105 236.039C206.124 235.57 205.183 234.764 204.281 233.62C203.399 232.502 202.834 231.41 202.584 230.344C202.344 229.29 202.417 228.285 202.804 227.328C203.188 226.394 203.901 225.515 204.944 224.693C205.522 224.237 206.11 223.885 206.709 223.637C207.298 223.376 207.886 223.218 208.474 223.162C209.062 223.106 209.644 223.147 210.22 223.283L210.333 223.194L206.573 218.426L207.761 217.49ZM205.931 225.596C205.227 226.151 204.703 226.778 204.358 227.478C204.013 228.177 203.912 228.94 204.053 229.766C204.195 230.591 204.642 231.481 205.395 232.436L205.692 232.813C206.455 233.781 207.228 234.425 208.01 234.745C208.793 235.065 209.566 235.128 210.329 234.934C211.09 234.762 211.828 234.393 212.545 233.828C213.273 233.254 213.823 232.607 214.193 231.887C214.55 231.178 214.67 230.4 214.554 229.555C214.435 228.732 213.989 227.83 213.216 226.85L212.948 226.511C212.374 225.782 211.794 225.241 211.209 224.887C210.612 224.543 210.014 224.353 209.414 224.316C208.815 224.279 208.223 224.369 207.639 224.584C207.053 224.823 206.483 225.16 205.931 225.596Z" fill="#2E2D30"/>
<path d="M188.81 235.185C190.104 234.484 191.316 234.101 192.445 234.036C193.574 233.971 194.603 234.242 195.532 234.849C196.469 235.47 197.287 236.428 197.988 237.722C198.681 239.003 199.034 240.194 199.049 241.296C199.049 242.406 198.724 243.419 198.073 244.335C197.409 245.258 196.422 246.074 195.114 246.782C193.749 247.521 192.511 247.891 191.402 247.891C190.286 247.913 189.321 247.643 188.508 247.083C187.681 246.529 187.005 245.768 186.48 244.797L185.92 243.762L196.368 238.108C195.783 237.06 195.115 236.33 194.364 235.918C193.607 235.527 192.8 235.381 191.944 235.481C191.082 235.602 190.208 235.902 189.321 236.382C188.561 236.793 187.974 237.238 187.56 237.717C187.132 238.203 186.825 238.679 186.64 239.143C186.441 239.615 186.344 240.058 186.35 240.473C186.357 240.888 186.425 241.233 186.556 241.508L185.268 242.205C185.054 241.775 184.93 241.278 184.898 240.713C184.851 240.157 184.935 239.556 185.151 238.912C185.359 238.289 185.761 237.654 186.356 237.004C186.936 236.363 187.754 235.756 188.81 235.185ZM196.962 239.205L187.907 244.106C188.334 244.894 188.81 245.473 189.338 245.842C189.865 246.212 190.427 246.426 191.023 246.486C191.619 246.545 192.222 246.482 192.832 246.298C193.449 246.128 194.047 245.886 194.623 245.574C195.426 245.14 196.085 244.61 196.602 243.985C197.104 243.367 197.4 242.653 197.488 241.841C197.584 241.043 197.408 240.165 196.962 239.205Z" fill="#2E2D30"/>
<path d="M176.985 241.034L181.276 252.907L180.147 253.314L179.18 251.061L179.044 251.11C179.093 251.433 179.068 251.833 178.968 252.311C178.874 252.805 178.648 253.286 178.291 253.756C177.923 254.246 177.379 254.621 176.656 254.882C176.416 254.969 176.169 255.041 175.918 255.098C175.672 255.17 175.458 255.214 175.276 255.228L174.827 253.987L175.707 253.669C176.46 253.397 177.022 253.023 177.395 252.548C177.773 252.088 178.021 251.574 178.138 251.004C178.241 250.439 178.257 249.872 178.187 249.302C178.107 248.752 177.986 248.252 177.823 247.8L175.563 241.548L176.985 241.034Z" fill="#2E2D30"/>
<path d="M153.349 252.982C153.888 252.905 154.38 252.957 154.826 253.135C155.271 253.314 155.642 253.593 155.939 253.971C156.237 254.365 156.425 254.831 156.502 255.369C156.579 255.908 156.529 256.408 156.352 256.869C156.175 257.331 155.898 257.71 155.52 258.006C155.142 258.302 154.684 258.489 154.145 258.566C153.607 258.643 153.115 258.592 152.669 258.413C152.207 258.236 151.827 257.951 151.529 257.557C151.23 257.163 151.043 256.697 150.966 256.158C150.889 255.62 150.939 255.12 151.116 254.658C151.294 254.213 151.581 253.84 151.975 253.542C152.353 253.246 152.811 253.059 153.349 252.982Z" fill="#2E2D30"/>
</svg>
