<svg width="250" height="259" viewBox="0 0 250 259" fill="none" xmlns="http://www.w3.org/2000/svg">
<path d="M219.668 123.72C219.946 119.726 221.912 118.429 224.532 118.612L224.442 119.908C222.393 119.766 221.091 120.874 220.887 123.805C220.69 126.632 221.571 128.205 223.205 128.319C223.88 128.366 224.467 128.172 224.847 127.573C225.172 127.022 225.433 125.894 225.752 123.935C226.109 121.797 226.483 120.546 227.054 119.829C227.595 119.163 228.475 118.886 229.408 118.951C231.717 119.111 233.125 121.346 232.898 124.614C232.645 128.246 230.899 129.74 227.968 129.536L228.06 128.213C230.317 128.37 231.493 127.201 231.675 124.582C231.845 122.143 230.919 120.463 229.389 120.357C228.766 120.313 228.105 120.45 227.749 121.077C227.367 121.702 227.098 122.934 226.761 124.787C226.374 126.975 226.128 127.897 225.631 128.67C225.108 129.442 224.171 129.793 223.16 129.723C220.722 129.554 219.412 127.403 219.668 123.72Z" fill="#2E2D30"/>
<path d="M217.734 137.785C218.528 134.34 220.97 133.008 223.934 133.692L231.661 135.474L231.346 136.842L223.821 135.107C221.49 134.569 219.542 135.614 218.899 138.401C218.198 141.441 219.919 144.159 223.34 144.948L229.167 146.292L228.851 147.66L216.336 144.774L216.651 143.406C217.481 143.624 219.097 144.023 220.516 144.35L220.522 144.325C218.243 143.212 217.044 140.775 217.734 137.785Z" fill="#2E2D30"/>
<path d="M212.488 154.448C213.613 151.733 215.68 150.479 217.734 150.683L217.744 150.659C216.639 150.201 215.404 149.718 214.76 149.507L215.297 148.21L231.944 155.105L231.407 156.402L225.449 153.934C225.017 153.755 224.066 153.333 223.379 153.021L223.369 153.045C225.312 154.469 225.814 156.928 224.729 159.546C223.336 162.909 220.159 164.126 216.532 162.623C212.616 161.002 211.125 157.739 212.488 154.448ZM213.775 154.671C212.68 157.313 213.85 159.993 217.045 161.316C219.976 162.53 222.527 161.533 223.642 158.842C224.846 155.936 223.768 153.238 220.621 151.935L219.973 151.666C217.618 150.691 214.989 151.74 213.775 154.671Z" fill="#2E2D30"/>
<path d="M206.122 166.941C208.221 163.532 210.565 163.296 212.801 164.673L212.119 165.78C210.37 164.703 208.703 165.08 207.162 167.582C205.676 169.995 205.727 171.797 207.121 172.656C207.697 173.011 208.307 173.111 208.922 172.757C209.465 172.42 210.22 171.542 211.411 169.954C212.72 168.226 213.631 167.291 214.47 166.922C215.258 166.583 216.166 166.745 216.963 167.236C218.933 168.449 219.144 171.083 217.426 173.872C215.517 176.972 213.277 177.485 210.776 175.945L211.471 174.816C213.397 176.002 214.981 175.512 216.358 173.276C217.64 171.195 217.6 169.277 216.293 168.472C215.762 168.145 215.113 167.959 214.507 168.349C213.878 168.725 213.069 169.693 211.91 171.178C210.552 172.937 209.906 173.638 209.107 174.093C208.286 174.534 207.293 174.411 206.429 173.879C204.348 172.597 204.186 170.085 206.122 166.941Z" fill="#2E2D30"/>
<path d="M197.682 178.731C200.028 175.914 203.53 175.65 206.687 178.279C209.843 180.909 210.183 184.44 207.77 187.337C205.707 189.814 202.704 190.291 200.227 188.228L201.076 187.209C202.954 188.773 205.244 188.38 206.775 186.542C208.639 184.304 208.345 181.488 205.788 179.358C203.231 177.228 200.441 177.409 198.644 179.566C197.03 181.504 196.987 183.871 198.828 185.438L197.996 186.437C195.539 184.39 195.535 181.308 197.682 178.731Z" fill="#2E2D30"/>
<path d="M192.34 185.109L200.914 194.672L199.868 195.609L197.356 192.729L197.336 192.746C198.473 194.87 198.42 197.187 196.426 198.975C194.296 200.884 191.939 200.553 189.77 198.133C189.266 197.572 188.767 196.937 188.511 196.573L189.479 195.705C189.7 196.03 190.113 196.568 190.564 197.072C192.369 199.085 194.085 199.363 195.788 197.836C197.821 196.013 197.63 193.112 195.286 190.499L191.295 186.046L192.34 185.109Z" fill="#2E2D30"/>
<path d="M189.948 206.183L191.37 208.138L190.129 209.041L188.707 207.085L189.948 206.183ZM181.304 194.433L188.86 204.82L187.724 205.646L180.169 195.259L181.304 194.433Z" fill="#2E2D30"/>
<path d="M171.058 200.801C173.615 199.353 176.017 199.637 177.511 201.062L177.533 201.049C176.944 200.008 176.268 198.867 175.89 198.305L177.111 197.613L185.989 213.292L184.767 213.984L181.59 208.373C181.359 207.966 180.87 207.048 180.521 206.379L180.498 206.392C181.153 208.71 180.035 210.956 177.569 212.353C174.401 214.146 171.148 213.149 169.214 209.733C167.126 206.045 167.959 202.556 171.058 200.801ZM171.935 201.768C169.446 203.178 168.719 206.009 170.423 209.019C171.985 211.779 174.611 212.563 177.145 211.129C179.882 209.579 180.693 206.789 179.015 203.825L178.669 203.214C177.414 200.997 174.695 200.206 171.935 201.768Z" fill="#2E2D30"/>
<path d="M154.967 215.738L154.693 215.008L164.527 211.318C163.352 208.26 160.881 207.077 158.13 208.109C155.866 208.958 154.698 210.729 155.231 212.668L153.989 213.134C153.143 210.508 154.658 208.106 157.701 206.965C161.279 205.622 164.444 207.1 165.86 210.873C167.321 214.768 165.962 218.028 162.408 219.361C159.097 220.603 156.328 219.365 154.967 215.738ZM156.309 215.54L156.354 215.662C157.35 218.315 159.447 219.167 161.93 218.235C164.437 217.294 165.55 215.155 164.853 212.334L156.309 215.54Z" fill="#2E2D30"/>
<path d="M137.842 211.949C141.627 211.421 144.5 213.566 145.064 217.609C145.632 221.678 143.46 224.554 139.675 225.082C135.915 225.607 133.014 223.439 132.446 219.37C131.882 215.328 134.083 212.474 137.842 211.949ZM138.018 213.211C135.108 213.617 133.38 215.906 133.837 219.176C134.297 222.472 136.589 224.226 139.499 223.82C142.409 223.414 144.133 221.099 143.673 217.803C143.217 214.533 140.928 212.805 138.018 213.211Z" fill="#2E2D30"/>
<path d="M128.553 213.136L128.355 225.979L126.951 225.957L127.062 222.136L127.036 222.136C126.428 224.467 124.816 226.132 122.138 226.091C119.279 226.047 117.773 224.203 117.823 220.954C117.835 220.2 117.899 219.395 117.958 218.953L119.258 218.974C119.2 219.363 119.137 220.038 119.127 220.714C119.085 223.417 120.156 224.786 122.444 224.821C125.174 224.864 127.003 222.604 127.057 219.094L127.149 213.115L128.553 213.136Z" fill="#2E2D30"/>
<path d="M102.632 210.301C106.201 211.139 108.004 214.152 107.066 218.152C106.128 222.151 103.122 224.036 99.4515 223.175C96.3127 222.439 94.5424 219.967 95.2788 216.829L96.5698 217.131C96.0115 219.511 97.3884 221.383 99.7172 221.929C102.552 222.594 104.939 221.071 105.699 217.831C106.459 214.591 105.049 212.177 102.316 211.536C99.8603 210.96 97.7246 211.981 97.1471 214.329L95.8814 214.032C96.6118 210.919 99.3666 209.535 102.632 210.301Z" fill="#2E2D30"/>
<path d="M89.1654 206.028C92.7127 207.451 94.1387 210.74 92.6191 214.529C91.0898 218.342 87.7764 219.758 84.2291 218.335C80.7059 216.922 79.2655 213.599 80.7948 209.786C82.3144 205.997 85.6422 204.615 89.1654 206.028ZM88.6911 207.211C85.9643 206.117 83.3271 207.244 82.0979 210.309C80.8589 213.398 81.9765 216.059 84.7034 217.153C87.4302 218.246 90.0771 217.095 91.316 214.006C92.5452 210.941 91.4179 208.304 88.6911 207.211Z" fill="#2E2D30"/>
<path d="M80.8941 202.719L74.2397 213.705L73.0388 212.978L74.9288 209.958L74.9065 209.945C73.0938 211.582 70.7072 211.809 68.0831 210.219C65.1476 208.441 64.4051 205.803 66.0755 203.045L70.1974 196.24L71.3983 196.968L67.4111 203.55C66.064 205.774 66.586 207.823 69.099 209.345C71.7676 210.961 74.5745 210.443 76.2852 207.618L79.6932 201.992L80.8941 202.719Z" fill="#2E2D30"/>
<path d="M63.6413 190.933C65.8855 192.748 65.7116 194.948 63.9624 197.111L59.5159 202.61L61.2546 204.016L60.4699 204.987L59.0547 203.843C58.7716 203.614 58.5359 203.657 58.1233 204.126L56.7587 205.731L55.8085 204.963L57.6394 202.698L53.8385 199.625L54.6232 198.654L58.4241 201.728L62.8216 196.289C64.1785 194.611 64.373 193.13 62.7758 191.839C62.1288 191.315 61.3674 190.934 61.0594 190.819L61.8277 189.868C62.1925 189.996 62.9337 190.361 63.6413 190.933Z" fill="#2E2D30"/>
<path d="M56.7528 184.416C58.7051 186.47 58.9752 188.867 57.2601 190.497C55.9409 191.751 53.9881 191.885 51.6596 189.435L47.7191 185.289L46.8522 186.113C45.0995 187.779 45.3044 189.844 47.2388 191.879C49.0299 193.764 50.8952 194.179 52.2899 192.854C52.4218 192.728 52.5914 192.567 52.7054 192.423L53.601 193.365C53.5058 193.491 53.2599 193.761 53.0714 193.94C51.2433 195.678 48.6636 195.152 46.3351 192.702C43.8455 190.083 43.6422 187.227 45.9603 185.024L51.7839 179.489L52.7511 180.507C52.2234 181.008 51.1887 181.92 50.3029 182.762L50.3208 182.781C52.2433 181.671 54.5855 182.135 56.7528 184.416ZM55.6879 185.069C53.4669 182.732 50.7345 182.423 48.6237 184.429L48.4918 184.555L52.3427 188.607C54.0801 190.435 55.3478 190.485 56.3467 189.536C57.5151 188.426 57.2104 186.671 55.6879 185.069Z" fill="#2E2D30"/>
<path d="M46.451 171.986C48.553 174.99 47.888 178.438 44.5224 180.794C41.1567 183.149 37.6593 182.55 35.4977 179.461C33.6491 176.82 33.9775 173.798 36.6189 171.949L37.3792 173.035C35.3768 174.437 35.1551 176.75 36.5266 178.71C38.1962 181.095 40.9908 181.552 43.7174 179.643C46.444 177.735 47.0023 174.996 45.3923 172.695C43.9462 170.629 41.6736 169.967 39.6776 171.332L38.9323 170.267C41.5524 168.433 44.5279 169.238 46.451 171.986Z" fill="#2E2D30"/>
<path d="M39.4951 160.603C40.8327 163.16 39.7984 165.11 37.3333 166.399L31.0667 169.677L32.1031 171.658L30.9972 172.237L30.1537 170.624C29.985 170.302 29.7514 170.248 29.1864 170.514L27.2962 171.444L26.7298 170.361L29.3101 169.011L27.0447 164.68L28.1505 164.102L30.416 168.433L36.6134 165.191C38.5257 164.191 39.293 162.91 38.3411 161.089C37.9554 160.352 37.4085 159.699 37.1718 159.471L38.2546 158.905C38.5385 159.167 39.0733 159.797 39.4951 160.603Z" fill="#2E2D30"/>
<path d="M34.4199 150.406L21.9497 153.482L21.6135 152.119L25.0085 151.335L25.0023 151.31C22.5996 151.341 20.8636 149.948 20.3156 147.726C19.7178 145.303 20.5939 143.427 22.6396 142.601L22.6334 142.575C20.4261 142.638 18.7028 141.188 18.1424 138.916C17.4574 136.14 18.8259 134.088 21.9056 133.329L29.731 131.398L30.0673 132.761L22.4943 134.629C20.0204 135.24 18.9247 136.769 19.4602 138.939C20.058 141.363 22.2423 142.618 25.3724 141.846L31.9105 140.233L32.2467 141.596L24.5223 143.502C22.1746 144.081 21.1042 145.604 21.6397 147.775C22.2312 150.173 24.466 151.416 27.6466 150.631L34.0837 149.043L34.4199 150.406Z" fill="#2E2D30"/>
<path d="M22.0196 117.055L22.7986 117.016L23.3254 127.507C26.5959 127.317 28.4743 125.322 28.327 122.388C28.2057 119.973 26.8732 118.321 24.8646 118.24L24.7981 116.916C27.5572 116.907 29.3844 119.08 29.5474 122.326C29.7391 126.144 27.3688 128.71 23.3438 128.912C19.1891 129.12 16.497 126.834 16.3067 123.043C16.1294 119.512 18.1505 117.249 22.0196 117.055ZM21.8005 118.394L21.6706 118.4C18.8402 118.543 17.3916 120.281 17.5246 122.93C17.6588 125.605 19.3588 127.316 22.2581 127.508L21.8005 118.394Z" fill="#2E2D30"/>
<path d="M30.6249 102.508C29.9652 106.457 27.8832 107.559 25.293 107.126L25.5072 105.844C27.5332 106.183 28.9355 105.204 29.4196 102.306C29.8865 99.5111 29.1605 97.8609 27.5449 97.5911C26.8781 97.4797 26.2754 97.6162 25.8392 98.176C25.4628 98.6931 25.0948 99.7915 24.5898 101.71C24.029 103.805 23.537 105.014 22.8999 105.672C22.297 106.283 21.3951 106.475 20.4718 106.321C18.1895 105.94 17.0021 103.58 17.5418 100.349C18.1415 96.7584 20.0228 95.4383 22.9206 95.9224L22.7021 97.2302C20.471 96.8575 19.1883 97.9086 18.7557 100.499C18.353 102.909 19.1132 104.671 20.6262 104.923C21.2417 105.026 21.9128 104.954 22.3276 104.364C22.7681 103.779 23.1532 102.578 23.6668 100.765C24.2618 98.6243 24.5955 97.731 25.1642 97.0089C25.7586 96.291 26.7248 96.0306 27.7249 96.1977C30.1355 96.6004 31.2332 98.8662 30.6249 102.508Z" fill="#2E2D30"/>
<path d="M33.8107 88.9862C32.6938 92.3412 30.1373 93.4357 27.251 92.4749L19.7269 89.9701L20.1704 88.638L27.4971 91.077C29.7666 91.8326 31.8053 90.9767 32.7087 88.2631C33.6941 85.3028 32.2377 82.4339 28.9074 81.3253L23.2336 79.4365L23.677 78.1043L35.8635 82.1612L35.42 83.4933C34.6142 83.1976 33.0436 82.6474 31.6621 82.1875L31.6539 82.2122C33.8168 83.535 34.7797 86.0752 33.8107 88.9862Z" fill="#2E2D30"/>
<path d="M40.6608 72.7526C39.2799 75.3458 37.1011 76.3948 35.0759 75.9939L35.0637 76.0169C36.1193 76.579 37.302 77.1793 37.9231 77.4511L37.2632 78.6904L21.3595 70.2215L22.0194 68.9823L27.7108 72.013C28.1239 72.2329 29.0296 72.7447 29.6829 73.1221L29.6951 73.0991C27.8986 71.4944 27.637 68.9985 28.969 66.4971C30.6799 63.2842 33.9599 62.3798 37.4252 64.2251C41.1659 66.2171 42.335 69.6086 40.6608 72.7526ZM39.4019 72.4062C40.7461 69.8818 39.8405 67.1019 36.7882 65.4766C33.9885 63.9857 31.3522 64.7322 29.9835 67.3025C28.5048 70.0793 29.3172 72.8684 32.3235 74.4693L32.9431 74.7993C35.1921 75.9969 37.9109 75.206 39.4019 72.4062Z" fill="#2E2D30"/>
<path d="M47.9024 61.2764C45.5001 64.4796 43.1445 64.5004 41.0437 62.9248L41.8237 61.8848C43.4669 63.1172 45.1621 62.8936 46.9248 60.5432C48.6252 58.276 48.7396 56.4768 47.4292 55.494C46.8884 55.0884 46.2904 54.9324 45.6456 55.2288C45.0736 55.5148 44.2416 56.3208 42.9104 57.7924C41.4492 59.394 40.456 60.2416 39.5876 60.5328C38.7712 60.798 37.882 60.5536 37.1332 59.9921C35.282 58.6037 35.3132 55.9621 37.2788 53.3413C39.4628 50.4292 41.7404 50.1224 44.0908 51.8852L43.2952 52.946C41.4856 51.5888 39.8632 51.932 38.2876 54.0328C36.8212 55.9881 36.686 57.9017 37.9132 58.822C38.4124 59.1964 39.0416 59.4408 39.6812 59.108C40.3416 58.7908 41.236 57.9016 42.5256 56.5288C44.0388 54.9012 44.746 54.2616 45.5832 53.882C46.4412 53.518 47.4188 53.7312 48.23 54.3396C50.1852 55.806 50.1176 58.3228 47.9024 61.2764Z" fill="#2E2D30"/>
<path d="M57.3987 50.2417C54.797 52.8245 51.2857 52.7566 48.3915 49.8412C45.4973 46.9259 45.4918 43.3776 48.1673 40.7215C50.4552 38.4501 53.4894 38.2589 55.7609 40.5469L54.8198 41.4811C53.098 39.7466 50.7808 39.9221 49.0833 41.6073C47.0167 43.6589 47.0432 46.4903 49.3879 48.8521C51.7326 51.2139 54.5268 51.2976 56.5195 49.3192C58.3093 47.5424 58.5753 45.1901 56.8902 43.4558L57.8127 42.5399C60.0658 44.8094 59.7789 47.8787 57.3987 50.2417Z" fill="#2E2D30"/>
<path d="M63.2186 44.3829L55.5875 34.0517L56.7168 33.2175L58.9458 36.3227L58.9667 36.3073C58.0365 34.0852 58.3081 31.7835 60.4622 30.1924C62.7627 28.4932 65.0779 29.0457 67.0089 31.6599C67.4568 32.2664 67.8939 32.9456 68.1147 33.332L67.069 34.1044C66.8791 33.7598 66.5193 33.1852 66.1177 32.6414C64.5111 30.4664 62.8295 30.0277 60.9891 31.3871C58.7932 33.0091 58.7095 35.9154 60.795 38.7387L64.3479 43.5488L63.2186 44.3829Z" fill="#2E2D30"/>
<path d="M67.5809 23.5706L66.351 21.4887L67.6718 20.7085L68.9016 22.7904L67.5809 23.5706ZM75.0668 36.0893L68.534 25.0308L69.7429 24.3167L76.2756 35.3752L75.0668 36.0893Z" fill="#2E2D30"/>
<path d="M86.1791 30.5221C83.495 31.7168 81.132 31.2034 79.7822 29.6414L79.7584 29.6519C80.2448 30.7446 80.8078 31.9454 81.1302 32.5418L79.8475 33.1128L72.5203 16.6519L73.8029 16.081L76.4251 21.9717C76.6154 22.3993 77.0146 23.36 77.2974 24.0594L77.3212 24.0488C76.8922 21.6784 78.2215 19.5499 80.8105 18.3974C84.136 16.9172 87.2782 18.2221 88.8748 21.8088C90.5982 25.6806 89.4333 29.0735 86.1791 30.5221ZM85.3998 29.4745C88.0126 28.3114 89.0089 25.5627 87.6027 22.4036C86.3127 19.5057 83.7752 18.4723 81.1149 19.6565C78.2407 20.9359 77.1652 23.6344 78.5503 26.7461L78.8358 27.3874C79.872 29.7152 82.5019 30.7644 85.3998 29.4745Z" fill="#2E2D30"/>
<path d="M103.748 17.1447L103.949 17.8983L93.8 20.6072C94.67 23.7657 97.0134 25.1854 99.852 24.4277C102.188 23.8041 103.524 22.1558 103.184 20.1745L104.465 19.8326C105.05 22.5289 103.307 24.7702 100.167 25.6083C96.4745 26.594 93.4694 24.8127 92.4301 20.9191C91.3573 16.8998 93.0297 13.7893 96.6973 12.8103C100.114 11.8984 102.748 13.4017 103.748 17.1447ZM102.393 17.2103L102.359 17.0847C101.628 14.3466 99.6249 13.2936 97.0626 13.9776C94.4752 14.6682 93.1576 16.6883 93.5754 19.5639L102.393 17.2103Z" fill="#2E2D30"/>
<path d="M120.163 22.5365C116.344 22.6987 113.691 20.2871 113.518 16.2088C113.344 12.1045 115.781 9.45069 119.6 9.28849C123.392 9.1274 126.072 11.5639 126.247 15.6682C126.42 19.7465 123.955 22.3755 120.163 22.5365ZM120.109 21.2637C123.044 21.139 124.984 19.0268 124.844 15.7277C124.703 12.4027 122.589 10.4367 119.654 10.5613C116.719 10.686 114.78 12.8242 114.921 16.1492C115.061 19.4483 117.173 21.3884 120.109 21.2637Z" fill="#2E2D30"/>
<path d="M129.739 22.1892L131.172 9.42541L132.567 9.58203L132.089 13.3744L132.115 13.3773C132.945 11.1157 134.709 9.61316 137.37 9.9119C140.213 10.2309 141.534 12.2107 141.171 15.4404C141.087 16.1897 140.946 16.9849 140.845 17.4183L139.553 17.2733C139.648 16.8915 139.775 16.2256 139.851 15.5538C140.152 12.8667 139.218 11.4013 136.944 11.146C134.231 10.8415 132.193 12.9151 131.802 16.4032L131.134 22.3459L129.739 22.1892Z" fill="#2E2D30"/>
<path d="M154.841 27.3192C151.367 26.1482 149.857 22.9776 151.169 19.0849C152.481 15.1921 155.652 13.5995 159.224 14.8037C162.279 15.8336 163.808 18.4615 162.778 21.5166L161.522 21.0931C162.302 18.7771 161.109 16.7834 158.842 16.0193C156.083 15.0891 153.562 16.3797 152.499 19.5333C151.436 22.687 152.612 25.2233 155.273 26.1203C157.662 26.9259 159.885 26.1112 160.682 23.8282L161.914 24.2434C160.892 27.2739 158.019 28.3906 154.841 27.3192Z" fill="#2E2D30"/>
<path d="M168.055 32.8806C164.662 31.1217 163.56 27.7101 165.439 24.086C167.329 20.4389 170.764 19.3493 174.157 21.1082C177.527 22.8551 178.64 26.3018 176.749 29.949C174.871 33.573 171.425 34.6275 168.055 32.8806ZM168.641 31.7496C171.25 33.1016 173.983 32.2344 175.503 29.3028C177.034 26.3482 176.179 23.5913 173.571 22.2393C170.962 20.8872 168.217 21.7775 166.685 24.7321C165.166 27.6637 166.033 30.3975 168.641 31.7496Z" fill="#2E2D30"/>
<path d="M176.131 37.0104L183.8 26.7071L184.926 27.5454L182.758 30.3718L182.778 30.3873C184.739 28.9293 187.136 28.931 189.597 30.7628C192.35 32.8119 192.838 35.509 190.914 38.0952L186.163 44.4774L185.037 43.6391L189.632 37.4655C191.184 35.3798 190.86 33.2906 188.503 31.5364C186 29.6735 183.156 29.9231 181.185 32.5719L177.257 37.8487L176.131 37.0104Z" fill="#2E2D30"/>
<path d="M192.082 50.2414C190.019 48.2231 190.4 46.0494 192.345 44.0609L197.291 39.006L195.693 37.4423L196.566 36.5502L197.867 37.8231C198.127 38.0776 198.366 38.0566 198.821 37.6288L200.331 36.1599L201.204 37.0145L199.168 39.0959L202.661 42.5144L201.789 43.4064L198.295 39.9879L193.404 44.9871C191.894 46.5295 191.561 47.9856 193.029 49.4221C193.624 50.004 194.346 50.4558 194.641 50.5996L193.787 51.4731C193.436 51.3114 192.732 50.8778 192.082 50.2414Z" fill="#2E2D30"/>
<path d="M198.389 57.3812C196.639 55.1517 196.597 52.7393 198.458 51.2786C199.89 50.155 201.846 50.2059 203.933 52.8648L207.464 57.3647L208.405 56.6263C210.307 55.1336 210.298 53.0585 208.565 50.8495C206.96 48.8041 205.142 48.2145 203.628 49.4023C203.485 49.5146 203.301 49.6591 203.174 49.7919L202.372 48.7692C202.478 48.6525 202.749 48.4073 202.953 48.2468C204.937 46.6898 207.456 47.4565 209.542 50.1155C211.773 52.9586 211.706 55.8207 209.19 57.795L202.87 62.7549L202.003 61.6504C202.576 61.2009 203.692 60.3911 204.653 59.6367L204.637 59.6163C202.619 60.5394 200.331 59.8561 198.389 57.3812ZM199.51 56.8313C201.501 59.3676 204.192 59.9329 206.483 58.1351L206.626 58.0228L203.175 53.6252C201.618 51.6412 200.361 51.4711 199.277 52.3218C198.008 53.3169 198.146 55.0928 199.51 56.8313Z" fill="#2E2D30"/>
<path d="M207.495 70.6921C205.689 67.5019 206.68 64.1325 210.255 62.1086C213.83 60.0847 217.254 61.0142 219.111 64.2949C220.7 67.1005 220.085 70.0779 217.279 71.6663L216.626 70.5124C218.753 69.3083 219.194 67.0268 218.015 64.9452C216.581 62.4112 213.842 61.6908 210.946 63.3304C208.05 64.97 207.233 67.6435 208.617 70.087C209.859 72.2817 212.059 73.158 214.176 71.9893L214.816 73.1206C212.033 74.6961 209.148 73.6108 207.495 70.6921Z" fill="#2E2D30"/>
<path d="M213.498 82.9741C212.413 80.2996 213.631 78.4592 216.209 77.4139L222.763 74.7567L221.923 72.6845L223.079 72.2156L223.763 73.9022C223.9 74.2396 224.127 74.3157 224.715 74.1054L226.687 73.3623L227.146 74.4947L224.447 75.5889L226.284 80.1187L225.127 80.5876L223.291 76.0578L216.809 78.6857C214.809 79.4966 213.922 80.6981 214.693 82.6016C215.006 83.3726 215.487 84.0753 215.701 84.3253L214.568 84.7845C214.311 84.496 213.84 83.8174 213.498 82.9741Z" fill="#2E2D30"/>
<path d="M217.553 93.5066L230.26 91.6336L230.465 93.0225L227.01 93.4792L227.014 93.5049C229.409 93.7038 231.004 95.2558 231.338 97.5193C231.702 99.9886 230.651 101.773 228.536 102.4L228.539 102.426C230.743 102.574 232.32 104.181 232.661 106.496C233.078 109.326 231.52 111.237 228.382 111.7L220.408 112.875L220.204 111.486L227.92 110.349C230.441 109.977 231.678 108.56 231.351 106.348C230.987 103.878 228.933 102.42 225.743 102.891L219.081 103.873L218.877 102.484L226.748 101.323C229.14 100.971 230.35 99.5571 230.024 97.345C229.664 94.9014 227.558 93.451 224.317 93.9287L217.758 94.8956L217.553 93.5066Z" fill="#2E2D30"/>
<path d="M138.795 120C138.795 126.756 137.172 132.823 134.601 137.168C132.016 141.535 128.589 144 124.999 144C121.409 144 117.982 141.535 115.397 137.168C112.826 132.823 111.203 126.756 111.203 120C111.203 113.244 112.826 107.177 115.397 102.832C117.982 98.4647 121.409 96 124.999 96C128.589 96 132.016 98.4647 134.601 102.832C137.172 107.177 138.795 113.244 138.795 120Z" stroke="#2E2D30" stroke-width="2"/>
<path d="M138.795 120C138.795 126.756 137.172 132.823 134.601 137.168C132.016 141.535 128.589 144 124.999 144C121.409 144 117.982 141.535 115.397 137.168C112.826 132.823 111.203 126.756 111.203 120C111.203 113.244 112.826 107.177 115.397 102.832C117.982 98.4647 121.409 96 124.999 96C128.589 96 132.016 98.4647 134.601 102.832C137.172 107.177 138.795 113.244 138.795 120Z" stroke="#2E2D30" stroke-width="2"/>
<path d="M138.795 120C138.795 126.756 137.172 132.823 134.601 137.168C132.016 141.535 128.589 144 124.999 144C121.409 144 117.982 141.535 115.397 137.168C112.826 132.823 111.203 126.756 111.203 120C111.203 113.244 112.826 107.177 115.397 102.832C117.982 98.4647 121.409 96 124.999 96C128.589 96 132.016 98.4647 134.601 102.832C137.172 107.177 138.795 113.244 138.795 120Z" stroke="#2E2D30" stroke-width="2"/>
<path d="M138.795 120C138.795 126.756 137.172 132.823 134.601 137.168C132.016 141.535 128.589 144 124.999 144C121.409 144 117.982 141.535 115.397 137.168C112.826 132.823 111.203 126.756 111.203 120C111.203 113.244 112.826 107.177 115.397 102.832C117.982 98.4647 121.409 96 124.999 96C128.589 96 132.016 98.4647 134.601 102.832C137.172 107.177 138.795 113.244 138.795 120Z" stroke="#2E2D30" stroke-width="2"/>
<circle cx="125" cy="120" r="24" stroke="#2E2D30" stroke-width="2"/>
<circle cx="125" cy="120" r="24" stroke="#2E2D30" stroke-width="2"/>
<circle cx="125" cy="120" r="24" stroke="#2E2D30" stroke-width="2"/>
<circle cx="125" cy="120" r="24" stroke="#2E2D30" stroke-width="2"/>
<mask id="mask0_565_456" style="mask-type:alpha" maskUnits="userSpaceOnUse" x="100" y="95" width="50" height="50">
<circle cx="25" cy="25" r="24" transform="matrix(1 0 0 -1 100 145)" fill="#2E2D30" stroke="#C1ACDC" stroke-width="2"/>
</mask>
<g mask="url(#mask0_565_456)">
<circle cx="25" cy="25" r="24" transform="matrix(1 0 0 -1 100 109.286)" stroke="#2E2D30" stroke-width="2"/>
<circle cx="25" cy="25" r="24" transform="matrix(1 0 0 -1 100 181.735)" stroke="#2E2D30" stroke-width="2"/>
</g>
<line x1="124.98" y1="96.0205" x2="124.98" y2="143.98" stroke="#2E2D30" stroke-width="2"/>
<line x1="101.02" y1="119" x2="148.979" y2="119" stroke="#2E2D30" stroke-width="2"/>
</svg>
