<svg width="271" height="270" viewBox="0 0 271 270" fill="none" xmlns="http://www.w3.org/2000/svg">
<mask id="path-1-inside-1_1001_1443" fill="white">
<path fill-rule="evenodd" clip-rule="evenodd" d="M163.189 156.598C161.235 156.527 159.737 158.314 160.148 160.225L164.323 179.672C164.847 182.114 167.95 182.883 169.555 180.97L172.723 177.191L177.291 181.021C178.561 182.085 180.453 181.919 181.518 180.649L186.631 174.549C187.695 173.28 187.529 171.387 186.259 170.323L181.691 166.493L185.257 162.239C186.861 160.326 185.561 157.404 183.066 157.314L163.189 156.598Z"/>
</mask>
<path fill-rule="evenodd" clip-rule="evenodd" d="M163.189 156.598C161.235 156.527 159.737 158.314 160.148 160.225L164.323 179.672C164.847 182.114 167.95 182.883 169.555 180.97L172.723 177.191L177.291 181.021C178.561 182.085 180.453 181.919 181.518 180.649L186.631 174.549C187.695 173.28 187.529 171.387 186.259 170.323L181.691 166.493L185.257 162.239C186.861 160.326 185.561 157.404 183.066 157.314L163.189 156.598Z" fill="#FFFBFB"/>
<path d="M160.148 160.225L162.103 159.806L162.103 159.806L160.148 160.225ZM163.189 156.598L163.261 154.599L163.261 154.599L163.189 156.598ZM164.323 179.672L162.367 180.092L162.367 180.092L164.323 179.672ZM172.723 177.191L174.008 175.658L172.475 174.373L171.19 175.906L172.723 177.191ZM181.691 166.493L180.158 165.208L178.873 166.741L180.406 168.026L181.691 166.493ZM183.066 157.314L183.138 155.315L183.138 155.315L183.066 157.314ZM162.103 159.806C161.966 159.169 162.466 158.573 163.117 158.596L163.261 154.599C160.005 154.482 157.508 157.46 158.192 160.645L162.103 159.806ZM166.278 179.252L162.103 159.806L158.192 160.645L162.367 180.092L166.278 179.252ZM168.022 179.685C167.487 180.323 166.453 180.066 166.278 179.252L162.367 180.092C163.241 184.161 168.414 185.444 171.087 182.255L168.022 179.685ZM171.19 175.906L168.022 179.685L171.087 182.255L174.255 178.475L171.19 175.906ZM178.576 179.488L174.008 175.658L171.438 178.723L176.006 182.553L178.576 179.488ZM179.985 179.364C179.63 179.787 178.999 179.843 178.576 179.488L176.006 182.553C178.123 184.327 181.276 184.05 183.05 181.934L179.985 179.364ZM185.098 173.264L179.985 179.364L183.05 181.934L188.164 175.834L185.098 173.264ZM184.974 171.856C185.398 172.211 185.453 172.841 185.098 173.264L188.164 175.834C189.938 173.718 189.66 170.564 187.544 168.79L184.974 171.856ZM180.406 168.026L184.974 171.856L187.544 168.79L182.975 164.96L180.406 168.026ZM183.724 160.954L180.158 165.208L183.223 167.778L186.789 163.524L183.724 160.954ZM182.994 159.313C183.826 159.343 184.259 160.317 183.724 160.954L186.789 163.524C189.463 160.335 187.297 155.465 183.138 155.315L182.994 159.313ZM163.117 158.596L182.994 159.313L183.138 155.315L163.261 154.599L163.117 158.596Z" fill="#2E2D30" mask="url(#path-1-inside-1_1001_1443)"/>
</svg>
