<svg width="1690" height="1080" viewBox="0 0 1690 1080" fill="none" xmlns="http://www.w3.org/2000/svg">
<mask id="path-1-inside-1_428_13" fill="white">
<path fill-rule="evenodd" clip-rule="evenodd" d="M540.392 70.453C527.437 28.5637 488.704 0 444.857 0H100C44.7715 0 0 44.7715 0 100V980C0 1035.23 44.7716 1080 100 1080H1590C1645.23 1080 1690 1035.23 1690 980V100C1690 44.7715 1645.23 0 1590 0H1264.07C1220.28 0 1182.12 29.8228 1171.53 72.3159C1160.94 114.809 1122.78 144.632 1078.99 144.632H637.079C593.232 144.632 554.5 116.068 541.544 74.1787L540.392 70.453Z"/>
</mask>
<path fill-rule="evenodd" clip-rule="evenodd" d="M540.392 70.453C527.437 28.5637 488.704 0 444.857 0H100C44.7715 0 0 44.7715 0 100V980C0 1035.23 44.7716 1080 100 1080H1590C1645.23 1080 1690 1035.23 1690 980V100C1690 44.7715 1645.23 0 1590 0H1264.07C1220.28 0 1182.12 29.8228 1171.53 72.3159C1160.94 114.809 1122.78 144.632 1078.99 144.632H637.079C593.232 144.632 554.5 116.068 541.544 74.1787L540.392 70.453Z" fill="#FFFBFB"/>
<path d="M540.392 70.453L537.526 71.3394L540.392 70.453ZM100 3H444.857V-3H100V3ZM3 980V100H-3V980H3ZM1590 1077H100V1083H1590V1077ZM1687 100V980H1693V100H1687ZM1264.07 3H1590V-3H1264.07V3ZM1078.99 141.632H637.079V147.632H1078.99V141.632ZM544.41 73.2923L543.258 69.5666L537.526 71.3394L538.678 75.0651L544.41 73.2923ZM637.079 141.632C594.548 141.632 556.977 113.925 544.41 73.2923L538.678 75.0651C552.022 118.211 591.917 147.632 637.079 147.632V141.632ZM1168.62 71.5906C1158.37 112.747 1121.4 141.632 1078.99 141.632V147.632C1124.16 147.632 1163.52 116.871 1174.44 73.0411L1168.62 71.5906ZM1264.07 -3C1218.9 -3 1179.54 27.7609 1168.62 71.5906L1174.44 73.0411C1184.7 31.8847 1221.66 3 1264.07 3V-3ZM1693 100C1693 43.1147 1646.89 -3 1590 -3V3C1643.57 3 1687 46.4284 1687 100H1693ZM1590 1083C1646.89 1083 1693 1036.89 1693 980H1687C1687 1033.57 1643.57 1077 1590 1077V1083ZM-3 980C-3 1036.89 43.1147 1083 100 1083V1077C46.4284 1077 3 1033.57 3 980H-3ZM444.857 3C487.388 3 524.959 30.7068 537.526 71.3394L543.258 69.5666C529.914 26.4206 490.019 -3 444.857 -3V3ZM100 -3C43.1147 -3 -3 43.1147 -3 100H3C3 46.4284 46.4284 3 100 3V-3Z" fill="#2E2D30" mask="url(#path-1-inside-1_428_13)"/>
</svg>
