<svg width="184" height="177" viewBox="0 0 184 177" fill="none" xmlns="http://www.w3.org/2000/svg">
<mask id="path-1-outside-1_1573_268" maskUnits="userSpaceOnUse" x="0" y="0" width="184" height="177" fill="black">
<rect fill="white" width="184" height="177"/>
<path fill-rule="evenodd" clip-rule="evenodd" d="M177.999 88.3089C177.999 133.767 141.148 170.618 95.6897 170.618C58.7237 170.618 27.4494 146.249 17.0548 112.699C10.2788 106.765 6 98.0493 6 88.3342C6 78.6295 10.2698 69.922 17.0332 63.9879C27.4061 30.4025 58.6982 6 95.6897 6C141.148 6 177.999 42.8509 177.999 88.3089Z"/>
</mask>
<path fill-rule="evenodd" clip-rule="evenodd" d="M177.999 88.3089C177.999 133.767 141.148 170.618 95.6897 170.618C58.7237 170.618 27.4494 146.249 17.0548 112.699C10.2788 106.765 6 98.0493 6 88.3342C6 78.6295 10.2698 69.922 17.0332 63.9879C27.4061 30.4025 58.6982 6 95.6897 6C141.148 6 177.999 42.8509 177.999 88.3089Z" fill="#FFFBFB"/>
<path d="M17.0548 112.699L22.786 110.924L22.284 109.303L21.0079 108.186L17.0548 112.699ZM17.0332 63.9879L20.9903 68.498L22.2654 67.3792L22.766 65.7585L17.0332 63.9879ZM95.6897 176.618C144.461 176.618 183.999 137.081 183.999 88.3089H171.999C171.999 130.453 137.834 164.618 95.6897 164.618V176.618ZM11.3235 114.475C22.4743 150.465 56.02 176.618 95.6897 176.618V164.618C61.4274 164.618 32.4245 142.033 22.786 110.924L11.3235 114.475ZM0 88.3342C0 99.8506 5.08014 110.188 13.1016 117.213L21.0079 108.186C15.4775 103.342 12 96.2479 12 88.3342H0ZM13.0761 59.4778C5.06938 66.5027 0 76.8301 0 88.3342H12C12 80.4289 15.4701 73.3413 20.9903 68.498L13.0761 59.4778ZM95.6897 0C55.9926 0 22.4279 26.1887 11.3004 62.2173L22.766 65.7585C32.3843 34.6163 61.4037 12 95.6897 12V0ZM183.999 88.3089C183.999 39.5372 144.461 0 95.6897 0V12C137.834 12 171.999 46.1646 171.999 88.3089H183.999Z" fill="#FFFBFB" mask="url(#path-1-outside-1_1573_268)"/>
<circle cx="95.6897" cy="88.3089" r="80.3089" fill="#E7E2DE" stroke="#515151" stroke-width="4"/>
<path d="M134.844 88.3089C134.844 110.795 130.283 131.053 123.001 145.616C115.66 160.298 105.888 168.618 95.6896 168.618C85.4908 168.618 75.719 160.298 68.3779 145.616C61.0965 131.053 56.5352 110.795 56.5352 88.3089C56.5352 65.8231 61.0965 45.5649 68.3779 31.0021C75.719 16.3198 85.4908 8 95.6896 8C105.888 8 115.66 16.3198 123.001 31.0021C130.283 45.5649 134.844 65.8231 134.844 88.3089Z" fill="#E7E2DE" stroke="#515151" stroke-width="4"/>
<rect x="94.0449" y="6" width="4" height="164.618" fill="#515151"/>
<rect x="13.3809" y="86.6641" width="164.618" height="4" fill="#515151"/>
<rect x="26.5508" y="44.6855" width="138.279" height="4" fill="#515151"/>
<rect x="25.7617" y="128.422" width="139.44" height="4" fill="#515151"/>
<path d="M77.9165 115.687C76.3653 115.219 75.0449 113.789 73.6643 112.972C71.8241 111.884 69.2296 111.427 67.2317 112.227C66.2355 112.625 64.6131 114.076 65.4313 115.52C65.8492 116.258 66.5777 116.906 67.2317 117.417C67.2395 117.423 67.8561 117.761 67.8741 117.863C67.9195 118.12 65.2755 119.665 65.016 119.912C64.2016 120.688 63.3492 122.004 63.7304 123.219C64.3439 125.173 67.0494 125.267 68.634 125.042C71.4182 124.646 74.035 123.47 76.6137 122.382" stroke="#515151" stroke-width="4" stroke-linecap="round"/>
<circle cx="107.547" cy="88.3342" r="30.3772" fill="#515151" stroke="#515151" stroke-width="4"/>
<mask id="mask0_1573_268" style="mask-type:alpha" maskUnits="userSpaceOnUse" x="80" y="61" width="55" height="55">
<circle cx="107.481" cy="88.4812" r="27.4812" fill="#D9D9D9"/>
</mask>
<g mask="url(#mask0_1573_268)">
</g>
<mask id="mask1_1573_268" style="mask-type:alpha" maskUnits="userSpaceOnUse" x="80" y="61" width="56" height="56">
<circle cx="108" cy="89" r="28" fill="#D9D9D9"/>
</mask>
<g mask="url(#mask1_1573_268)">
<rect x="116.451" y="47.4863" width="13.8954" height="75.023" transform="rotate(25.4647 116.451 47.4863)" fill="#FFFBFB"/>
<rect x="132.256" y="57" width="4.89025" height="75.023" transform="rotate(25.4647 132.256 57)" fill="#FFFBFB"/>
</g>
<circle cx="38.3772" cy="88.3342" r="30.3772" fill="#515151" stroke="#515151" stroke-width="4"/>
<mask id="mask2_1573_268" style="mask-type:alpha" maskUnits="userSpaceOnUse" x="10" y="61" width="56" height="56">
<circle cx="38" cy="89" r="28" fill="#D9D9D9"/>
</mask>
<g mask="url(#mask2_1573_268)">
</g>
<mask id="mask3_1573_268" style="mask-type:alpha" maskUnits="userSpaceOnUse" x="10" y="61" width="56" height="56">
<circle cx="38" cy="89" r="28" fill="#D9D9D9"/>
</mask>
<g mask="url(#mask3_1573_268)">
<rect x="47.1387" y="47.2324" width="14.1577" height="76.4392" transform="rotate(25.4647 47.1387 47.2324)" fill="#FFFBFB"/>
<rect x="63.8652" y="56" width="4.98256" height="76.4392" transform="rotate(25.4647 63.8652 56)" fill="#FFFBFB"/>
</g>
</svg>
