<svg width="566" height="510" viewBox="0 0 566 510" fill="none" xmlns="http://www.w3.org/2000/svg">
<circle cx="190.417" cy="216.938" r="47.4773" fill="#FFFBFB" stroke="#2E2D30" stroke-width="4"/>
<mask id="mask0_1358_2851" style="mask-type:alpha" maskUnits="userSpaceOnUse" x="140" y="167" width="100" height="100">
<circle cx="190.417" cy="216.938" r="47.4773" fill="#FFFBFB" stroke="#2E2D30" stroke-width="4"/>
</mask>
<g mask="url(#mask0_1358_2851)">
<circle cx="190.237" cy="213.237" r="29.2366" fill="#2E2D30"/>
</g>
<mask id="path-4-inside-1_1358_2851" fill="white">
<path d="M239.955 217.978C239.955 224.279 238.675 230.517 236.188 236.338C233.702 242.159 230.057 247.448 225.463 251.904C220.869 256.359 215.414 259.893 209.411 262.304C203.409 264.715 196.975 265.956 190.477 265.956C183.98 265.956 177.546 264.715 171.543 262.304C165.54 259.893 160.086 256.359 155.492 251.904C150.897 247.448 147.253 242.159 144.766 236.338C142.28 230.517 141 224.279 141 217.978L190.477 217.978H239.955Z"/>
</mask>
<path d="M239.955 217.978C239.955 224.279 238.675 230.517 236.188 236.338C233.702 242.159 230.057 247.448 225.463 251.904C220.869 256.359 215.414 259.893 209.411 262.304C203.409 264.715 196.975 265.956 190.477 265.956C183.98 265.956 177.546 264.715 171.543 262.304C165.54 259.893 160.086 256.359 155.492 251.904C150.897 247.448 147.253 242.159 144.766 236.338C142.28 230.517 141 224.279 141 217.978L190.477 217.978H239.955Z" fill="#E7E2DE" stroke="#2E2D30" stroke-width="8" mask="url(#path-4-inside-1_1358_2851)"/>
<circle cx="179.5" cy="201.5" r="4.5" fill="#FFFBFB"/>
<circle cx="186" cy="195" r="2" fill="#FFFBFB"/>
<circle cx="274.38" cy="216.938" r="47.4773" fill="#FFFBFB" stroke="#2E2D30" stroke-width="4"/>
<mask id="mask1_1358_2851" style="mask-type:alpha" maskUnits="userSpaceOnUse" x="224" y="167" width="100" height="100">
<circle cx="274.38" cy="216.938" r="47.4773" fill="#FFFBFB" stroke="#2E2D30" stroke-width="4"/>
</mask>
<g mask="url(#mask1_1358_2851)">
<circle cx="273.237" cy="213.237" r="29.2366" fill="#2E2D30"/>
</g>
<mask id="path-10-inside-2_1358_2851" fill="white">
<path d="M323.955 217.978C323.955 224.279 322.675 230.517 320.188 236.338C317.702 242.159 314.057 247.448 309.463 251.904C304.869 256.359 299.414 259.893 293.411 262.304C287.409 264.715 280.975 265.956 274.477 265.956C267.98 265.956 261.546 264.715 255.543 262.304C249.54 259.893 244.086 256.359 239.492 251.904C234.897 247.448 231.253 242.159 228.766 236.338C226.28 230.517 225 224.279 225 217.978L274.477 217.978H323.955Z"/>
</mask>
<path d="M323.955 217.978C323.955 224.279 322.675 230.517 320.188 236.338C317.702 242.159 314.057 247.448 309.463 251.904C304.869 256.359 299.414 259.893 293.411 262.304C287.409 264.715 280.975 265.956 274.477 265.956C267.98 265.956 261.546 264.715 255.543 262.304C249.54 259.893 244.086 256.359 239.492 251.904C234.897 247.448 231.253 242.159 228.766 236.338C226.28 230.517 225 224.279 225 217.978L274.477 217.978H323.955Z" fill="#E7E2DE" stroke="#2E2D30" stroke-width="8" mask="url(#path-10-inside-2_1358_2851)"/>
<circle cx="269" cy="195" r="2" fill="#FFFBFB"/>
<circle cx="260.5" cy="201.5" r="4.5" fill="#FFFBFB"/>
</svg>
