<svg width="515" height="428" viewBox="0 0 515 428" fill="none" xmlns="http://www.w3.org/2000/svg">
<circle cx="175.417" cy="134.938" r="47.4773" fill="#FFFBFB" stroke="#2E2D30" stroke-width="4"/>
<mask id="mask0_1358_2974" style="mask-type:alpha" maskUnits="userSpaceOnUse" x="125" y="85" width="100" height="100">
<circle cx="175.417" cy="134.938" r="47.4773" fill="#FFFBFB" stroke="#2E2D30" stroke-width="4"/>
</mask>
<g mask="url(#mask0_1358_2974)">
<circle cx="143.182" cy="143.184" r="29.2366" fill="#2E2D30"/>
</g>
<mask id="path-4-inside-1_1358_2974" fill="white">
<path d="M224.894 133.438C224.894 127.138 223.614 120.899 221.128 115.078C218.641 109.257 214.997 103.968 210.403 99.5129C205.808 95.0577 200.354 91.5237 194.351 89.1126C188.348 86.7014 181.914 85.4604 175.417 85.4604C168.919 85.4604 162.485 86.7014 156.483 89.1126C150.48 91.5237 145.025 95.0577 140.431 99.5129C135.837 103.968 132.192 109.257 129.706 115.078C127.219 120.899 125.939 127.138 125.939 133.438L175.417 133.438H224.894Z"/>
</mask>
<path d="M224.894 133.438C224.894 127.138 223.614 120.899 221.128 115.078C218.641 109.257 214.997 103.968 210.403 99.5129C205.808 95.0577 200.354 91.5237 194.351 89.1126C188.348 86.7014 181.914 85.4604 175.417 85.4604C168.919 85.4604 162.485 86.7014 156.483 89.1126C150.48 91.5237 145.025 95.0577 140.431 99.5129C135.837 103.968 132.192 109.257 129.706 115.078C127.219 120.899 125.939 127.138 125.939 133.438L175.417 133.438H224.894Z" fill="#E7E2DE" stroke="#2E2D30" stroke-width="8" mask="url(#path-4-inside-1_1358_2974)"/>
<circle cx="160.5" cy="138.5" r="4.5" fill="#FFFBFB"/>
<circle cx="166" cy="145" r="2" fill="#FFFBFB"/>
<circle cx="259.38" cy="134.938" r="47.4773" fill="#FFFBFB" stroke="#2E2D30" stroke-width="4"/>
<mask id="mask1_1358_2974" style="mask-type:alpha" maskUnits="userSpaceOnUse" x="209" y="85" width="100" height="100">
<circle cx="259.38" cy="134.938" r="47.4773" fill="#FFFBFB" stroke="#2E2D30" stroke-width="4"/>
</mask>
<g mask="url(#mask1_1358_2974)">
<circle cx="227.145" cy="143.184" r="29.2366" fill="#2E2D30"/>
</g>
<mask id="path-10-inside-2_1358_2974" fill="white">
<path d="M308.857 133.439C308.857 127.138 307.577 120.9 305.091 115.079C302.604 109.258 298.96 103.969 294.365 99.5134C289.771 95.0582 284.317 91.5242 278.314 89.113C272.311 86.7019 265.877 85.4609 259.38 85.4609C252.882 85.4609 246.448 86.7019 240.446 89.113C234.443 91.5242 228.988 95.0582 224.394 99.5134C219.8 103.969 216.155 109.258 213.669 115.079C211.182 120.9 209.902 127.138 209.902 133.439L259.38 133.439H308.857Z"/>
</mask>
<path d="M308.857 133.439C308.857 127.138 307.577 120.9 305.091 115.079C302.604 109.258 298.96 103.969 294.365 99.5134C289.771 95.0582 284.317 91.5242 278.314 89.113C272.311 86.7019 265.877 85.4609 259.38 85.4609C252.882 85.4609 246.448 86.7019 240.446 89.113C234.443 91.5242 228.988 95.0582 224.394 99.5134C219.8 103.969 216.155 109.258 213.669 115.079C211.182 120.9 209.902 127.138 209.902 133.439L259.38 133.439H308.857Z" fill="#E7E2DE" stroke="#2E2D30" stroke-width="8" mask="url(#path-10-inside-2_1358_2974)"/>
<circle cx="250" cy="145" r="2" fill="#FFFBFB"/>
<circle cx="243.5" cy="138.5" r="4.5" fill="#FFFBFB"/>
</svg>
