<svg width="566" height="520" viewBox="0 0 566 520" fill="none" xmlns="http://www.w3.org/2000/svg">
<path d="M422.389 255.996L412.517 254.403L411.193 262.609L419.019 265.411L422.389 255.996ZM424.281 234.93V224.93H414.475L414.283 234.734L424.281 234.93ZM465.474 282.857L458.135 289.649L462.999 294.905L469.542 291.992L465.474 282.857ZM489.71 285.857L480.617 290.018L480.617 290.018L489.71 285.857ZM489.388 295.132L498.648 298.908L498.652 298.898L489.388 295.132ZM489.368 295.178L498.5 299.254L498.507 299.239L498.513 299.225L489.368 295.178ZM489.352 295.214L498.46 299.342L498.472 299.316L498.484 299.289L489.352 295.214ZM489.323 295.278L498.424 299.423L498.427 299.415L498.431 299.407L489.323 295.278ZM489.314 295.298L480.213 291.154L480.211 291.16L489.314 295.298ZM489.304 295.32L498.399 299.477L498.403 299.468L498.407 299.459L489.304 295.32ZM489.299 295.331L498.328 299.63L498.362 299.559L498.394 299.488L489.299 295.331ZM489.299 295.332L480.27 291.032L480.234 291.108L480.2 291.183L489.299 295.332ZM489.036 295.923L479.844 291.984L474.743 303.888L487.55 305.812L489.036 295.923ZM490.719 297.627L500.624 296.255L500.624 296.255L490.719 297.627ZM490.822 298.659L480.838 299.234L481.333 307.829L489.907 308.617L490.822 298.659ZM514.712 306.147L507.56 313.137L507.561 313.137L514.712 306.147ZM515.155 306.599L508.011 313.597L508.012 313.598L515.155 306.599ZM515.516 306.968L522.662 299.973L522.659 299.969L515.516 306.968ZM515.543 306.995L508.397 313.991L508.401 313.995L515.543 306.995ZM529.264 335.384L519.266 335.611L519.295 336.856L519.627 338.056L529.264 335.384ZM527.071 351.058L517.88 347.119L517.88 347.119L527.071 351.058ZM520.144 355.921L518.131 346.126L518.13 346.126L520.144 355.921ZM518.618 356.023V366.023H518.872L519.126 366.01L518.618 356.023ZM518.617 356.023V346.023H518.363L518.109 346.036L518.617 356.023ZM515.867 356.201L514.892 346.249L506.92 347.029L505.942 354.98L515.867 356.201ZM514.762 357.75L510.356 348.774L503.574 352.103L504.923 359.536L514.762 357.75ZM514.864 358.26L524.653 356.217L524.653 356.216L514.864 358.26ZM514.923 358.545L505.113 360.489L505.114 360.492L514.923 358.545ZM514.983 358.889L505.087 360.327L505.087 360.328L514.983 358.889ZM515.125 364.849L505.34 362.789L505.34 362.789L515.125 364.849ZM503.192 375.531L502.401 365.562L502.401 365.562L503.192 375.531ZM498.811 374.693L503.617 365.924L490.762 358.878L488.892 373.417L498.811 374.693ZM498.806 374.73L508.724 376.009L508.724 376.006L498.806 374.73ZM496.566 376.457L495.286 386.375L495.287 386.375L496.566 376.457ZM496.373 376.423L498.61 366.676L488.482 364.352L486.547 374.561L496.373 376.423ZM492.175 383.091L485.842 375.351L485.842 375.351L492.175 383.091ZM481.364 386.909L480.872 376.921L480.872 376.921L481.364 386.909ZM478.091 386.959L478.402 376.964L448.848 376.045L471.777 394.714L478.091 386.959ZM483.107 392.4L474.766 397.916L474.766 397.916L483.107 392.4ZM491.313 419.205L481.355 418.294L481.355 418.294L491.313 419.205ZM476.119 441.636L470.457 433.394L470.457 433.394L476.119 441.636ZM451.791 447.837L453.282 437.948L453.282 437.948L451.791 447.837ZM443.866 445.794L446.837 436.246L446.566 436.162L446.291 436.093L443.866 445.794ZM443.865 445.794L440.893 455.342L441.164 455.427L441.439 455.496L443.865 445.794ZM442.001 445.22L439.113 454.794L439.113 454.794L442.001 445.22ZM433.037 440.97L439.869 433.668L439.869 433.668L433.037 440.97ZM424.711 427.141L434.439 424.823L434.439 424.823L424.711 427.141ZM424.438 425.249L414.504 426.395L414.513 426.478L414.524 426.56L424.438 425.249ZM424.438 425.247L434.372 424.1L434.356 423.966L434.337 423.832L424.438 425.247ZM424.438 425.246L434.337 423.832L434.264 423.321L434.139 422.821L424.438 425.246ZM424.438 425.246L414.524 426.556L414.598 427.119L414.736 427.671L424.438 425.246ZM422.259 415.687L422.863 425.668L422.863 425.668L422.259 415.687ZM420.177 416.628L414.876 408.149L414.876 408.149L420.177 416.628ZM418.976 417.297L415.286 408.002L415.285 408.003L418.976 417.297ZM414.784 418.294L413.188 408.422L413.185 408.422L414.784 418.294ZM414.491 418.341L412.892 408.47L412.878 408.472L414.491 418.341ZM414.353 418.364L412.74 408.494L412.735 408.495L414.353 418.364ZM412.202 418.753L410.339 408.928L409.678 409.053L409.04 409.266L412.202 418.753ZM412.202 418.753L414.163 428.559L414.773 428.437L415.364 428.24L412.202 418.753ZM412.201 418.753L414.064 428.578L414.113 428.569L414.162 428.559L412.201 418.753ZM404.169 419.334L405.707 409.453L405.707 409.453L404.169 419.334ZM397.443 415.075L404.809 408.311L404.809 408.311L397.443 415.075ZM391.81 407.479L400.496 402.523L396.506 395.529L388.822 397.935L391.81 407.479ZM314.566 376.416L323.368 371.669L319.581 364.646L311.892 366.78L314.566 376.416ZM280.856 381.725L280.432 371.734L274.492 371.987L271.877 377.325L280.856 381.725ZM270.098 411.901L260.414 409.407L258.619 416.374L264.655 420.29L270.098 411.901ZM272.562 413.677L278.821 405.878L278.821 405.878L272.562 413.677ZM278.196 435.334L285.267 442.405L285.267 442.405L278.196 435.334ZM270.941 439.708L271.453 449.695L271.467 449.694L271.481 449.693L270.941 439.708ZM270.839 439.713L271.334 449.701L271.342 449.701L271.351 449.7L270.839 439.713ZM268.557 442.429L260.547 436.443L260.547 436.443L268.557 442.429ZM268.133 443.02L259.653 437.72L268.133 443.02ZM264.461 453.066L254.568 451.603L254.568 451.603L264.461 453.066ZM264.017 468.633H274.017V468.491L274.013 468.348L264.017 468.633ZM264.017 468.639H254.017V468.782L254.021 468.925L264.017 468.639ZM264.191 477.423L254.196 477.741L254.196 477.749L254.197 477.756L264.191 477.423ZM264.191 477.424L274.186 477.106L274.186 477.098L274.186 477.091L264.191 477.424ZM263.777 484.893L273.495 487.249L273.495 487.249L263.777 484.893ZM260.78 492.106L251.815 487.674L251.814 487.678L260.78 492.106ZM260.572 492.526L251.606 488.098L251.603 488.103L260.572 492.526ZM246.494 507.108L250.933 516.069L250.933 516.069L246.494 507.108ZM220.553 508.386L223.414 498.804L223.414 498.804L220.553 508.386ZM197.583 485.307L207.186 482.519L207.186 482.519L197.583 485.307ZM197.265 483.972L207.01 481.726L206.989 481.636L206.967 481.547L197.265 483.972ZM197.265 483.972L187.521 486.218L187.542 486.308L187.564 486.397L197.265 483.972ZM195.296 477.188L189.694 468.905L189.693 468.906L195.296 477.188ZM194.149 477.984L199.894 486.169L199.894 486.168L194.149 477.984ZM187.303 480.825L187.829 490.811L187.829 490.811L187.303 480.825ZM156.466 452.796L166.355 451.309L166.355 451.309L156.466 452.796ZM170.237 412.633L176.908 420.083L176.908 420.083L170.237 412.633ZM197.313 404.784L198.308 394.834L198.308 394.834L197.313 404.784ZM217.907 414.361L211.754 422.244L211.754 422.244L217.907 414.361ZM224.1 421.526L232.764 416.533L232.762 416.529L224.1 421.526ZM224.122 421.564L215.457 426.556L215.458 426.559L224.122 421.564ZM225.54 421.922L217.842 415.539L217.842 415.539L225.54 421.922ZM230.961 415.856L238.172 422.784L238.172 422.784L230.961 415.856ZM230.677 413.526L238.964 407.928L238.964 407.928L230.677 413.526ZM229.788 411.409L219.789 411.55L219.789 411.55L229.788 411.409ZM232.921 404.694L228.704 395.627L228.704 395.627L232.921 404.694ZM250.523 404.097L247.984 413.77L257.603 416.293L260.181 406.69L250.523 404.097ZM258.282 381.009L267.53 384.815L272.606 372.481L259.344 371.065L258.282 381.009ZM128.498 266.691L138.227 264.382L137.067 259.495L132.455 257.508L128.498 266.691ZM92.2485 245.133L98.4921 237.321L90.9637 231.304L84.6727 238.605L92.2485 245.133ZM90.4649 247.05L83.3939 239.979L83.3939 239.979L90.4649 247.05ZM72.326 250.007L78.0752 241.825L74.7846 239.513L70.8094 240.123L72.326 250.007ZM67.5628 250.434L67.9971 260.424L67.9972 260.424L67.5628 250.434ZM65.4974 248.729L75.3912 247.275L73.8184 236.567L63.2674 238.98L65.4974 248.729ZM62.0058 249.781L58.809 240.306L58.8089 240.306L62.0058 249.781ZM57.673 250.999L56.0438 241.133L56.0437 241.133L57.673 250.999ZM34.9692 244.59L40.1379 236.029L40.1378 236.029L34.9692 244.59ZM23.6624 199.905L28.9623 208.385L28.9627 208.384L23.6624 199.905ZM23.7188 199.868L29.2442 208.203L36.7163 203.25L32.6056 195.283L23.7188 199.868ZM23.6344 199.682L14.3303 203.347L14.3303 203.347L23.6344 199.682ZM24.1375 197.48L30.9259 204.823L35.8386 200.281L33.515 194.007L24.1375 197.48ZM23.9513 196.999L14.6506 200.672L14.6506 200.672L23.9513 196.999ZM23.4593 195.526L33.225 193.375L33.225 193.375L23.4593 195.526ZM23.4593 184.468L14.2535 180.562L14.2535 180.562L23.4593 184.468ZM27.0099 178.69L33.9019 185.935L38.9968 181.089L36.16 174.655L27.0099 178.69ZM26.8932 178.341L17.1624 180.646L17.1624 180.646L26.8932 178.341ZM28.3784 175.934L26.0738 166.204L26.0737 166.204L28.3784 175.934ZM31.8412 175.18L33.7606 184.994L41.0008 183.578L41.7846 176.243L31.8412 175.18ZM31.8773 174.696L41.866 175.171L41.866 175.171L31.8773 174.696ZM31.9308 170.717L21.9309 170.762L21.9309 170.762L31.9308 170.717ZM36.74 156.844L43.1791 164.495L43.1791 164.495L36.74 156.844ZM50.9835 151.718L50.2448 161.691L50.2448 161.691L50.9835 151.718ZM62.6148 154.973L57.9295 163.808L57.9297 163.808L62.6148 154.973ZM63.2656 155.324L58.4929 164.112L58.4998 164.115L63.2656 155.324ZM63.2699 155.326L68.0585 146.548L68.0471 146.541L68.0358 146.535L63.2699 155.326ZM63.2712 155.327L68.8182 147.007L68.4491 146.761L68.0597 146.548L63.2712 155.327ZM63.2713 155.327L57.7243 163.648L58.1008 163.899L58.4985 164.115L63.2713 155.327ZM64.8947 156.162L60.7324 165.254L69.9576 169.477L74.0466 160.192L64.8947 156.162ZM65.0015 155.953L56.3773 150.891L56.3772 150.891L65.0015 155.953ZM67.7387 155.241L62.6767 163.865L62.6767 163.865L67.7387 155.241ZM68.5653 155.739L63.3266 164.257L72.3669 169.817L77.3796 160.462L68.5653 155.739ZM69.8487 150.885L59.9824 149.255L59.9824 149.255L69.8487 150.885ZM70.0857 149.622L79.7242 152.286L79.7242 152.286L70.0857 149.622ZM98.1156 127.144L99.2311 137.082L99.2311 137.082L98.1156 127.144ZM118.721 135.088L126.979 129.448L126.979 129.448L118.721 135.088ZM119.691 153.256L127.195 159.866L127.195 159.866L119.691 153.256ZM116.181 155.905L110.968 147.371L110.968 147.371L116.181 155.905ZM114.184 157.205L120.128 165.247L120.128 165.247L114.184 157.205ZM106.827 163.93L99.4861 157.14L99.486 157.14L106.827 163.93ZM99.8308 178.465L109.8 179.244L109.8 179.243L99.8308 178.465ZM99.8303 186.327H109.83V186.129L109.822 185.932L99.8303 186.327ZM99.8303 186.328H89.8303V186.526L89.8381 186.724L99.8303 186.328ZM98.2831 203.245L107.862 206.118L107.862 206.118L98.2831 203.245ZM97.9787 204.461L88.1726 202.502L86.093 212.909L96.6056 214.367L97.9787 204.461ZM98.6748 204.695L103.531 195.953L103.531 195.953L98.6748 204.695ZM99.4519 207.414L90.7103 202.558L90.7103 202.558L99.4519 207.414ZM98.0342 209.392L90.8292 202.457L87.1278 206.303L88.263 211.519L98.0342 209.392ZM99.0861 212.565L108.262 208.589L108.262 208.589L99.0861 212.565ZM101.346 223.675L91.355 223.248L91.1083 229.02L95.9848 232.117L101.346 223.675ZM124.522 236.684L120.143 245.675L135.032 252.925L134.517 236.373L124.522 236.684ZM124.477 234.93L134.475 234.734L134.283 224.93H124.477V234.93ZM124.448 234.93H114.448V244.93H124.448V234.93ZM124.448 228.933V218.933H114.448V228.933H124.448ZM124.477 228.933V238.933H134.283L134.475 229.129L124.477 228.933ZM271.38 82.0294L271.577 92.0275L281.38 91.8351V82.0294H271.38ZM271.38 82V72H261.38V82H271.38ZM277.378 82H287.378V72H277.378V82ZM277.378 82.0294H267.378V91.8351L277.182 92.0275L277.378 82.0294ZM424.281 228.933L414.283 229.129L414.475 238.933H424.281V228.933ZM424.31 228.933H434.31V218.933H424.31V228.933ZM424.31 234.93V244.93H434.31V234.93H424.31ZM414.588 285.157L419.503 276.449L409.371 270.729L405.24 281.606L414.588 285.157ZM335.738 368.773L331.642 359.65L322.16 363.908L326.781 373.219L335.738 368.773ZM436.997 302.413L442.025 311.057L452.843 304.763L444.317 295.601L436.997 302.413ZM435.099 303.79L428.835 295.995L428.835 295.995L435.099 303.79ZM434.662 304.137L440.775 312.052L440.775 312.052L434.662 304.137ZM430.457 311.878L420.512 310.831L420.512 310.831L430.457 311.878ZM436.773 323.896L442.191 332.301L454.589 324.309L442.575 315.751L436.773 323.896ZM438.273 327.594L445.026 334.969L461.648 319.749L439.21 317.638L438.273 327.594ZM433.346 333.603L424.803 328.406L424.803 328.406L433.346 333.603ZM428.944 346.516L431.317 356.231L438.19 354.552L438.894 347.511L428.944 346.516ZM417.072 353.014L424.006 360.22L424.006 360.22L417.072 353.014ZM412.312 370.167L408.172 379.27L423.699 386.333L422.277 369.333L412.312 370.167ZM412.019 370.036L416.054 360.886L416.054 360.886L412.019 370.036ZM389.18 375.876L398.088 380.42L398.088 380.42L389.18 375.876ZM386.612 391.062L389.411 400.662L397.262 398.372L396.577 390.224L386.612 391.062ZM432.262 257.588C433.445 250.251 434.129 242.752 434.279 235.126L414.283 234.734C414.152 241.42 413.552 247.987 412.517 254.403L432.262 257.588ZM472.813 276.064C459.526 261.708 442.047 252.411 425.76 246.581L419.019 265.411C433.479 270.586 447.761 278.44 458.135 289.649L472.813 276.064ZM478.242 269.909C472.21 269.909 466.428 271.486 461.407 273.721L469.542 291.992C472.644 290.611 475.639 289.909 478.242 289.909V269.909ZM498.804 281.695C494.179 271.59 484.242 269.909 478.242 269.909V289.909C478.976 289.909 479.569 289.96 480.031 290.039C480.493 290.119 480.744 290.212 480.842 290.256C480.925 290.293 480.862 290.278 480.751 290.171C480.63 290.054 480.594 289.967 480.617 290.018L498.804 281.695ZM498.652 298.898C500.357 294.704 501.735 288.101 498.803 281.695L480.617 290.018C480.452 289.657 480.526 289.542 480.505 289.876C480.484 290.217 480.375 290.749 480.124 291.367L498.652 298.898ZM498.513 299.225C498.538 299.169 498.589 299.052 498.648 298.908L480.128 291.357C480.155 291.29 480.178 291.237 480.191 291.206C480.205 291.173 480.216 291.148 480.223 291.132L498.513 299.225ZM498.484 299.289L498.5 299.254L480.236 291.103L480.22 291.139L498.484 299.289ZM498.431 299.407L498.46 299.342L480.244 291.086L480.215 291.15L498.431 299.407ZM498.415 299.443L498.424 299.423L480.222 291.134L480.213 291.154L498.415 299.443ZM498.407 299.459L498.417 299.437L480.211 291.16L480.201 291.181L498.407 299.459ZM498.394 299.488L498.399 299.477L480.209 291.163L480.204 291.174L498.394 299.488ZM498.327 299.631L498.328 299.63L480.271 291.032L480.27 291.032L498.327 299.631ZM498.227 299.862C498.28 299.739 498.332 299.624 498.398 299.48L480.2 291.183C480.132 291.331 479.996 291.63 479.844 291.984L498.227 299.862ZM500.624 296.255C499.875 290.845 495.641 286.803 490.522 286.034L487.55 305.812C484.14 305.299 481.313 302.61 480.813 298.998L500.624 296.255ZM500.805 298.084C500.769 297.458 500.706 296.848 500.624 296.255L480.813 298.998C480.829 299.112 480.835 299.188 480.838 299.234L500.805 298.084ZM521.864 299.158C517.507 294.699 511.295 292.448 506.5 291.171C501.347 289.799 495.952 289.088 491.736 288.701L489.907 308.617C493.58 308.954 497.732 309.534 501.354 310.498C505.333 311.557 507.122 312.688 507.56 313.137L521.864 299.158ZM522.299 299.602C522.153 299.453 522.008 299.305 521.864 299.158L507.561 313.137C507.712 313.291 507.862 313.445 508.011 313.597L522.299 299.602ZM522.659 299.969L522.297 299.6L508.012 313.598L508.374 313.967L522.659 299.969ZM522.688 299.999L522.662 299.973L508.37 313.964L508.397 313.991L522.688 299.999ZM539.261 335.156C539.059 326.273 537.029 319.339 533.629 313.42C530.396 307.79 526.119 303.499 522.684 299.995L508.401 313.995C512.114 317.783 514.529 320.322 516.286 323.38C517.876 326.149 519.133 329.763 519.266 335.611L539.261 335.156ZM536.263 354.997C537.499 352.112 538.546 348.457 539.135 344.875C539.683 341.541 540.068 336.926 538.9 332.712L519.627 338.056C519.587 337.91 519.67 338.155 519.662 338.933C519.655 339.657 519.573 340.577 519.4 341.63C519.043 343.803 518.411 345.88 517.88 347.119L536.263 354.997ZM522.156 365.717C526.378 364.849 533.236 362.061 536.263 354.997L517.88 347.119C518.067 346.682 518.296 346.368 518.473 346.173C518.642 345.986 518.76 345.91 518.764 345.908C518.769 345.905 518.708 345.943 518.574 345.996C518.442 346.048 518.288 346.094 518.131 346.126L522.156 365.717ZM519.126 366.01C519.484 365.992 519.891 365.972 520.228 365.951C520.395 365.94 520.609 365.926 520.826 365.907C520.892 365.901 521.488 365.854 522.157 365.717L518.13 346.126C518.241 346.104 518.336 346.086 518.412 346.073C518.489 346.059 518.557 346.048 518.612 346.04C518.667 346.032 518.716 346.025 518.757 346.019C518.797 346.014 518.833 346.009 518.863 346.006C518.921 345.999 518.968 345.994 518.998 345.991C519.029 345.988 519.052 345.986 519.065 345.984C519.089 345.982 519.094 345.982 519.075 345.983C519.058 345.985 519.028 345.987 518.984 345.989C518.941 345.992 518.889 345.995 518.828 345.999C518.766 346.002 518.698 346.006 518.623 346.01C518.47 346.018 518.302 346.027 518.11 346.036L519.126 366.01ZM518.617 366.023H518.618V346.023H518.617V366.023ZM516.842 366.153C517.358 366.103 518.172 366.059 519.126 366.01L518.109 346.036C517.31 346.077 515.975 346.143 514.892 346.249L516.842 366.153ZM505.942 354.98C506.28 352.23 507.991 349.934 510.356 348.774L519.169 366.727C522.723 364.983 525.286 361.532 525.792 357.422L505.942 354.98ZM524.653 356.216C524.635 356.129 524.624 356.077 524.614 356.03C524.606 355.986 524.602 355.968 524.602 355.965L504.923 359.536C504.982 359.859 505.045 360.159 505.075 360.304L524.653 356.216ZM524.732 356.601C524.702 356.45 524.671 356.305 524.653 356.217L505.075 360.304C505.097 360.411 505.107 360.456 505.113 360.489L524.732 356.601ZM524.879 357.45C524.828 357.099 524.77 356.794 524.731 356.598L505.114 360.492C505.117 360.509 505.116 360.501 505.112 360.478C505.107 360.455 505.098 360.402 505.087 360.327L524.879 357.45ZM524.911 366.909C525.748 362.933 525.136 359.212 524.879 357.449L505.087 360.328C505.236 361.347 505.307 361.913 505.332 362.386C505.354 362.808 505.318 362.891 505.34 362.789L524.911 366.909ZM503.983 385.499C514.679 384.651 522.817 376.854 524.911 366.909L505.34 362.789C504.971 364.541 503.773 365.453 502.401 365.562L503.983 385.499ZM494.004 383.462C497.444 385.347 501.153 385.724 503.983 385.499L502.401 365.562C502.499 365.554 502.586 365.556 502.705 365.578C502.816 365.597 503.15 365.668 503.617 365.924L494.004 383.462ZM508.724 376.006L508.729 375.969L488.892 373.417L488.888 373.454L508.724 376.006ZM495.287 386.375C501.86 387.223 507.876 382.582 508.724 376.009L488.888 373.45C489.453 369.068 493.464 365.974 497.846 366.54L495.287 386.375ZM494.136 386.169C494.517 386.257 494.901 386.325 495.286 386.375L497.846 366.54C498.1 366.572 498.355 366.618 498.61 366.676L494.136 386.169ZM498.507 390.83C502.227 387.787 505.173 383.692 506.198 378.284L486.547 374.561C486.541 374.594 486.536 374.614 486.533 374.626C486.529 374.637 486.527 374.642 486.527 374.644C486.526 374.646 486.525 374.649 486.523 374.653C486.521 374.657 486.515 374.667 486.505 374.683C486.471 374.736 486.312 374.967 485.842 375.351L498.507 390.83ZM481.855 396.897C487.579 396.616 493.042 395.302 498.507 390.83L485.842 375.351C484.597 376.37 483.664 376.784 480.872 376.921L481.855 396.897ZM477.78 396.954C479.25 397 480.642 396.957 481.855 396.897L480.872 376.921C479.915 376.969 479.116 376.986 478.402 376.964L477.78 396.954ZM491.447 386.883C489.455 383.871 487.005 381.321 484.405 379.205L471.777 394.714C473.073 395.769 474.065 396.856 474.766 397.916L491.447 386.883ZM501.271 420.116C502.424 407.516 497.154 395.511 491.447 386.883L474.766 397.916C479.262 404.713 481.92 412.111 481.355 418.294L501.271 420.116ZM481.782 449.879C490.598 443.822 499.997 434.049 501.271 420.115L481.355 418.294C480.861 423.692 477.05 428.864 470.457 433.394L481.782 449.879ZM450.3 457.725C461.232 459.373 473.556 455.53 481.782 449.879L470.457 433.394C465.567 436.754 458.272 438.701 453.282 437.948L450.3 457.725ZM440.894 455.343C443.35 456.107 446.769 457.192 450.3 457.725L453.282 437.948C451.523 437.683 449.582 437.1 446.837 436.246L440.894 455.343ZM441.439 455.496L441.44 455.496L446.291 436.093L446.29 436.093L441.439 455.496ZM439.113 454.794C439.68 454.965 440.259 455.145 440.893 455.342L446.836 436.246C446.217 436.053 445.553 435.846 444.888 435.646L439.113 454.794ZM426.205 448.273C430.535 452.324 436.552 454.022 439.113 454.794L444.888 435.646C443.395 435.195 442.221 434.818 441.218 434.387C440.187 433.944 439.858 433.658 439.869 433.668L426.205 448.273ZM414.983 429.458C416.724 436.768 421.185 443.577 426.205 448.273L439.869 433.668C437.236 431.205 435.129 427.719 434.439 424.823L414.983 429.458ZM414.524 426.56C414.591 427.066 414.776 428.586 414.983 429.458L434.439 424.823C434.488 425.032 434.517 425.184 434.524 425.223C434.534 425.279 434.539 425.309 434.538 425.301C434.535 425.282 434.524 425.216 434.505 425.08C434.467 424.808 434.418 424.438 434.352 423.938L414.524 426.56ZM414.504 426.393L414.504 426.395L434.372 424.103L434.372 424.1L414.504 426.393ZM414.538 426.66L414.538 426.661L434.337 423.832L434.337 423.832L414.538 426.66ZM414.736 427.671L414.736 427.671L434.139 422.821L434.139 422.82L414.736 427.671ZM422.863 425.668C419.795 425.854 417.507 424.597 416.256 423.616C415.085 422.698 414.43 421.74 414.159 421.315C413.846 420.824 413.666 420.428 413.586 420.245C413.498 420.042 413.451 419.905 413.438 419.866C413.429 419.837 413.532 420.182 413.701 421.071C414.015 422.728 414.297 424.842 414.524 426.556L434.351 423.936C434.141 422.345 433.788 419.652 433.35 417.341C433.142 416.247 432.839 414.818 432.404 413.518C432.213 412.946 431.798 411.781 431.032 410.577C430.651 409.978 429.884 408.887 428.601 407.881C427.238 406.812 424.837 405.512 421.655 405.705L422.863 425.668ZM425.478 425.108C425.67 424.988 425.75 424.938 425.812 424.901C425.869 424.867 425.819 424.9 425.698 424.96C425.582 425.017 425.297 425.153 424.88 425.29C424.469 425.425 423.772 425.613 422.863 425.668L421.655 405.705C419.343 405.845 417.569 406.665 416.786 407.055C415.919 407.487 415.137 407.986 414.876 408.149L425.478 425.108ZM422.665 426.591C424.053 426.04 425.313 425.211 425.478 425.107L414.876 408.149C414.762 408.22 414.694 408.262 414.634 408.299C414.577 408.334 414.562 408.343 414.572 408.337C414.582 408.331 414.646 408.295 414.751 408.242C414.853 408.19 415.037 408.101 415.286 408.002L422.665 426.591ZM416.38 428.165C417.634 427.963 420.129 427.598 422.666 426.591L415.285 408.003C415.259 408.013 415.121 408.065 414.77 408.141C414.384 408.226 413.947 408.299 413.188 408.422L416.38 428.165ZM416.09 428.212L416.383 428.165L413.185 408.422L412.892 408.47L416.09 428.212ZM415.965 428.233L416.103 428.21L412.878 408.472L412.74 408.494L415.965 428.233ZM414.065 428.578C414.801 428.438 415.395 428.326 415.971 428.232L412.735 408.495C411.873 408.637 411.035 408.796 410.339 408.928L414.065 428.578ZM415.364 428.24L415.364 428.24L409.04 409.266L409.039 409.266L415.364 428.24ZM414.162 428.559L414.163 428.559L410.241 408.947L410.24 408.947L414.162 428.559ZM402.632 429.215C407.341 429.948 411.685 429.029 414.064 428.578L410.338 408.928C407.407 409.484 406.455 409.569 405.707 409.453L402.632 429.215ZM390.077 421.838C392.246 424.2 396.163 428.209 402.632 429.215L405.707 409.453C405.794 409.467 405.91 409.497 406.024 409.545C406.132 409.59 406.171 409.622 406.129 409.593C406.079 409.558 405.948 409.461 405.718 409.246C405.484 409.027 405.196 408.734 404.809 408.311L390.077 421.838ZM383.124 412.434C385.068 415.84 387.355 418.874 390.077 421.838L404.809 408.311C402.944 406.28 401.591 404.443 400.496 402.523L383.124 412.434ZM305.764 381.162C312.848 394.298 323.399 407.029 338.451 414.576C353.748 422.245 372.557 423.986 394.798 417.022L388.822 397.935C370.827 403.57 357.459 401.733 347.415 396.697C337.128 391.539 329.175 382.439 323.368 371.669L305.764 381.162ZM281.281 391.716C293.677 391.189 305.717 389.25 317.24 386.052L311.892 366.78C301.823 369.574 291.292 371.273 280.432 371.734L281.281 391.716ZM279.782 414.395C282.357 404.396 285.674 394.62 289.836 386.125L271.877 377.325C266.944 387.392 263.214 398.536 260.414 409.407L279.782 414.395ZM278.821 405.878C277.748 405.017 276.65 404.231 275.541 403.512L264.655 420.29C265.245 420.673 265.794 421.068 266.302 421.476L278.821 405.878ZM285.267 442.405C288.453 439.219 290.502 435.38 291.165 431.123C291.81 426.981 291.037 423.153 289.785 419.99C287.377 413.908 282.72 409.008 278.821 405.878L266.302 421.476C268.725 423.42 270.535 425.698 271.189 427.351C271.468 428.056 271.374 428.234 271.403 428.045C271.451 427.74 271.589 427.799 271.125 428.263L285.267 442.405ZM271.481 449.693C275.509 449.476 278.831 447.444 280.417 446.386C282.373 445.081 284.094 443.578 285.267 442.405L271.125 428.262C270.948 428.44 270.667 428.702 270.32 428.991C269.974 429.28 269.627 429.542 269.317 429.749C268.987 429.969 268.828 430.041 268.848 430.032C268.868 430.023 268.997 429.968 269.224 429.905C269.446 429.844 269.85 429.752 270.402 429.723L271.481 449.693ZM271.351 449.7L271.453 449.695L270.429 429.721L270.327 429.726L271.351 449.7ZM279.645 440.518C279.645 441.692 279.398 443.478 278.273 445.312C277.115 447.2 275.53 448.318 274.224 448.922C273.049 449.466 272.069 449.613 271.727 449.659C271.382 449.705 271.104 449.712 271.334 449.701L270.344 429.726C270.282 429.729 269.71 429.751 269.086 429.834C268.466 429.917 267.224 430.124 265.823 430.772C264.292 431.481 262.518 432.748 261.226 434.852C259.969 436.902 259.645 438.971 259.645 440.518H279.645ZM276.568 448.415C276.746 448.176 277.286 447.465 277.763 446.698C278.008 446.306 278.382 445.671 278.722 444.885C278.99 444.263 279.645 442.646 279.645 440.518H259.645C259.645 439.479 259.816 438.654 259.951 438.144C260.091 437.615 260.251 437.209 260.361 436.955C260.569 436.472 260.759 436.169 260.79 436.119C260.841 436.037 260.837 436.054 260.547 436.443L276.568 448.415ZM276.613 448.32C276.571 448.388 276.536 448.442 276.509 448.482C276.483 448.522 276.461 448.553 276.447 448.574C276.432 448.596 276.422 448.611 276.416 448.618C276.411 448.625 276.409 448.628 276.411 448.625C276.417 448.617 276.431 448.598 276.46 448.559C276.489 448.52 276.522 448.476 276.568 448.415L260.547 436.443C260.488 436.521 260.021 437.131 259.653 437.72L276.613 448.32ZM274.353 454.528C274.728 451.989 275.295 450.429 276.613 448.32L259.653 437.72C256.822 442.251 255.331 446.44 254.568 451.603L274.353 454.528ZM274.013 468.348C273.859 462.957 273.76 458.542 274.353 454.528L254.568 451.603C253.673 457.662 253.877 463.875 254.021 468.919L274.013 468.348ZM274.017 468.634V468.633H254.017V468.634H274.017ZM274.017 468.635V468.634H254.017V468.635H274.017ZM274.017 468.636V468.635H254.017V468.636H274.017ZM274.017 468.636V468.636H254.017V468.636H274.017ZM274.017 468.637V468.636H254.017V468.637H274.017ZM274.017 468.638V468.637H254.017V468.638H274.017ZM274.017 468.639V468.638H254.017V468.639H274.017ZM274.017 468.639V468.639H254.017V468.639H274.017ZM274.137 474.884C274.137 472.667 274.072 470.433 274.013 468.354L254.021 468.925C254.082 471.056 254.137 473.002 254.137 474.884H274.137ZM274.186 477.104C274.158 476.215 274.137 475.526 274.137 474.884H254.137C254.137 475.9 254.17 476.912 254.196 477.741L274.186 477.104ZM274.186 477.091L274.185 477.09L254.197 477.756L254.197 477.757L274.186 477.091ZM273.495 487.249C274.448 483.317 274.257 479.327 274.186 477.106L254.196 477.743C254.285 480.53 254.258 481.711 254.058 482.537L273.495 487.249ZM269.744 496.537C270.666 494.672 272.63 490.816 273.495 487.249L254.058 482.537C253.828 483.484 253.059 485.159 251.815 487.674L269.744 496.537ZM269.538 496.954L269.746 496.534L251.814 487.678L251.606 488.098L269.538 496.954ZM250.933 516.069C260.051 511.553 265.379 505.388 269.541 496.949L251.603 488.103C249.044 493.293 246.602 495.895 242.056 498.147L250.933 516.069ZM217.693 517.968C227.055 520.763 240.679 521.148 250.933 516.069L242.056 498.147C237.585 500.362 229.453 500.607 223.414 498.804L217.693 517.968ZM187.979 488.096C192.309 503.01 202.773 513.514 217.693 517.968L223.414 498.804C214.969 496.283 209.611 490.871 207.186 482.519L187.979 488.096ZM187.521 486.218C187.622 486.655 187.832 487.587 187.979 488.096L207.186 482.519C207.217 482.625 207.236 482.699 207.24 482.713C207.246 482.736 207.248 482.744 207.244 482.73C207.237 482.701 207.223 482.643 207.199 482.543C207.152 482.342 207.09 482.074 207.01 481.726L187.521 486.218ZM187.564 486.397L187.564 486.397L206.967 481.547L206.967 481.546L187.564 486.397ZM200.899 485.471C198.91 486.817 196.397 487.459 193.823 487.066C191.548 486.719 189.977 485.682 189.175 485.049C187.701 483.886 186.968 482.603 186.838 482.38C186.58 481.942 186.429 481.598 186.376 481.475C186.31 481.323 186.274 481.223 186.267 481.204C186.256 481.172 186.28 481.237 186.339 481.439C186.395 481.626 186.463 481.869 186.542 482.165C186.87 483.4 187.237 484.984 187.521 486.218L207.01 481.725C206.743 480.566 206.3 478.641 205.869 477.023C205.667 476.262 205.393 475.284 205.081 474.419C204.965 474.096 204.638 473.196 204.08 472.247C203.886 471.916 203.094 470.556 201.565 469.349C200.736 468.695 199.14 467.646 196.84 467.295C194.241 466.898 191.704 467.545 189.694 468.905L200.899 485.471ZM199.894 486.168C200.27 485.905 200.581 485.687 200.899 485.471L189.693 468.906C189.21 469.233 188.761 469.548 188.403 469.799L199.894 486.168ZM187.829 490.811C193.948 490.489 197.707 487.704 199.894 486.169L188.403 469.799C187.84 470.195 187.51 470.424 187.213 470.615C186.945 470.787 186.826 470.846 186.796 470.86C186.783 470.866 186.821 470.848 186.88 470.833C186.936 470.819 186.916 470.831 186.778 470.839L187.829 490.811ZM146.577 454.282C149.485 473.628 164.439 492.042 187.829 490.811L186.778 470.839C176.564 471.376 168.205 463.614 166.355 451.309L146.577 454.282ZM163.567 405.182C149.533 417.747 143.92 436.607 146.577 454.282L166.355 451.309C164.588 439.555 168.426 427.677 176.908 420.083L163.567 405.182ZM198.308 394.834C187.125 393.715 173.14 396.613 163.567 405.182L176.908 420.083C181.29 416.16 189.216 414.024 196.318 414.734L198.308 394.834ZM224.06 406.478C217.918 401.684 208.391 395.842 198.308 394.834L196.318 414.734C200.757 415.178 206.624 418.24 211.754 422.244L224.06 406.478ZM232.762 416.529C230.528 412.658 227.702 409.321 224.06 406.478L211.754 422.244C213.268 423.426 214.425 424.768 215.438 426.523L232.762 416.529ZM232.786 416.571L232.764 416.533L215.435 426.519L215.457 426.556L232.786 416.571ZM217.842 415.539C217.927 415.436 218.78 414.367 220.388 413.512C221.306 413.024 222.638 412.515 224.304 412.416C226.033 412.313 227.636 412.681 228.98 413.312C231.304 414.401 232.448 416.088 232.578 416.271C232.821 416.611 232.98 416.907 232.785 416.569L215.458 426.559C215.494 426.62 215.856 427.269 216.296 427.886C216.625 428.346 217.96 430.234 220.491 431.421C223.892 433.015 227.335 432.469 229.775 431.172C231.644 430.179 232.795 428.838 233.238 428.305L217.842 415.539ZM223.75 408.928C221.718 411.043 219.758 413.229 217.842 415.539L233.238 428.305C234.828 426.387 236.462 424.564 238.172 422.784L223.75 408.928ZM222.39 419.123C222.577 419.399 222.491 419.281 222.385 419.095C222.273 418.9 221.88 418.198 221.615 417.148C221.322 415.983 221.187 414.389 221.673 412.624C222.149 410.893 223.037 409.67 223.75 408.928L238.172 422.784C239.264 421.648 240.376 420.04 240.957 417.927C241.547 415.78 241.399 413.808 241.009 412.262C240.649 410.831 240.078 409.746 239.742 409.16C239.412 408.582 239.057 408.066 238.964 407.928L222.39 419.123ZM219.789 411.55C219.85 415.836 222.282 418.963 222.39 419.123L238.964 407.928C238.688 407.52 238.89 407.788 239.089 408.201C239.338 408.717 239.767 409.797 239.788 411.268L219.789 411.55ZM228.704 395.627C225.237 397.239 222.289 399.913 220.808 403.93C219.655 407.057 219.771 410.261 219.789 411.55L239.788 411.268C239.776 410.478 239.785 410.16 239.798 410C239.808 409.869 239.796 410.245 239.574 410.848C239.318 411.54 238.88 412.282 238.258 412.913C237.681 413.499 237.199 413.733 237.138 413.761L228.704 395.627ZM253.061 394.424C246.31 392.653 237.35 391.605 228.704 395.627L237.138 413.761C239.647 412.594 243.159 412.503 247.984 413.77L253.061 394.424ZM249.035 377.202C246.314 383.812 243.383 392.122 240.865 401.504L260.181 406.69C262.466 398.177 265.116 390.677 267.53 384.815L249.035 377.202ZM118.768 269.001C134.209 334.048 189.354 383.708 257.221 390.952L259.344 371.065C200.012 364.732 151.735 321.281 138.227 264.382L118.768 269.001ZM86.0049 252.944C98.8899 263.243 112.542 270.705 124.541 275.875L132.455 257.508C121.753 252.896 109.718 246.294 98.4921 237.321L86.0049 252.944ZM97.536 254.121C98.3473 253.31 99.1082 252.491 99.8243 251.66L84.6727 238.605C84.2922 239.047 83.8693 239.503 83.3939 239.979L97.536 254.121ZM66.5768 258.189C72.2694 262.189 78.8589 262.369 83.9137 261.314C88.9754 260.258 93.9526 257.704 97.536 254.121L83.3939 239.979C83.159 240.214 82.6942 240.584 81.9933 240.952C81.3048 241.313 80.5496 241.586 79.8282 241.736C78.2155 242.073 77.8205 241.646 78.0752 241.825L66.5768 258.189ZM67.9972 260.424C69.6185 260.354 71.6668 260.225 73.8426 259.892L70.8094 240.123C69.6805 240.296 68.4598 240.385 67.1284 240.443L67.9972 260.424ZM55.6035 250.182C56.488 256.204 61.7884 260.694 67.9971 260.424L67.1285 240.443C71.2697 240.263 74.801 243.257 75.3912 247.275L55.6035 250.182ZM65.2025 259.257C66.4673 258.83 67.1528 258.608 67.7274 258.477L63.2674 238.98C61.5383 239.376 59.8824 239.944 58.809 240.306L65.2025 259.257ZM59.3023 260.866C61.6639 260.476 63.913 259.692 65.2026 259.257L58.8089 240.306C57.1783 240.856 56.5123 241.056 56.0438 241.133L59.3023 260.866ZM29.8005 253.151C36.4553 257.169 47.8776 262.753 59.3023 260.866L56.0437 241.133C52.2198 241.765 46.2629 239.728 40.1379 236.029L29.8005 253.151ZM18.3625 191.425C11.5701 195.67 7.22281 201.575 5.65088 208.55C4.14618 215.228 5.42591 221.79 7.65684 227.322C12.0254 238.155 21.1841 247.948 29.8005 253.151L40.1378 236.029C34.8524 232.838 28.7957 226.265 26.2054 219.842C24.9569 216.746 24.8213 214.457 25.1616 212.947C25.4347 211.735 26.1927 210.116 28.9623 208.385L18.3625 191.425ZM18.1934 191.533C18.252 191.495 18.3083 191.458 18.3621 191.425L28.9627 208.384C29.055 208.327 29.1489 208.266 29.2442 208.203L18.1934 191.533ZM14.3303 203.347C14.4793 203.725 14.6468 204.095 14.8321 204.454L32.6056 195.283C32.7289 195.522 32.84 195.767 32.9384 196.017L14.3303 203.347ZM17.3491 190.137C13.8344 193.386 12.4575 198.593 14.3303 203.347L32.9385 196.017C34.1889 199.191 33.2645 202.66 30.9259 204.823L17.3491 190.137ZM14.6506 200.672C14.7229 200.855 14.7457 200.914 14.76 200.953L33.515 194.007C33.4131 193.731 33.3091 193.469 33.252 193.325L14.6506 200.672ZM13.6935 197.678C14.0065 199.099 14.5144 200.327 14.6506 200.672L33.2521 193.325C33.2283 193.265 33.2097 193.218 33.192 193.172C33.1748 193.128 33.1612 193.094 33.15 193.064C33.1389 193.035 33.1311 193.015 33.1258 193C33.1205 192.986 33.1184 192.98 33.1187 192.981C33.1187 192.981 33.1312 193.016 33.1498 193.079C33.1684 193.143 33.1961 193.243 33.225 193.375L13.6935 197.678ZM14.2535 180.562C11.3337 187.445 12.9543 194.323 13.6935 197.678L33.225 193.375C32.8266 191.566 32.6232 190.425 32.5787 189.491C32.539 188.658 32.6549 188.397 32.6651 188.373L14.2535 180.562ZM20.118 171.444C16.8487 174.554 15.1314 178.493 14.2535 180.562L32.6651 188.373C33.0431 187.482 33.3354 186.867 33.6043 186.402C33.8722 185.939 33.9888 185.853 33.9019 185.935L20.118 171.444ZM17.1624 180.646C17.3323 181.364 17.5665 182.059 17.8598 182.724L36.16 174.655C36.3561 175.1 36.5117 175.562 36.624 176.037L17.1624 180.646ZM26.0737 166.204C19.6248 167.731 15.635 174.197 17.1624 180.646L36.624 176.037C37.6423 180.336 34.9824 184.647 30.6831 185.665L26.0737 166.204ZM29.9218 165.366C28.5946 165.626 27.3076 165.911 26.0738 166.204L30.6831 185.665C31.7275 185.418 32.7506 185.192 33.7606 184.994L29.9218 165.366ZM21.8886 174.22C21.8878 174.238 21.8891 174.2 21.8978 174.118L41.7846 176.243C41.8246 175.868 41.8499 175.508 41.866 175.171L21.8886 174.22ZM21.9309 170.762C21.9368 172.08 21.9396 173.15 21.8886 174.22L41.866 175.171C41.9455 173.5 41.9363 171.92 41.9307 170.672L21.9309 170.762ZM30.301 149.193C26.27 152.585 23.9423 156.545 22.8283 160.83C21.8433 164.618 21.9203 168.418 21.9309 170.762L41.9307 170.672C41.9245 169.3 41.9236 168.349 41.9732 167.486C42.0205 166.665 42.1036 166.174 42.1847 165.862C42.256 165.588 42.3289 165.439 42.4047 165.318C42.4837 165.193 42.683 164.913 43.1791 164.495L30.301 149.193ZM51.7222 141.745C43.4562 141.133 35.0887 145.164 30.301 149.193L43.1791 164.495C43.9662 163.833 45.3085 163.002 46.8827 162.397C48.4997 161.776 49.6856 161.649 50.2448 161.691L51.7222 141.745ZM67.3 146.139C62.3691 143.524 56.9706 142.134 51.7222 141.745L50.2448 161.691C53.0597 161.899 55.7175 162.635 57.9295 163.808L67.3 146.139ZM68.0383 146.537C67.8316 146.424 67.5729 146.284 67.2999 146.139L57.9297 163.808C58.1011 163.899 58.2743 163.993 58.4929 164.112L68.0383 146.537ZM68.0358 146.535L68.0314 146.533L58.4998 164.115L58.5041 164.118L68.0358 146.535ZM68.0597 146.548L68.0585 146.548L58.4814 164.105L58.4827 164.106L68.0597 146.548ZM68.8183 147.007L68.8182 147.007L57.7242 163.648L57.7243 163.648L68.8183 147.007ZM69.0571 147.069C68.865 146.981 68.6381 146.862 68.044 146.54L58.4985 164.115C58.9957 164.385 59.8171 164.835 60.7324 165.254L69.0571 147.069ZM56.3772 150.891C56.1411 151.294 55.9295 151.708 55.7428 152.131L74.0466 160.192C73.9223 160.474 73.7817 160.749 73.6257 161.015L56.3772 150.891ZM72.8007 146.617C67.0851 143.262 59.7321 145.176 56.3773 150.891L73.6256 161.015C71.3891 164.825 66.4871 166.101 62.6767 163.865L72.8007 146.617ZM73.8041 147.221C73.431 146.992 73.0864 146.784 72.8007 146.617L62.6767 163.865C62.8143 163.946 63.0373 164.079 63.3266 164.257L73.8041 147.221ZM59.9824 149.255C59.8579 150.009 59.7602 150.58 59.6429 151.081C59.588 151.316 59.5499 151.44 59.5376 151.477C59.5187 151.534 59.5745 151.346 59.751 151.016L77.3796 160.462C78.3553 158.642 78.8531 156.764 79.1163 155.641C79.4076 154.396 79.6036 153.189 79.7151 152.514L59.9824 149.255ZM60.4471 146.958C60.1967 147.864 60.0237 149.005 59.9824 149.255L79.7151 152.514C79.7387 152.371 79.7576 152.256 79.7752 152.152C79.7927 152.048 79.8051 151.978 79.814 151.929C79.8235 151.876 79.8238 151.878 79.816 151.915C79.8117 151.935 79.8029 151.976 79.7895 152.033C79.7764 152.088 79.7548 152.176 79.7242 152.286L60.4471 146.958ZM97.0002 117.206C81.4337 118.954 65.0835 130.185 60.4471 146.958L79.7242 152.286C81.8046 144.76 90.2723 138.087 99.2311 137.082L97.0002 117.206ZM126.979 129.448C119.693 118.78 106.533 116.136 97.0002 117.206L99.2311 137.082C104.555 136.484 108.879 138.409 110.463 140.728L126.979 129.448ZM127.195 159.866C131.892 154.534 132.347 147.755 131.837 143.048C131.307 138.158 129.527 133.18 126.979 129.448L110.463 140.728C110.674 141.037 111.013 141.655 111.331 142.545C111.642 143.415 111.86 144.342 111.953 145.202C112.048 146.081 111.991 146.671 111.926 146.966C111.867 147.24 111.859 147.018 112.187 146.645L127.195 159.866ZM121.394 164.438C122.408 163.819 125.058 162.291 127.195 159.866L112.187 146.645C112.367 146.442 112.444 146.415 112.227 146.57C112.123 146.645 111.977 146.743 111.761 146.881C111.537 147.023 111.297 147.17 110.968 147.371L121.394 164.438ZM120.128 165.247C120.339 165.091 120.637 164.901 121.394 164.438L110.968 147.371C110.352 147.748 109.283 148.393 108.24 149.163L120.128 165.247ZM114.168 170.721C116.113 168.618 118.148 166.711 120.128 165.247L108.24 149.163C104.954 151.593 101.986 154.437 99.4861 157.14L114.168 170.721ZM109.8 179.243C110.024 176.381 111.191 173.94 114.168 170.721L99.486 157.14C94.6223 162.398 90.5491 168.88 89.8612 177.686L109.8 179.243ZM109.822 185.932C109.714 183.204 109.647 181.211 109.8 179.244L89.8612 177.686C89.6011 181.016 89.7372 184.173 89.8381 186.723L109.822 185.932ZM109.83 186.327V186.327H89.8303V186.327H109.83ZM109.83 186.327V186.327H89.8303V186.327H109.83ZM109.83 186.328V186.327H89.8303V186.328H109.83ZM109.83 186.328V186.328H89.8303V186.328H109.83ZM109.83 186.328V186.328H89.8303V186.328H109.83ZM109.83 186.328V186.328H89.8303V186.328H109.83ZM109.83 186.328V186.328H89.8303V186.328H109.83ZM109.83 186.328V186.328H89.8303V186.328H109.83ZM109.83 186.328V186.328H89.8303V186.328H109.83ZM109.83 186.328V186.328H89.8303V186.328H109.83ZM107.862 206.118C110.343 197.845 110.025 191.049 109.822 185.933L89.8381 186.724C90.0373 191.757 90.1402 195.585 88.7045 200.373L107.862 206.118ZM107.785 206.421C107.801 206.339 107.825 206.238 107.862 206.118L88.7045 200.373C88.4942 201.074 88.3161 201.783 88.1726 202.502L107.785 206.421ZM103.531 195.953C102.213 195.22 100.793 194.756 99.3519 194.556L96.6056 214.367C95.6398 214.233 94.6922 213.922 93.8185 213.436L103.531 195.953ZM108.193 212.271C111.412 206.477 109.325 199.171 103.531 195.953L93.8184 213.436C89.9561 211.29 88.5646 206.42 90.7103 202.558L108.193 212.271ZM105.239 216.327C106.519 214.997 107.468 213.577 108.193 212.27L90.7103 202.558C90.6489 202.668 90.623 202.702 90.6371 202.682C90.6524 202.661 90.7141 202.577 90.8292 202.457L105.239 216.327ZM108.262 208.589C107.994 207.972 107.867 207.548 107.805 207.265L88.263 211.519C88.6567 213.328 89.2435 215.002 89.9105 216.542L108.262 208.589ZM111.337 224.102C111.573 218.576 110.346 213.4 108.262 208.589L89.9105 216.542C91.0416 219.152 91.4378 221.311 91.355 223.248L111.337 224.102ZM128.9 227.694C120.803 223.75 113.074 219.277 106.707 215.234L95.9848 232.117C102.856 236.481 111.246 241.342 120.143 245.675L128.9 227.694ZM114.479 235.126C114.491 235.75 114.507 236.373 114.527 236.995L134.517 236.373C134.5 235.827 134.486 235.281 134.475 234.734L114.479 235.126ZM124.448 244.93H124.477V224.93H124.448V244.93ZM114.448 231.931V234.93H134.448V231.931H114.448ZM114.448 228.933V231.931H134.448V228.933H114.448ZM124.477 218.933H124.448V238.933H124.477V218.933ZM271.184 72.0313C185.392 73.7143 116.162 142.944 114.479 228.736L134.475 229.129C135.948 154.075 196.522 93.4998 271.577 92.0275L271.184 72.0313ZM261.38 82V82.0294H281.38V82H261.38ZM274.379 72H271.38V92H274.379V72ZM277.378 72H274.379V92H277.378V72ZM287.378 82.0294V82H267.378V82.0294H287.378ZM434.279 228.736C432.596 142.944 363.366 73.7143 277.574 72.0313L277.182 92.0275C352.236 93.4998 412.81 154.075 414.283 229.129L434.279 228.736ZM424.31 218.933H424.281V238.933H424.31V218.933ZM434.31 231.931V228.933H414.31V231.931H434.31ZM434.31 234.93V231.931H414.31V234.93H434.31ZM424.281 244.93H424.31V224.93H424.281V244.93ZM405.24 281.606C392.042 316.353 365.385 344.497 331.642 359.65L339.835 377.895C378.397 360.577 408.846 328.437 423.936 288.708L405.24 281.606ZM444.317 295.601C438.422 289.265 430.216 282.495 419.503 276.449L409.673 293.866C418.644 298.93 425.217 304.434 429.676 309.226L444.317 295.601ZM441.363 311.585C441.648 311.356 441.821 311.218 441.981 311.099C442.052 311.046 442.095 311.016 442.112 311.005C442.131 310.992 442.1 311.013 442.025 311.057L431.968 293.77C430.533 294.605 429.246 295.665 428.835 295.995L441.363 311.585ZM440.775 312.052C440.995 311.881 441.224 311.697 441.364 311.585L428.835 295.995C428.652 296.142 428.586 296.195 428.55 296.223L440.775 312.052ZM440.402 312.925C440.387 313.066 440.374 313.05 440.426 312.892C440.475 312.743 440.554 312.551 440.662 312.35C440.77 312.147 440.872 312.001 440.936 311.921C441.007 311.832 440.97 311.901 440.775 312.052L428.55 296.223C426.054 298.15 424.244 300.643 423.03 302.909C421.808 305.192 420.815 307.947 420.512 310.831L440.402 312.925ZM442.575 315.751C441.149 314.735 440.652 314.092 440.493 313.823C440.433 313.721 440.417 313.666 440.406 313.616C440.394 313.561 440.356 313.355 440.402 312.925L420.512 310.831C419.999 315.704 421.003 320.14 423.26 323.973C425.394 327.596 428.349 330.173 430.971 332.041L442.575 315.751ZM445.855 325.578C445.855 328.412 444.374 330.894 442.191 332.301L431.355 315.491C428.068 317.61 425.855 321.333 425.855 325.578H445.855ZM437.855 317.578C442.274 317.578 445.855 321.16 445.855 325.578H425.855C425.855 332.206 431.228 337.578 437.855 337.578V317.578ZM439.21 317.638C438.658 317.586 438.18 317.578 437.855 317.578V337.578C437.849 337.578 437.798 337.578 437.716 337.575C437.633 337.572 437.502 337.566 437.336 337.55L439.21 317.638ZM441.89 338.8C442.749 337.387 443.835 336.06 445.026 334.969L431.52 320.219C428.895 322.622 426.616 325.426 424.803 328.406L441.89 338.8ZM438.894 347.511C439.19 344.555 440.253 341.491 441.89 338.8L424.803 328.406C421.741 333.44 419.611 339.35 418.993 345.521L438.894 347.511ZM424.006 360.22C425.951 358.348 428.558 356.904 431.317 356.231L426.571 336.802C420.429 338.302 414.662 341.455 410.139 345.808L424.006 360.22ZM422.277 369.333C422.182 368.19 422.351 365.843 422.984 363.355C423.284 362.179 423.625 361.221 423.939 360.547C424.297 359.779 424.406 359.835 424.006 360.22L410.139 345.808C406.378 349.426 404.53 354.776 403.602 358.422C402.577 362.451 402.02 367.089 402.347 371.001L422.277 369.333ZM407.984 379.186C408.045 379.212 408.107 379.24 408.172 379.27L416.453 361.065C416.322 361.005 416.189 360.945 416.054 360.886L407.984 379.186ZM398.088 380.42C398.452 379.707 399.267 378.868 401.303 378.455C403.461 378.017 406.033 378.325 407.984 379.186L416.054 360.886C410.431 358.406 403.657 357.57 397.326 358.854C390.873 360.164 384.056 363.915 380.272 371.331L398.088 380.42ZM396.577 390.224C396.245 386.286 396.837 382.873 398.088 380.42L380.272 371.331C376.896 377.95 376.094 385.321 376.647 391.9L396.577 390.224ZM326.781 373.219C334.059 387.881 344.35 396.724 356.143 400.732C367.652 404.644 379.447 403.567 389.411 400.662L383.812 381.461C376.43 383.614 369.043 383.993 362.579 381.796C356.399 379.696 349.927 374.865 344.696 364.326L326.781 373.219Z" fill="#FFFBFB"/>
<path d="M412.019 370.036C412.117 370.079 412.215 370.123 412.313 370.167C411.89 365.112 413.765 356.196 417.073 353.014C422.51 347.781 430.642 344.848 438.187 346.108C442.902 346.895 448.142 348.541 452.415 350.701C456.196 352.612 461.637 358.561 461.637 358.561C464.693 361.661 470.074 370.495 467.148 381.037C473.26 383.087 479.515 386.969 483.107 392.4C488.208 400.112 492.172 409.813 491.313 419.205C490.429 428.87 483.824 436.343 476.12 441.636C469.562 446.142 459.753 449.037 451.791 447.836C448.509 447.341 445.173 446.176 442.001 445.22C439.004 444.316 435.371 443.154 433.037 440.97C429.211 437.391 425.927 432.243 424.711 427.141C424.484 426.184 423.434 415.615 422.26 415.686C421.232 415.749 419.928 416.919 418.976 417.297C417.484 417.889 415.926 418.106 414.353 418.363C410.969 418.918 407.634 419.873 404.17 419.334C401.275 418.884 399.35 417.151 397.443 415.075C393.341 410.607 390.753 406.336 388.692 400.611C385.935 392.954 385.406 383.275 389.181 375.876C393.328 367.746 404.445 366.696 412.019 370.036Z" fill="#E7E2DE"/>
<path d="M425.767 379.094C424.417 378.466 423.232 376.953 422.012 376.104C418.914 373.949 415.477 371.56 412.019 370.036C404.445 366.696 393.328 367.746 389.181 375.876C385.406 383.275 385.935 392.954 388.692 400.611C390.753 406.336 393.341 410.607 397.443 415.075C399.35 417.151 401.275 418.884 404.17 419.334C407.634 419.873 410.969 418.918 414.353 418.363C415.926 418.106 417.484 417.889 418.976 417.297C419.928 416.919 421.232 415.749 422.26 415.686M422.26 415.686C423.434 415.615 424.484 426.184 424.711 427.141C425.927 432.243 429.211 437.391 433.037 440.97C435.371 443.154 439.004 444.316 442.001 445.22C445.173 446.176 448.509 447.341 451.791 447.836C459.753 449.037 469.562 446.142 476.12 441.636C483.824 436.343 490.429 428.87 491.313 419.205C492.172 409.813 488.208 400.112 483.107 392.4C479.515 386.969 473.26 383.087 467.148 381.037C470.074 370.495 464.693 361.661 461.637 358.561C461.637 358.561 456.196 352.612 452.415 350.701C448.142 348.541 442.902 346.895 438.187 346.108C430.642 344.848 422.51 347.781 417.073 353.014C413.765 356.196 411.89 365.112 412.313 370.167M422.26 415.686C425.852 414.412 433.037 409.613 433.037 400.611" stroke="#2E2D30" stroke-width="4" stroke-linecap="round"/>
<path d="M434.663 304.137C435.459 303.522 436.985 302.167 438.069 301.97C447.209 296.18 450.052 292.123 456.955 287.934C462.824 283.438 470.644 279.909 478.242 279.909C482.948 279.909 487.578 281.194 489.711 285.856C491.038 288.755 490.56 292.25 489.389 295.132C489.259 295.451 487.782 298.415 488.744 298.486C496.602 299.069 509.478 300.79 514.713 306.147C522.201 313.809 528.916 320.084 529.264 335.384C530.431 339.592 528.839 346.935 527.072 351.058C525.909 353.773 522.916 355.352 520.145 355.921C519.655 356.022 514.789 356.11 514.713 356.45C514.553 357.172 514.883 358.196 514.984 358.889C515.272 360.865 515.543 362.869 515.126 364.849C513.895 370.698 509.227 375.052 503.193 375.531C501.259 375.684 498.897 375.203 497.529 373.699C497.372 373.526 496.866 372.434 496.639 372.434C496.54 372.434 496.576 374.495 496.575 374.55C496.461 378.126 494.949 380.821 492.175 383.091C488.82 385.836 485.622 386.7 481.364 386.909C478.992 387.026 476.569 387.033 474.243 386.496C470.804 385.703 468.114 383.143 465.393 381.039C463.105 379.27 460.787 376.047 457.691 376.047C454.487 376.047 451.253 375.556 448.132 374.834C443.745 373.82 440.933 371.606 437.785 368.435C433.861 364.483 430.465 359.664 429.309 354.115C427.857 347.143 429.689 339.616 433.347 333.603C434.835 331.157 436.754 328.872 438.933 327.01C439.821 326.253 440.172 326.074 439.024 325.372C433.844 322.206 429.766 318.445 430.457 311.878C430.741 309.181 432.477 305.825 434.663 304.137Z" fill="#E7E2DE" stroke="#2E2D30" stroke-width="4" stroke-linecap="round"/>
<path d="M476.423 298.273C456.921 261.002 406.365 248.945 382.966 247.601C354.386 246.749 350.706 256.502 353.218 263.998C354.163 266.817 357.07 268.286 360.026 268.603C407.586 273.706 433.317 295.719 442.536 309.281C444.157 311.666 446.462 313.628 449.304 314.12C466.074 317.024 473.996 310.148 476.809 304.316C477.736 302.395 477.412 300.163 476.423 298.273Z" fill="#2E2D30"/>
<path d="M244.563 454.132C242.764 419.348 255.808 384.664 262.555 371.67C272.749 357.876 285.295 362.424 290.293 366.422C269.903 392.211 263.305 441.138 262.555 462.378L244.563 454.132Z" fill="#2E2D30"/>
<path d="M408.629 400.717C339.344 434.363 310.547 380.86 303.879 346.073C303.383 343.485 303.942 340.666 306.075 339.118C311.594 335.111 318.918 337.038 324.003 339.653C326.331 340.85 327.727 343.263 328.247 345.829C339.878 403.159 378.428 397.405 400.26 385.351C403.123 383.77 406.726 383.151 409.222 385.265C413.19 388.625 413.421 393.075 412.571 396.417C412.072 398.376 410.448 399.834 408.629 400.717Z" fill="#2E2D30"/>
<path d="M81.9527 236.019C102.882 256.571 128.71 267.891 145.326 272.845C150.548 274.403 155.601 267.586 157.055 262.334C158.943 255.52 153.101 247.442 146.325 245.421C127.243 239.728 106.132 227.199 94.2218 218.96C92.3555 217.669 90.0918 216.874 87.892 217.432C80.152 219.394 78.9798 226.506 79.6207 231.637C79.8317 233.326 80.7382 234.827 81.9527 236.019Z" fill="#2E2D30"/>
<circle cx="274.379" cy="231.931" r="147.931" fill="#E7E2DE" stroke="#2E2D30" stroke-width="4"/>
<path d="M347.343 231.931C347.343 273.09 338.998 310.254 325.598 337.054C312.138 363.974 293.913 379.863 274.378 379.863C254.842 379.863 236.618 363.974 223.158 337.054C209.758 310.254 201.412 273.09 201.412 231.931C201.412 190.772 209.758 153.608 223.158 126.808C236.618 99.8887 254.842 84 274.378 84C293.913 84 312.138 99.8887 325.598 126.808C338.998 153.608 347.343 190.772 347.343 231.931Z" fill="#E7E2DE" stroke="#2E2D30" stroke-width="4"/>
<rect x="271.381" y="82" width="4" height="299.863" fill="#2E2D30"/>
<rect x="124.447" y="228.933" width="299.863" height="4" fill="#2E2D30"/>
<rect x="148.436" y="152.468" width="251.885" height="4" fill="#2E2D30"/>
<rect x="147" y="305" width="254" height="4" fill="#2E2D30"/>
<circle cx="190.417" cy="216.938" r="47.4773" fill="#FFFBFB" stroke="#2E2D30" stroke-width="4"/>
<mask id="mask0_1354_2835" style="mask-type:alpha" maskUnits="userSpaceOnUse" x="140" y="167" width="100" height="100">
<circle cx="190.417" cy="216.938" r="47.4773" fill="#FFFBFB" stroke="#2E2D30" stroke-width="4"/>
</mask>
<g mask="url(#mask0_1354_2835)">
<circle cx="158.182" cy="225.184" r="29.2366" fill="#2E2D30"/>
</g>
<mask id="path-18-inside-1_1354_2835" fill="white">
<path d="M239.894 215.438C239.894 209.138 238.614 202.899 236.128 197.078C233.641 191.257 229.997 185.968 225.403 181.513C220.808 177.058 215.354 173.524 209.351 171.113C203.348 168.701 196.914 167.46 190.417 167.46C183.919 167.46 177.485 168.701 171.483 171.113C165.48 173.524 160.025 177.058 155.431 181.513C150.837 185.968 147.192 191.257 144.706 197.078C142.219 202.899 140.939 209.138 140.939 215.438L190.417 215.438H239.894Z"/>
</mask>
<path d="M239.894 215.438C239.894 209.138 238.614 202.899 236.128 197.078C233.641 191.257 229.997 185.968 225.403 181.513C220.808 177.058 215.354 173.524 209.351 171.113C203.348 168.701 196.914 167.46 190.417 167.46C183.919 167.46 177.485 168.701 171.483 171.113C165.48 173.524 160.025 177.058 155.431 181.513C150.837 185.968 147.192 191.257 144.706 197.078C142.219 202.899 140.939 209.138 140.939 215.438L190.417 215.438H239.894Z" fill="#E7E2DE" stroke="#2E2D30" stroke-width="8" mask="url(#path-18-inside-1_1354_2835)"/>
<circle cx="274.38" cy="216.938" r="47.4773" fill="#FFFBFB" stroke="#2E2D30" stroke-width="4"/>
<mask id="mask1_1354_2835" style="mask-type:alpha" maskUnits="userSpaceOnUse" x="224" y="167" width="100" height="100">
<circle cx="274.38" cy="216.938" r="47.4773" fill="#FFFBFB" stroke="#2E2D30" stroke-width="4"/>
</mask>
<g mask="url(#mask1_1354_2835)">
<circle cx="242.145" cy="225.184" r="29.2366" fill="#2E2D30"/>
</g>
<mask id="path-22-inside-2_1354_2835" fill="white">
<path d="M323.857 215.439C323.857 209.138 322.577 202.9 320.091 197.079C317.604 191.258 313.96 185.969 309.365 181.513C304.771 177.058 299.317 173.524 293.314 171.113C287.311 168.702 280.877 167.461 274.38 167.461C267.882 167.461 261.448 168.702 255.446 171.113C249.443 173.524 243.988 177.058 239.394 181.513C234.8 185.969 231.155 191.258 228.669 197.079C226.182 202.9 224.902 209.138 224.902 215.439L274.38 215.439H323.857Z"/>
</mask>
<path d="M323.857 215.439C323.857 209.138 322.577 202.9 320.091 197.079C317.604 191.258 313.96 185.969 309.365 181.513C304.771 177.058 299.317 173.524 293.314 171.113C287.311 168.702 280.877 167.461 274.38 167.461C267.882 167.461 261.448 168.702 255.446 171.113C249.443 173.524 243.988 177.058 239.394 181.513C234.8 185.969 231.155 191.258 228.669 197.079C226.182 202.9 224.902 209.138 224.902 215.439L274.38 215.439H323.857Z" fill="#E7E2DE" stroke="#2E2D30" stroke-width="8" mask="url(#path-22-inside-2_1354_2835)"/>
<path d="M296.776 290.318C297.941 297.653 295.541 303.947 290.176 308.914C284.739 313.946 276.182 317.668 265.076 319.432C253.972 321.196 243.711 320.464 236.01 317.454C228.351 314.461 223.383 309.307 222.247 302.157C221.666 298.497 222.46 296.892 223.561 296.004C224.898 294.927 227.289 294.362 231.063 294.192C233.499 294.083 236.229 294.138 239.277 294.2C240.881 294.232 242.574 294.266 244.357 294.279C249.444 294.316 255.086 294.17 260.916 293.244C266.75 292.318 271.935 290.743 276.43 289.18C278.22 288.558 279.863 287.954 281.386 287.393C283.774 286.513 285.871 285.741 287.79 285.178C290.977 284.241 292.865 284.159 294.043 284.721C295.054 285.202 296.169 286.499 296.776 290.318Z" fill="#FFFBFB" stroke="#2E2D30" stroke-width="4"/>
<line x1="269" y1="291" x2="269" y2="320" stroke="#2E2D30" stroke-width="4"/>
<line x1="269" y1="291" x2="269" y2="320" stroke="#2E2D30" stroke-width="4"/>
<line x1="269" y1="291" x2="269" y2="320" stroke="#2E2D30" stroke-width="4"/>
<line x1="246.395" y1="293.403" x2="246.395" y2="320.39" stroke="#2E2D30" stroke-width="4"/>
<line x1="246.395" y1="293.403" x2="246.395" y2="320.39" stroke="#2E2D30" stroke-width="4"/>
<line x1="246.395" y1="293.403" x2="246.395" y2="320.39" stroke="#2E2D30" stroke-width="4"/>
<path d="M299.867 275.411C301.616 275.911 305.415 278.71 306.614 285.906" stroke="#2E2D30" stroke-width="4" stroke-linecap="round"/>
<path d="M232.921 404.694C229.863 406.116 229.744 408.22 229.789 411.408C229.816 413.32 232.286 414.477 230.961 415.856C229.09 417.803 227.293 419.808 225.54 421.922C224.825 422.784 224.583 422.364 224.122 421.563L224.1 421.526C222.477 418.712 220.485 416.373 217.907 414.361C212.271 409.962 204.574 405.51 197.313 404.784C188.171 403.87 177.215 406.386 170.238 412.633C158.98 422.711 154.254 438.081 156.466 452.795C158.845 468.621 170.502 481.709 187.304 480.825C190.853 480.638 192.581 479.025 195.297 477.188C195.747 476.884 197.379 484.603 197.583 485.307C200.96 496.941 208.871 504.899 220.554 508.386C228.254 510.685 239.132 510.755 246.495 507.108C253.327 503.724 257.212 499.34 260.572 492.526C261.681 490.278 263.194 487.297 263.777 484.893C264.552 481.697 264.137 478.128 264.137 474.884C264.137 467.754 263.416 460.136 264.461 453.065C265.03 449.214 266.059 446.34 268.133 443.02C268.472 442.478 269.646 441.143 269.646 440.518C269.646 439.728 270.33 439.741 270.942 439.708C273.323 439.579 276.609 436.92 278.197 435.333C285.496 428.034 278.884 418.751 272.562 413.677C266.978 409.195 259.775 406.937 253.04 404.826L252.904 404.784C246.478 402.77 239.272 401.74 232.921 404.694Z" fill="#E7E2DE" stroke="#2E2D30" stroke-width="4" stroke-linecap="round"/>
<path d="M174.176 425.033C179.807 425.033 184.996 426.01 190.312 428.357C195.152 430.494 199.509 433.8 203.083 437.682C207.824 442.832 208.507 448.361 209.935 454.954" stroke="#2E2D30" stroke-width="4" stroke-linecap="round"/>
<path d="M218.693 457.873C223.601 457.873 228.352 457.897 233.167 459.251C243.359 462.118 249.563 469.974 255.183 478.307" stroke="#2E2D30" stroke-width="4" stroke-linecap="round"/>
<path d="M163.637 449.068L179.042 432.379" stroke="#2E2D30" stroke-width="4" stroke-linecap="round"/>
<path d="M163.637 449.068L179.042 432.379" stroke="#2E2D30" stroke-width="4" stroke-linecap="round"/>
<path d="M163.637 449.068L179.042 432.379" stroke="#2E2D30" stroke-width="4" stroke-linecap="round"/>
<path d="M170.057 456.77L185.462 440.081" stroke="#2E2D30" stroke-width="4" stroke-linecap="round"/>
<path d="M170.057 456.77L185.462 440.081" stroke="#2E2D30" stroke-width="4" stroke-linecap="round"/>
<path d="M170.057 456.77L185.462 440.081" stroke="#2E2D30" stroke-width="4" stroke-linecap="round"/>
<path d="M175.191 463.189L190.596 446.5" stroke="#2E2D30" stroke-width="4" stroke-linecap="round"/>
<path d="M175.191 463.189L190.596 446.5" stroke="#2E2D30" stroke-width="4" stroke-linecap="round"/>
<path d="M175.191 463.189L190.596 446.5" stroke="#2E2D30" stroke-width="4" stroke-linecap="round"/>
<path d="M184.18 468.324L199.585 451.635" stroke="#2E2D30" stroke-width="4" stroke-linecap="round"/>
<path d="M184.18 468.324L199.585 451.635" stroke="#2E2D30" stroke-width="4" stroke-linecap="round"/>
<path d="M184.18 468.324L199.585 451.635" stroke="#2E2D30" stroke-width="4" stroke-linecap="round"/>
<path d="M208.57 485.012L223.975 468.323" stroke="#2E2D30" stroke-width="4" stroke-linecap="round"/>
<path d="M208.57 485.012L223.975 468.323" stroke="#2E2D30" stroke-width="4" stroke-linecap="round"/>
<path d="M208.57 485.012L223.975 468.323" stroke="#2E2D30" stroke-width="4" stroke-linecap="round"/>
<path d="M229.109 500.417L244.514 483.729" stroke="#2E2D30" stroke-width="4" stroke-linecap="round"/>
<path d="M229.109 500.417L244.514 483.729" stroke="#2E2D30" stroke-width="4" stroke-linecap="round"/>
<path d="M229.109 500.417L244.514 483.729" stroke="#2E2D30" stroke-width="4" stroke-linecap="round"/>
<path d="M221.408 495.283L236.813 478.594" stroke="#2E2D30" stroke-width="4" stroke-linecap="round"/>
<path d="M221.408 495.283L236.813 478.594" stroke="#2E2D30" stroke-width="4" stroke-linecap="round"/>
<path d="M221.408 495.283L236.813 478.594" stroke="#2E2D30" stroke-width="4" stroke-linecap="round"/>
<path d="M213.703 491.431L229.108 474.742" stroke="#2E2D30" stroke-width="4" stroke-linecap="round"/>
<path d="M213.703 491.431L229.108 474.742" stroke="#2E2D30" stroke-width="4" stroke-linecap="round"/>
<path d="M213.703 491.431L229.108 474.742" stroke="#2E2D30" stroke-width="4" stroke-linecap="round"/>
<path d="M99.8308 230.869C102.214 224.572 101.712 218.626 99.0861 212.566C97.7242 209.423 97.2992 206.526 98.2831 203.245C101.26 193.319 99.2259 186.208 99.8308 178.465C100.287 172.631 102.906 168.169 106.827 163.931C109.05 161.528 111.551 159.152 114.184 157.205C115.968 155.887 118.206 154.942 119.691 153.256C123.778 148.616 121.804 139.603 118.721 135.088C114.286 128.595 105.544 126.31 98.1156 127.144C85.853 128.521 73.4441 137.473 70.0857 149.622C69.7222 150.937 69.2563 157.433 66.8358 156.844C65.1725 156.44 64.0197 155.719 62.6148 154.974C59.0433 153.08 55.0151 152.017 50.9835 151.718C46.0465 151.352 40.1655 153.961 36.74 156.844C30.6987 161.929 32.2092 167.727 31.8773 174.696C31.7542 177.281 30.8682 176.435 29.0337 177.291C26.1728 178.626 24.6358 181.695 23.4593 184.468C21.9453 188.037 22.6553 191.878 23.4593 195.527C23.8569 197.331 25.2715 198.899 23.6624 199.905C4.53858 211.857 21.0673 236.197 34.9692 244.59C41.3591 248.448 50.0487 252.259 57.673 251C62.4649 250.208 67.744 246.458 71.9588 249.736C77.3725 253.947 86.1999 251.315 90.4649 247.05C95.4902 242.025 97.3772 237.353 99.8308 230.869Z" fill="#E7E2DE" stroke="#2E2D30" stroke-width="4" stroke-linecap="round"/>
<path d="M25.4961 198.949C29.8389 197.238 34.0785 197.456 38.6643 197.456C43.0474 197.456 47.9973 197.666 51.8079 200.124C55.588 202.563 57.894 206.099 60.5949 209.572C62.854 212.476 64.1599 219.72 61.8187 222.814C58.2359 227.548 54.8347 227.828 49.3848 228.737" stroke="#2E2D30" stroke-width="4" stroke-linecap="round"/>
<path d="M28.8398 177.881C34.3578 176.574 40.03 175.663 45.7219 176.496C50.1957 177.15 54.6717 178.922 58.746 180.794C61.7929 182.194 64.2827 184.849 65.8406 187.798C67.4468 190.838 68.7621 193.76 68.9218 197.275C69.0616 200.35 69.3481 203.465 69.1419 206.557C69.0226 208.347 66.9259 212.603 64.7272 212.603" stroke="#2E2D30" stroke-width="4" stroke-linecap="round"/>
<path d="M66.7266 156.966C67.9569 157.688 71.8975 160.151 72.8302 161.232C75.5503 164.385 77.267 167.311 78.0993 171.473C78.4581 173.267 78.2417 175.257 78.2417 177.078C78.2417 180.126 77.8236 183.366 76.5069 186.154C75.4746 188.34 74.1696 190.23 72.3123 191.734C71.8421 192.114 70.9677 192.246 70.7846 192.795" stroke="#2E2D30" stroke-width="4" stroke-linecap="round"/>
<path d="M67.4766 248.436C70.4738 248.306 73.8238 247.993 76.5973 246.794C80.333 245.18 82.0151 241.595 83.2372 237.929" stroke="#2E2D30" stroke-width="4" stroke-linecap="round"/>
<path d="M91.4648 209.398C94.5786 209.398 96.1382 209.26 97.7034 206.443" stroke="#2E2D30" stroke-width="4" stroke-linecap="round"/>
<path d="M437.855 325.578C439.438 325.578 439.962 326.103 441.326 326.723C442.959 327.465 444.145 327.815 446.013 327.832C448.91 327.858 451.768 327.188 454.599 327.188" stroke="#2E2D30" stroke-width="4" stroke-linecap="round"/>
<path d="M488.738 297.901C488.975 299.616 488.81 300.968 488.136 302.59C486.737 305.952 484.886 308.967 482.785 311.933" stroke="#2E2D30" stroke-width="4" stroke-linecap="round"/>
<path d="M452.637 357.877C454.736 361.429 457.749 364.267 459.589 368.04C460.789 370.499 461.882 373.904 461.882 376.698" stroke="#2E2D30" stroke-width="4" stroke-linecap="round"/>
<path d="M496.821 374.474C497.072 372.531 497.147 370.467 496.935 368.519C496.573 365.179 495.005 362.178 493.279 359.373" stroke="#2E2D30" stroke-width="4" stroke-linecap="round"/>
<path d="M513.882 355.954C513.79 352.654 513.308 349.997 511.271 347.378" stroke="#2E2D30" stroke-width="4" stroke-linecap="round"/>
</svg>
