<svg width="227" height="104" viewBox="0 0 227 104" fill="none" xmlns="http://www.w3.org/2000/svg">
<path d="M6.47852 94.7168C48.9084 91.0995 91.2564 86.3787 133.625 82.1367" stroke="#2E2D30" stroke-linecap="round"/>
<path d="M197.904 80.7177C195.119 83.907 195.354 83.3408 189.177 84.5882C160.466 90.3862 130.406 93.821 101.143 94.3174C76.0216 94.7435 53.0657 92.086 30.0581 82.0697C23.2289 79.0966 16.8898 75.9583 10.9764 71.4805C9.53832 70.3915 7.76565 69.4311 7.01947 67.7888C6.64811 66.9714 7.36547 65.7009 8.19904 65.3675C10.518 64.44 13.1246 64.3323 15.6222 64.3479C25.5618 64.41 41.845 66.8609 51.0324 68.3557C66.2268 70.8278 81.9683 75.7777 97.4281 76.4551C105.781 76.8211 104.058 72.4881 99.7104 67.6868C89.1422 56.015 75.6509 47.138 64.578 35.9357C61.1411 32.4586 54.0689 26.0708 54.5039 20.2273C54.9561 14.1522 64.422 13.1397 68.6094 12.9006C87.3457 11.8309 106.866 16.185 125.055 19.7888C152.54 25.2345 179.683 32.07 206.225 41.0719C210.245 42.4353 214.273 43.7844 218.224 45.335C220.228 46.1216 225.409 48.4655 223.39 49.2138C214.794 52.399 200.059 50.8265 191.646 50.4051C174.309 49.5367 157.085 47.0933 140.404 42.1708C131.947 39.6753 120.907 35.3669 112.987 31.3575C93.661 21.5732 108.772 27.9525 90.3917 17.3611" stroke="#2E2D30" stroke-linecap="round"/>
</svg>
