<svg width="33" height="33" viewBox="0 0 33 33" fill="none" xmlns="http://www.w3.org/2000/svg">
<circle cx="16.5" cy="16.5" r="11.5" fill="#FFFBFB"/>
<rect x="15" width="2" height="3" rx="1" fill="#FFFBFB"/>
<rect x="15" y="30" width="2" height="3" rx="1" fill="#FFFBFB"/>
<rect x="28.5977" y="5" width="2" height="3" rx="1" transform="rotate(60 28.5977 5)" fill="#FFFBFB"/>
<rect x="3" y="6.73206" width="2" height="3" rx="1" transform="rotate(-60 3 6.73206)" fill="#FFFBFB"/>
<rect x="26" y="26.7321" width="2" height="3" rx="1" transform="rotate(-60 26 26.7321)" fill="#FFFBFB"/>
<rect x="5.59766" y="25" width="2" height="3" rx="1" transform="rotate(60 5.59766 25)" fill="#FFFBFB"/>
<rect x="33" y="16" width="2" height="3" rx="1" transform="rotate(90 33 16)" fill="#FFFBFB"/>
<rect x="3" y="16" width="2" height="3" rx="1" transform="rotate(90 3 16)" fill="#FFFBFB"/>
</svg>
