<svg xmlns="http://www.w3.org/2000/svg" width="286.58" height="58.429" viewBox="0 0 286.58 58.429">
  <g id="Groupe_3844" data-name="Groupe 3844" transform="translate(0 0)">
    <path id="Tracé_16269" data-name="Tracé 16269" d="M0,46.514,24.086,58.429l24.1-11.916v-8.85L24.136,49.578,8.025,41.6V31.615l14.611,7.236V30L8.025,22.766V12.789l14.611,7.237V11.2L0,0Z" transform="translate(0 0.001)" fill="#fff"/>
    <path id="Tracé_16270" data-name="Tracé 16270" d="M44.6,0,21.966,11.195V20.07L44.6,8.855Z" transform="translate(3.585)" fill="#ffb41f"/>
    <path id="Tracé_16271" data-name="Tracé 16271" d="M21.966,36.26,44.6,25.047V16.2L21.966,27.411Z" transform="translate(3.585 2.644)" fill="#ffb41f"/>
    <path id="Tracé_16272" data-name="Tracé 16272" d="M68.864,32.632H89.619v4.347H64.1V10.515H89.166v4.348h-20.3v7.221h18.9v3.932h-18.9Z" transform="translate(10.461 1.716)" fill="#fff"/>
    <path id="Tracé_16273" data-name="Tracé 16273" d="M120.165,36.984,107.878,24.358l-6.843,5.1v7.524H96.271V10.52h4.763V24.168h.114L118.8,10.52l6.086-.037-13.458,10.85L126.25,36.984Z" transform="translate(15.711 1.711)" fill="#fff"/>
    <path id="Tracé_16274" data-name="Tracé 16274" d="M148.55,10.515l13.307,26.464H156.6l-2.609-5.255H137.285l-2.571,5.255h-5.331L142.69,10.515Zm3.516,17.353-6.351-12.892h-.151l-6.352,12.892Z" transform="translate(21.115 1.716)" fill="#fff"/>
    <path id="Tracé_16275" data-name="Tracé 16275" d="M170.9,36.979h-4.763V10.515h4.915l18.071,19.962h.151V10.515h4.763V36.979h-4.915L171.089,17.056h-.19Z" transform="translate(27.113 1.716)" fill="#fff"/>
    <rect id="Rectangle_93" data-name="Rectangle 93" width="4.763" height="26.464" transform="translate(233.996 12.231)" fill="#fff"/>
    <path id="Tracé_16276" data-name="Tracé 16276" d="M244.4,10.515,233.85,30.137h-.113L223.189,10.515h-6.88V36.978h4.763V16h.19l10.963,20.982h3.138L246.326,16h.19V36.978h4.763V10.515Z" transform="translate(35.301 1.716)" fill="#fff"/>
  </g>
</svg>
